<svg width="880" height="106" viewBox="0 0 880 106" fill="none" xmlns="http://www.w3.org/2000/svg">
<path d="M0 12C0 5.37258 5.37258 0 12 0H868C874.627 0 880 5.37258 880 12V94C880 100.627 874.627 106 868 106H12C5.37257 106 0 100.627 0 94V12Z" fill="#60AB56"/>
<path d="M12 24C12 17.3726 17.3726 12 24 12H82C88.6274 12 94 17.3726 94 24V82C94 88.6274 88.6274 94 82 94H24C17.3726 94 12 88.6274 12 82V24Z" fill="#074D31"/>
<path d="M65.25 70.8197C68.0793 68.53 70.1995 65.4833 71.3633 62.0347" stroke="white" stroke-width="2" stroke-linecap="round" stroke-linejoin="round"/>
<path d="M42.5 48.625C42.9832 48.625 43.375 49.0168 43.375 49.5C43.375 49.9832 42.9832 50.375 42.5 50.375C42.0168 50.375 41.625 49.9832 41.625 49.5C41.625 49.0168 42.0168 48.625 42.5 48.625" stroke="white" stroke-width="2" stroke-linecap="round" stroke-linejoin="round"/>
<path d="M68.7501 33.75H64.0064C62.507 33.751 61.2187 34.8149 60.9342 36.2871C60.6496 37.7593 61.4487 39.2266 62.8397 39.7863L67.6557 41.7137C69.0468 42.2734 69.8459 43.7407 69.5613 45.2129C69.2768 46.6851 67.9885 47.749 66.4891 47.75H61.7501" stroke="white" stroke-width="2" stroke-linecap="round" stroke-linejoin="round"/>
<path d="M65.25 33.75V32" stroke="white" stroke-width="2" stroke-linecap="round" stroke-linejoin="round"/>
<path d="M65.25 49.5V47.75" stroke="white" stroke-width="2" stroke-linecap="round" stroke-linejoin="round"/>
<path fill-rule="evenodd" clip-rule="evenodd" d="M65.25 54.75C72.982 54.75 79.25 48.482 79.25 40.75C79.25 33.018 72.982 26.75 65.25 26.75C57.518 26.75 51.25 33.018 51.25 40.75C51.25 48.482 57.518 54.75 65.25 54.75Z" stroke="white" stroke-width="1.5" stroke-linecap="round" stroke-linejoin="round"/>
<path d="M46.0863 37.9056L41.4593 34.0486C40.9675 33.6394 40.2915 33.5311 39.6965 33.7664C39.1014 34.0017 38.6823 34.543 38.6033 35.178L37.7727 41.814C34.6188 44.1936 32.2768 47.489 31.0667 51.25H26.75V65.25H32.56C36.4412 71.8638 43.5825 75.8758 51.25 75.75C60.4002 75.991 68.6318 70.2197 71.5243 61.5353" stroke="white" stroke-width="2" stroke-linecap="round" stroke-linejoin="round"/>
<path d="M39.0257 72.1427L37.25 79.25" stroke="white" stroke-width="2" stroke-linecap="round" stroke-linejoin="round"/>
<path d="M63.4766 72.1543L65.2499 79.25" stroke="white" stroke-width="2" stroke-linecap="round" stroke-linejoin="round"/>
<path d="M116.5 37.5H114.54V43H111.64V29.22H117.7C120.7 29.22 122.32 30.88 122.32 33C122.32 34.86 121.3 35.86 120.32 36.26C121 36.52 122.02 37.24 122.02 39.7V40.38C122.02 41.3 122.04 42.36 122.22 43H119.4C119.16 42.4 119.12 41.38 119.12 39.92V39.72C119.12 38.2 118.72 37.5 116.5 37.5ZM114.54 31.6V35.12H117.04C118.68 35.12 119.3 34.5 119.3 33.34C119.3 32.22 118.58 31.6 117.12 31.6H114.54ZM133.485 38.44H126.665C126.665 39.74 127.305 41 128.745 41C129.925 41 130.265 40.52 130.545 39.9H133.425C133.045 41.16 131.925 43.24 128.665 43.24C125.265 43.24 123.785 40.7 123.785 37.98C123.785 34.74 125.445 32.42 128.765 32.42C132.325 32.42 133.525 34.98 133.525 37.58C133.525 37.92 133.525 38.16 133.485 38.44ZM126.725 36.68H130.665C130.645 35.48 130.165 34.46 128.765 34.46C127.385 34.46 126.845 35.42 126.725 36.68ZM134.799 39.9H137.619C137.819 40.72 138.499 41.18 139.579 41.18C140.619 41.18 141.019 40.8 141.019 40.18C141.019 39.52 140.559 39.26 139.079 38.88C135.719 38.06 135.159 37.02 135.159 35.56C135.159 34.04 136.239 32.42 139.359 32.42C142.499 32.42 143.559 34.14 143.659 35.54H140.919C140.839 35.16 140.579 34.42 139.239 34.42C138.279 34.42 137.979 34.84 137.979 35.32C137.979 35.82 138.299 36.08 139.979 36.48C143.439 37.28 143.919 38.46 143.919 39.98C143.919 41.68 142.619 43.24 139.459 43.24C136.319 43.24 135.019 41.74 134.799 39.9ZM154.795 32.66V40C154.795 41 154.795 42.08 154.815 43H151.995C151.955 42.74 151.935 42.18 151.915 41.82C151.315 42.86 150.395 43.24 149.075 43.24C146.955 43.24 145.615 41.96 145.615 39.4V32.66H148.475V38.82C148.475 39.96 148.835 40.92 150.075 40.92C151.375 40.92 151.915 40.22 151.915 38.16V32.66H154.795ZM157.374 43V35.32C157.374 34.44 157.374 33.54 157.354 32.66H160.094C160.134 32.9 160.194 33.48 160.194 33.9C160.734 33.12 161.554 32.42 163.074 32.42C164.574 32.42 165.394 33.18 165.754 34C166.354 33.14 167.254 32.42 168.934 32.42C170.754 32.42 172.214 33.52 172.214 36.22V43H169.434V36.56C169.434 35.64 169.094 34.72 167.914 34.72C166.694 34.72 166.214 35.5 166.214 37.1V43H163.414V36.68C163.414 35.6 163.154 34.74 161.914 34.74C160.754 34.74 160.194 35.46 160.194 37.22V43H157.374ZM179.416 32.42C182.456 32.42 184.416 34.56 184.416 37.82C184.416 40.94 182.556 43.24 179.276 43.24C176.056 43.24 174.196 40.96 174.196 37.86C174.196 34.68 176.116 32.42 179.416 32.42ZM179.296 34.66C177.956 34.66 177.096 35.64 177.096 37.84C177.096 39.82 177.956 41 179.336 41C180.736 41 181.516 39.82 181.516 37.86C181.516 35.68 180.716 34.66 179.296 34.66ZM197.861 28.42H200.741V40.16C200.741 41.1 200.741 42.06 200.761 43H198.001C197.941 42.7 197.881 42.16 197.861 41.92C197.361 42.74 196.481 43.24 194.941 43.24C192.321 43.24 190.641 41.14 190.641 37.92C190.641 34.74 192.421 32.42 195.361 32.42C196.841 32.42 197.641 32.94 197.861 33.4V28.42ZM195.861 34.72C194.361 34.72 193.601 35.88 193.601 37.84C193.601 39.86 194.381 40.96 195.781 40.96C197.761 40.96 197.981 39.32 197.981 37.82C197.981 36.06 197.741 34.72 195.861 34.72ZM211.774 35.98V40.34C211.774 41.32 211.854 42.76 211.914 43H209.174C209.094 42.8 209.034 42.26 209.034 42C208.654 42.58 207.954 43.24 206.134 43.24C203.634 43.24 202.574 41.6 202.574 40C202.574 37.64 204.474 36.56 207.514 36.56C208.014 36.56 208.634 36.56 208.974 36.56V35.92C208.974 35.18 208.714 34.46 207.394 34.46C206.174 34.46 205.914 34.98 205.774 35.72H203.054C203.214 33.88 204.354 32.4 207.494 32.42C210.274 32.44 211.774 33.52 211.774 35.98ZM208.974 38.56V38.3C208.754 38.3 208.194 38.3 207.814 38.3C206.094 38.3 205.454 38.82 205.454 39.82C205.454 40.58 205.914 41.2 206.934 41.2C208.754 41.2 208.974 39.94 208.974 38.56ZM218.51 39.9H221.33C221.53 40.72 222.21 41.18 223.29 41.18C224.33 41.18 224.73 40.8 224.73 40.18C224.73 39.52 224.27 39.26 222.79 38.88C219.43 38.06 218.87 37.02 218.87 35.56C218.87 34.04 219.95 32.42 223.07 32.42C226.21 32.42 227.27 34.14 227.37 35.54H224.63C224.55 35.16 224.29 34.42 222.95 34.42C221.99 34.42 221.69 34.84 221.69 35.32C221.69 35.82 222.01 36.08 223.69 36.48C227.15 37.28 227.63 38.46 227.63 39.98C227.63 41.68 226.33 43.24 223.17 43.24C220.03 43.24 218.73 41.74 218.51 39.9ZM238.505 32.66V40C238.505 41 238.505 42.08 238.525 43H235.705C235.665 42.74 235.645 42.18 235.625 41.82C235.025 42.86 234.105 43.24 232.785 43.24C230.665 43.24 229.325 41.96 229.325 39.4V32.66H232.185V38.82C232.185 39.96 232.545 40.92 233.785 40.92C235.085 40.92 235.625 40.22 235.625 38.16V32.66H238.505ZM249.665 35.98V40.34C249.665 41.32 249.745 42.76 249.805 43H247.065C246.985 42.8 246.925 42.26 246.925 42C246.545 42.58 245.845 43.24 244.025 43.24C241.525 43.24 240.465 41.6 240.465 40C240.465 37.64 242.365 36.56 245.405 36.56C245.905 36.56 246.525 36.56 246.865 36.56V35.92C246.865 35.18 246.605 34.46 245.285 34.46C244.065 34.46 243.805 34.98 243.665 35.72H240.945C241.105 33.88 242.245 32.4 245.385 32.42C248.165 32.44 249.665 33.52 249.665 35.98ZM246.865 38.56V38.3C246.645 38.3 246.085 38.3 245.705 38.3C243.985 38.3 243.345 38.82 243.345 39.82C243.345 40.58 243.805 41.2 244.825 41.2C246.645 41.2 246.865 39.94 246.865 38.56ZM266.2 38.44H259.38C259.38 39.74 260.02 41 261.46 41C262.64 41 262.98 40.52 263.26 39.9H266.14C265.76 41.16 264.64 43.24 261.38 43.24C257.98 43.24 256.5 40.7 256.5 37.98C256.5 34.74 258.16 32.42 261.48 32.42C265.04 32.42 266.24 34.98 266.24 37.58C266.24 37.92 266.24 38.16 266.2 38.44ZM259.44 36.68H263.38C263.36 35.48 262.88 34.46 261.48 34.46C260.1 34.46 259.56 35.42 259.44 36.68ZM274.51 39.66H277.33C276.97 41.38 275.77 43.24 272.67 43.24C269.45 43.24 267.79 41.02 267.79 37.9C267.79 34.86 269.67 32.42 272.81 32.42C276.31 32.42 277.27 34.92 277.33 36.1H274.53C274.35 35.26 273.87 34.66 272.75 34.66C271.45 34.66 270.71 35.8 270.71 37.82C270.71 40.02 271.49 41.02 272.75 41.02C273.73 41.02 274.25 40.44 274.51 39.66ZM283.869 32.42C286.909 32.42 288.869 34.56 288.869 37.82C288.869 40.94 287.009 43.24 283.729 43.24C280.509 43.24 278.649 40.96 278.649 37.86C278.649 34.68 280.569 32.42 283.869 32.42ZM283.749 34.66C282.409 34.66 281.549 35.64 281.549 37.84C281.549 39.82 282.409 41 283.789 41C285.189 41 285.969 39.82 285.969 37.86C285.969 35.68 285.169 34.66 283.749 34.66ZM290.87 43V35.26C290.87 34.38 290.87 33.42 290.85 32.66H293.63C293.67 32.92 293.71 33.64 293.73 33.98C294.09 33.32 294.93 32.42 296.73 32.42C298.81 32.42 300.17 33.82 300.17 36.42V43H297.29V36.74C297.29 35.58 296.91 34.74 295.65 34.74C294.43 34.74 293.73 35.42 293.73 37.24V43H290.87ZM307.326 32.42C310.366 32.42 312.326 34.56 312.326 37.82C312.326 40.94 310.466 43.24 307.186 43.24C303.966 43.24 302.106 40.96 302.106 37.86C302.106 34.68 304.026 32.42 307.326 32.42ZM307.206 34.66C305.866 34.66 305.006 35.64 305.006 37.84C305.006 39.82 305.866 41 307.246 41C308.646 41 309.426 39.82 309.426 37.86C309.426 35.68 308.626 34.66 307.206 34.66ZM314.307 43V35.32C314.307 34.44 314.307 33.54 314.287 32.66H317.027C317.067 32.9 317.127 33.48 317.127 33.9C317.667 33.12 318.487 32.42 320.007 32.42C321.507 32.42 322.327 33.18 322.687 34C323.287 33.14 324.187 32.42 325.867 32.42C327.687 32.42 329.147 33.52 329.147 36.22V43H326.367V36.56C326.367 35.64 326.027 34.72 324.847 34.72C323.627 34.72 323.147 35.5 323.147 37.1V43H320.347V36.68C320.347 35.6 320.087 34.74 318.847 34.74C317.687 34.74 317.127 35.46 317.127 37.22V43H314.307ZM331.729 43V32.66H334.589V43H331.729ZM331.729 30.96V28.42H334.589V30.96H331.729ZM345.68 35.98V40.34C345.68 41.32 345.76 42.76 345.82 43H343.08C343 42.8 342.94 42.26 342.94 42C342.56 42.58 341.86 43.24 340.04 43.24C337.54 43.24 336.48 41.6 336.48 40C336.48 37.64 338.38 36.56 341.42 36.56C341.92 36.56 342.54 36.56 342.88 36.56V35.92C342.88 35.18 342.62 34.46 341.3 34.46C340.08 34.46 339.82 34.98 339.68 35.72H336.96C337.12 33.88 338.26 32.4 341.4 32.42C344.18 32.44 345.68 33.52 345.68 35.98ZM342.88 38.56V38.3C342.66 38.3 342.1 38.3 341.72 38.3C340 38.3 339.36 38.82 339.36 39.82C339.36 40.58 339.82 41.2 340.84 41.2C342.66 41.2 342.88 39.94 342.88 38.56ZM359.256 39.66H362.076C361.716 41.38 360.516 43.24 357.416 43.24C354.196 43.24 352.536 41.02 352.536 37.9C352.536 34.86 354.416 32.42 357.556 32.42C361.056 32.42 362.016 34.92 362.076 36.1H359.276C359.096 35.26 358.616 34.66 357.496 34.66C356.196 34.66 355.456 35.8 355.456 37.82C355.456 40.02 356.236 41.02 357.496 41.02C358.476 41.02 358.996 40.44 359.256 39.66ZM368.615 32.42C371.655 32.42 373.615 34.56 373.615 37.82C373.615 40.94 371.755 43.24 368.475 43.24C365.255 43.24 363.395 40.96 363.395 37.86C363.395 34.68 365.315 32.42 368.615 32.42ZM368.495 34.66C367.155 34.66 366.295 35.64 366.295 37.84C366.295 39.82 367.155 41 368.535 41C369.935 41 370.715 39.82 370.715 37.86C370.715 35.68 369.915 34.66 368.495 34.66ZM375.596 43V35.32C375.596 34.44 375.596 33.54 375.576 32.66H378.316C378.356 32.9 378.416 33.48 378.416 33.9C378.956 33.12 379.776 32.42 381.296 32.42C382.796 32.42 383.616 33.18 383.976 34C384.576 33.14 385.476 32.42 387.156 32.42C388.976 32.42 390.436 33.52 390.436 36.22V43H387.656V36.56C387.656 35.64 387.316 34.72 386.136 34.72C384.916 34.72 384.436 35.5 384.436 37.1V43H381.636V36.68C381.636 35.6 381.376 34.74 380.136 34.74C378.976 34.74 378.416 35.46 378.416 37.22V43H375.596ZM406.442 35.98V40.34C406.442 41.32 406.522 42.76 406.582 43H403.842C403.762 42.8 403.702 42.26 403.702 42C403.322 42.58 402.622 43.24 400.802 43.24C398.302 43.24 397.242 41.6 397.242 40C397.242 37.64 399.142 36.56 402.182 36.56C402.682 36.56 403.302 36.56 403.642 36.56V35.92C403.642 35.18 403.382 34.46 402.062 34.46C400.842 34.46 400.582 34.98 400.442 35.72H397.722C397.882 33.88 399.022 32.4 402.162 32.42C404.942 32.44 406.442 33.52 406.442 35.98ZM403.642 38.56V38.3C403.422 38.3 402.862 38.3 402.482 38.3C400.762 38.3 400.122 38.82 400.122 39.82C400.122 40.58 400.582 41.2 401.602 41.2C403.422 41.2 403.642 39.94 403.642 38.56ZM119.26 69.82H114.22L113.14 73H110.22L114.9 59.22H118.64L123.52 73H120.38L119.26 69.82ZM114.84 67.38H118.62C117.64 64.48 117.02 62.62 116.68 61.38H116.66C116.32 62.74 115.62 64.9 114.84 67.38ZM124.408 69.9H127.228C127.428 70.72 128.108 71.18 129.188 71.18C130.228 71.18 130.628 70.8 130.628 70.18C130.628 69.52 130.168 69.26 128.688 68.88C125.328 68.06 124.768 67.02 124.768 65.56C124.768 64.04 125.848 62.42 128.968 62.42C132.108 62.42 133.168 64.14 133.268 65.54H130.528C130.448 65.16 130.188 64.42 128.848 64.42C127.888 64.42 127.588 64.84 127.588 65.32C127.588 65.82 127.908 66.08 129.588 66.48C133.048 67.28 133.528 68.46 133.528 69.98C133.528 71.68 132.228 73.24 129.068 73.24C125.928 73.24 124.628 71.74 124.408 69.9ZM134.74 69.9H137.56C137.76 70.72 138.44 71.18 139.52 71.18C140.56 71.18 140.96 70.8 140.96 70.18C140.96 69.52 140.5 69.26 139.02 68.88C135.66 68.06 135.1 67.02 135.1 65.56C135.1 64.04 136.18 62.42 139.3 62.42C142.44 62.42 143.5 64.14 143.6 65.54H140.86C140.78 65.16 140.52 64.42 139.18 64.42C138.22 64.42 137.92 64.84 137.92 65.32C137.92 65.82 138.24 66.08 139.92 66.48C143.38 67.28 143.86 68.46 143.86 69.98C143.86 71.68 142.56 73.24 139.4 73.24C136.26 73.24 134.96 71.74 134.74 69.9ZM145.753 73V62.66H148.613V73H145.753ZM145.753 60.96V58.42H148.613V60.96H145.753ZM151.222 73V65.26C151.222 64.38 151.222 63.42 151.202 62.66H153.982C154.022 62.92 154.062 63.64 154.082 63.98C154.442 63.32 155.282 62.42 157.082 62.42C159.162 62.42 160.522 63.82 160.522 66.42V73H157.642V66.74C157.642 65.58 157.262 64.74 156.002 64.74C154.782 64.74 154.082 65.42 154.082 67.24V73H151.222ZM171.52 65.98V70.34C171.52 71.32 171.6 72.76 171.66 73H168.92C168.84 72.8 168.78 72.26 168.78 72C168.4 72.58 167.7 73.24 165.88 73.24C163.38 73.24 162.32 71.6 162.32 70C162.32 67.64 164.22 66.56 167.26 66.56C167.76 66.56 168.38 66.56 168.72 66.56V65.92C168.72 65.18 168.46 64.46 167.14 64.46C165.92 64.46 165.66 64.98 165.52 65.72H162.8C162.96 63.88 164.1 62.4 167.24 62.42C170.02 62.44 171.52 63.52 171.52 65.98ZM168.72 68.56V68.3C168.5 68.3 167.94 68.3 167.56 68.3C165.84 68.3 165.2 68.82 165.2 69.82C165.2 70.58 165.66 71.2 166.68 71.2C168.5 71.2 168.72 69.94 168.72 68.56ZM172.917 64.82V62.66H174.497V59.86H177.377V62.66H179.397V64.82H177.377V69.92C177.377 70.7 177.617 71.02 178.457 71.02C178.617 71.02 178.897 71.02 179.117 70.98V72.96C178.557 73.14 177.777 73.14 177.197 73.14C175.177 73.14 174.497 72.06 174.497 70.26V64.82H172.917ZM190.088 62.66V70C190.088 71 190.088 72.08 190.108 73H187.288C187.248 72.74 187.228 72.18 187.208 71.82C186.608 72.86 185.688 73.24 184.368 73.24C182.248 73.24 180.908 71.96 180.908 69.4V62.66H183.768V68.82C183.768 69.96 184.128 70.92 185.368 70.92C186.668 70.92 187.208 70.22 187.208 68.16V62.66H190.088ZM192.667 73V65.46C192.667 64.44 192.667 63.52 192.647 62.66H195.447C195.487 62.88 195.527 63.92 195.527 64.48C195.987 63.3 197.087 62.42 198.847 62.42V65.16C196.767 65.1 195.527 65.66 195.527 68.5V73H192.667ZM208.786 65.98V70.34C208.786 71.32 208.866 72.76 208.926 73H206.186C206.106 72.8 206.046 72.26 206.046 72C205.666 72.58 204.966 73.24 203.146 73.24C200.646 73.24 199.586 71.6 199.586 70C199.586 67.64 201.486 66.56 204.526 66.56C205.026 66.56 205.646 66.56 205.986 66.56V65.92C205.986 65.18 205.726 64.46 204.406 64.46C203.186 64.46 202.926 64.98 202.786 65.72H200.066C200.226 63.88 201.366 62.4 204.506 62.42C207.286 62.44 208.786 63.52 208.786 65.98ZM205.986 68.56V68.3C205.766 68.3 205.206 68.3 204.826 68.3C203.106 68.3 202.466 68.82 202.466 69.82C202.466 70.58 202.926 71.2 203.946 71.2C205.766 71.2 205.986 69.94 205.986 68.56ZM215.581 68.96H218.601C218.901 70.36 219.901 70.96 221.501 70.96C223.081 70.96 223.761 70.34 223.761 69.32C223.761 68.2 223.101 67.72 220.741 67.16C217.001 66.28 216.061 64.92 216.061 63.06C216.061 60.66 217.861 59.02 221.121 59.02C224.781 59.02 226.241 60.98 226.441 63H223.441C223.301 62.16 222.821 61.24 221.041 61.24C219.841 61.24 219.101 61.74 219.101 62.72C219.101 63.68 219.701 64.06 221.921 64.58C225.941 65.52 226.821 67.02 226.821 68.96C226.821 71.48 224.901 73.2 221.261 73.2C217.761 73.2 215.921 71.48 215.581 68.96ZM233.615 62.42C236.655 62.42 238.615 64.56 238.615 67.82C238.615 70.94 236.755 73.24 233.475 73.24C230.255 73.24 228.395 70.96 228.395 67.86C228.395 64.68 230.315 62.42 233.615 62.42ZM233.495 64.66C232.155 64.66 231.295 65.64 231.295 67.84C231.295 69.82 232.155 71 233.535 71C234.935 71 235.715 69.82 235.715 67.86C235.715 65.68 234.915 64.66 233.495 64.66ZM243.456 73H240.596V58.42H243.456V73ZM254.548 65.98V70.34C254.548 71.32 254.628 72.76 254.688 73H251.948C251.868 72.8 251.808 72.26 251.808 72C251.428 72.58 250.728 73.24 248.908 73.24C246.408 73.24 245.347 71.6 245.347 70C245.347 67.64 247.248 66.56 250.288 66.56C250.788 66.56 251.408 66.56 251.748 66.56V65.92C251.748 65.18 251.488 64.46 250.168 64.46C248.948 64.46 248.688 64.98 248.548 65.72H245.828C245.988 63.88 247.128 62.4 250.268 62.42C253.048 62.44 254.548 63.52 254.548 65.98ZM251.748 68.56V68.3C251.528 68.3 250.968 68.3 250.588 68.3C248.868 68.3 248.228 68.82 248.228 69.82C248.228 70.58 248.688 71.2 249.708 71.2C251.528 71.2 251.748 69.94 251.748 68.56ZM257.139 73V65.46C257.139 64.44 257.139 63.52 257.119 62.66H259.919C259.959 62.88 259.999 63.92 259.999 64.48C260.459 63.3 261.559 62.42 263.319 62.42V65.16C261.239 65.1 259.999 65.66 259.999 68.5V73H257.139ZM276.474 58.42H279.354V70.16C279.354 71.1 279.354 72.06 279.374 73H276.614C276.554 72.7 276.494 72.16 276.474 71.92C275.974 72.74 275.094 73.24 273.554 73.24C270.934 73.24 269.254 71.14 269.254 67.92C269.254 64.74 271.034 62.42 273.974 62.42C275.454 62.42 276.254 62.94 276.474 63.4V58.42ZM274.474 64.72C272.974 64.72 272.214 65.88 272.214 67.84C272.214 69.86 272.994 70.96 274.394 70.96C276.374 70.96 276.594 69.32 276.594 67.82C276.594 66.06 276.354 64.72 274.474 64.72ZM290.387 65.98V70.34C290.387 71.32 290.467 72.76 290.527 73H287.787C287.707 72.8 287.647 72.26 287.647 72C287.267 72.58 286.567 73.24 284.747 73.24C282.247 73.24 281.187 71.6 281.187 70C281.187 67.64 283.087 66.56 286.127 66.56C286.627 66.56 287.247 66.56 287.587 66.56V65.92C287.587 65.18 287.327 64.46 286.007 64.46C284.787 64.46 284.527 64.98 284.387 65.72H281.667C281.827 63.88 282.967 62.4 286.107 62.42C288.887 62.44 290.387 63.52 290.387 65.98ZM287.587 68.56V68.3C287.367 68.3 286.807 68.3 286.427 68.3C284.707 68.3 284.067 68.82 284.067 69.82C284.067 70.58 284.527 71.2 285.547 71.2C287.367 71.2 287.587 69.94 287.587 68.56ZM306.883 68.76H309.883C309.323 71.34 307.383 73.2 303.943 73.2C299.563 73.2 297.503 70.12 297.503 66.18C297.503 62.4 299.623 59.02 304.083 59.02C307.743 59.02 309.523 61.18 309.863 63.48H306.883C306.603 62.42 305.863 61.36 303.983 61.36C301.523 61.36 300.583 63.58 300.583 66.08C300.583 68.42 301.403 70.86 304.063 70.86C306.003 70.86 306.623 69.56 306.883 68.76ZM316.564 62.42C319.604 62.42 321.564 64.56 321.564 67.82C321.564 70.94 319.704 73.24 316.424 73.24C313.204 73.24 311.344 70.96 311.344 67.86C311.344 64.68 313.264 62.42 316.564 62.42ZM316.444 64.66C315.104 64.66 314.244 65.64 314.244 67.84C314.244 69.82 315.104 71 316.484 71C317.884 71 318.664 69.82 318.664 67.86C318.664 65.68 317.864 64.66 316.444 64.66ZM323.546 73V65.32C323.546 64.44 323.546 63.54 323.526 62.66H326.266C326.306 62.9 326.366 63.48 326.366 63.9C326.906 63.12 327.726 62.42 329.246 62.42C330.746 62.42 331.566 63.18 331.926 64C332.526 63.14 333.426 62.42 335.106 62.42C336.926 62.42 338.386 63.52 338.386 66.22V73H335.606V66.56C335.606 65.64 335.266 64.72 334.086 64.72C332.866 64.72 332.386 65.5 332.386 67.1V73H329.586V66.68C329.586 65.6 329.326 64.74 328.086 64.74C326.926 64.74 326.366 65.46 326.366 67.22V73H323.546ZM350.068 68.44H343.248C343.248 69.74 343.888 71 345.328 71C346.508 71 346.848 70.52 347.128 69.9H350.008C349.628 71.16 348.508 73.24 345.248 73.24C341.848 73.24 340.368 70.7 340.368 67.98C340.368 64.74 342.028 62.42 345.348 62.42C348.908 62.42 350.108 64.98 350.108 67.58C350.108 67.92 350.108 68.16 350.068 68.44ZM343.308 66.68H347.248C347.228 65.48 346.748 64.46 345.348 64.46C343.968 64.46 343.428 65.42 343.308 66.68ZM352.12 73V65.46C352.12 64.44 352.12 63.52 352.1 62.66H354.9C354.94 62.88 354.98 63.92 354.98 64.48C355.44 63.3 356.54 62.42 358.3 62.42V65.16C356.22 65.1 354.98 65.66 354.98 68.5V73H352.12ZM365.955 69.66H368.775C368.415 71.38 367.215 73.24 364.115 73.24C360.895 73.24 359.235 71.02 359.235 67.9C359.235 64.86 361.115 62.42 364.255 62.42C367.755 62.42 368.715 64.92 368.775 66.1H365.975C365.795 65.26 365.315 64.66 364.195 64.66C362.895 64.66 362.155 65.8 362.155 67.82C362.155 70.02 362.935 71.02 364.195 71.02C365.175 71.02 365.695 70.44 365.955 69.66ZM373.552 73H370.472V69.5H373.552V73Z" fill="white"/>
<path d="M545.136 33V24.824H542.126V23.326H549.952V24.824H546.956V33H545.136ZM552.841 25.636C554.913 25.636 556.257 27.134 556.257 29.388C556.257 31.544 554.997 33.168 552.743 33.168C550.573 33.168 549.285 31.586 549.285 29.43C549.285 27.246 550.587 25.636 552.841 25.636ZM552.771 27.022C551.693 27.022 551.063 27.848 551.063 29.402C551.063 30.858 551.721 31.796 552.799 31.796C553.877 31.796 554.493 30.872 554.493 29.416C554.493 27.876 553.877 27.022 552.771 27.022ZM556.92 27.148V25.804H558.082V23.802H559.818V25.804H561.288V27.148H559.818V30.914C559.818 31.516 559.986 31.782 560.602 31.782C560.728 31.782 560.938 31.782 561.106 31.74V32.972C560.742 33.098 560.238 33.098 559.86 33.098C558.544 33.098 558.082 32.412 558.082 31.18V27.148H556.92ZM568.257 28.086V31.25C568.257 31.922 568.313 32.818 568.355 33H566.689C566.633 32.86 566.591 32.496 566.591 32.23C566.325 32.65 565.807 33.168 564.505 33.168C562.769 33.168 562.041 32.048 562.041 30.942C562.041 29.304 563.343 28.562 565.471 28.562C565.863 28.562 566.311 28.562 566.563 28.562V28.058C566.563 27.512 566.367 26.91 565.303 26.91C564.337 26.91 564.155 27.358 564.043 27.89H562.377C562.489 26.7 563.217 25.636 565.359 25.636C567.235 25.65 568.257 26.392 568.257 28.086ZM566.563 29.85V29.654C566.381 29.654 565.933 29.654 565.639 29.654C564.351 29.654 563.805 30.032 563.805 30.83C563.805 31.432 564.183 31.908 564.953 31.908C566.381 31.908 566.563 30.928 566.563 29.85ZM571.922 33H570.172V22.766H571.922V33ZM581.916 22.766H583.652V31.012C583.652 31.67 583.652 32.342 583.666 33H582C581.958 32.804 581.93 32.37 581.916 32.16C581.566 32.79 580.908 33.168 579.802 33.168C577.968 33.168 576.82 31.698 576.82 29.472C576.82 27.26 578.052 25.636 580.068 25.636C581.188 25.636 581.748 26.056 581.916 26.406V22.766ZM580.348 27.05C579.228 27.05 578.612 27.932 578.612 29.43C578.612 30.942 579.256 31.768 580.278 31.768C581.748 31.768 581.986 30.592 581.986 29.374C581.986 28.016 581.762 27.05 580.348 27.05ZM591.686 29.766H586.842C586.842 30.858 587.388 31.796 588.452 31.796C589.39 31.796 589.67 31.376 589.866 30.9H591.616C591.35 31.796 590.566 33.168 588.41 33.168C586.072 33.168 585.078 31.376 585.078 29.5C585.078 27.288 586.212 25.636 588.48 25.636C590.902 25.636 591.714 27.456 591.714 29.164C591.714 29.402 591.714 29.57 591.686 29.766ZM586.884 28.66H589.964C589.95 27.708 589.53 26.924 588.48 26.924C587.416 26.924 586.968 27.652 586.884 28.66ZM602.651 25.804V30.914C602.651 31.614 602.651 32.44 602.665 33H600.957C600.929 32.818 600.915 32.412 600.901 32.09C600.509 32.846 599.851 33.168 598.857 33.168C597.471 33.168 596.463 32.384 596.463 30.508V25.804H598.199V30.158C598.199 30.998 598.465 31.74 599.431 31.74C600.481 31.74 600.901 31.166 600.901 29.612V25.804H602.651ZM604.557 33V27.624C604.557 27.008 604.557 26.35 604.543 25.804H606.237C606.265 26 606.293 26.588 606.293 26.812C606.559 26.308 607.147 25.636 608.449 25.636C609.863 25.636 610.843 26.574 610.843 28.408V33H609.093V28.618C609.093 27.708 608.771 27.078 607.819 27.078C606.811 27.078 606.293 27.736 606.293 29.066V33H604.557ZM612.719 33V25.804H614.469V33H612.719ZM612.719 24.474V22.766H614.469V24.474H612.719ZM621.018 22.766H622.754V31.012C622.754 31.67 622.754 32.342 622.768 33H621.102C621.06 32.804 621.032 32.37 621.018 32.16C620.668 32.79 620.01 33.168 618.904 33.168C617.07 33.168 615.922 31.698 615.922 29.472C615.922 27.26 617.154 25.636 619.17 25.636C620.29 25.636 620.85 26.056 621.018 26.406V22.766ZM619.45 27.05C618.33 27.05 617.714 27.932 617.714 29.43C617.714 30.942 618.358 31.768 619.38 31.768C620.85 31.768 621.088 30.592 621.088 29.374C621.088 28.016 620.864 27.05 619.45 27.05ZM630.327 28.086V31.25C630.327 31.922 630.383 32.818 630.425 33H628.759C628.703 32.86 628.661 32.496 628.661 32.23C628.395 32.65 627.877 33.168 626.575 33.168C624.839 33.168 624.111 32.048 624.111 30.942C624.111 29.304 625.413 28.562 627.541 28.562C627.933 28.562 628.381 28.562 628.633 28.562V28.058C628.633 27.512 628.437 26.91 627.373 26.91C626.407 26.91 626.225 27.358 626.113 27.89H624.447C624.559 26.7 625.287 25.636 627.429 25.636C629.305 25.65 630.327 26.392 630.327 28.086ZM628.633 29.85V29.654C628.451 29.654 628.003 29.654 627.709 29.654C626.421 29.654 625.875 30.032 625.875 30.83C625.875 31.432 626.253 31.908 627.023 31.908C628.451 31.908 628.633 30.928 628.633 29.85ZM636.877 22.766H638.613V31.012C638.613 31.67 638.613 32.342 638.627 33H636.961C636.919 32.804 636.891 32.37 636.877 32.16C636.527 32.79 635.869 33.168 634.763 33.168C632.929 33.168 631.781 31.698 631.781 29.472C631.781 27.26 633.013 25.636 635.029 25.636C636.149 25.636 636.709 26.056 636.877 26.406V22.766ZM635.309 27.05C634.189 27.05 633.573 27.932 633.573 29.43C633.573 30.942 634.217 31.768 635.239 31.768C636.709 31.768 636.947 30.592 636.947 29.374C636.947 28.016 636.723 27.05 635.309 27.05ZM646.647 29.766H641.803C641.803 30.858 642.349 31.796 643.413 31.796C644.351 31.796 644.631 31.376 644.827 30.9H646.577C646.311 31.796 645.527 33.168 643.371 33.168C641.033 33.168 640.039 31.376 640.039 29.5C640.039 27.288 641.173 25.636 643.441 25.636C645.863 25.636 646.675 27.456 646.675 29.164C646.675 29.402 646.675 29.57 646.647 29.766ZM641.845 28.66H644.925C644.911 27.708 644.491 26.924 643.441 26.924C642.377 26.924 641.929 27.652 641.845 28.66ZM647.611 30.872H649.333C649.501 31.53 650.005 31.894 650.831 31.894C651.671 31.894 651.979 31.558 651.979 31.054C651.979 30.522 651.671 30.298 650.523 30.018C648.269 29.472 647.877 28.772 647.877 27.764C647.877 26.728 648.619 25.636 650.691 25.636C652.763 25.636 653.505 26.798 653.575 27.778H651.923C651.839 27.442 651.601 26.896 650.607 26.896C649.837 26.896 649.599 27.246 649.599 27.624C649.599 28.044 649.837 28.254 651.055 28.534C653.393 29.08 653.757 29.864 653.757 30.928C653.757 32.146 652.819 33.168 650.761 33.168C648.689 33.168 647.779 32.16 647.611 30.872Z" fill="#1F321D"/>
<g filter="url(#filter0_dd_1485_23432)">
<path d="M552.728 47.88C559.316 47.88 561.728 53.316 561.728 60.012C561.728 66.528 559.64 72.432 552.62 72.432C545.672 72.432 543.512 66.744 543.512 60.156C543.512 53.676 545.888 47.88 552.728 47.88ZM552.728 52.02C549.704 52.02 548.84 54.972 548.84 60.12C548.84 64.476 549.308 68.328 552.692 68.328C555.932 68.328 556.364 64.728 556.364 60.048C556.364 55.44 555.824 52.02 552.728 52.02ZM569.204 54.432H564.272C564.632 51.516 566.684 47.88 572.588 47.88C578.096 47.88 580.508 51.012 580.508 54.36C580.508 57.204 578.888 58.572 577.592 59.148V59.256C579.14 59.832 581.444 61.308 581.444 64.98C581.444 68.4 579.356 72.432 572.552 72.432C566.216 72.432 564.056 68.616 563.804 65.484H568.808C569.132 67.104 570.248 68.508 572.696 68.508C575.072 68.508 576.26 66.96 576.26 64.872C576.26 62.676 575.144 61.38 572.372 61.38H570.248V57.384H572.12C574.496 57.384 575.432 56.628 575.432 54.648C575.432 52.992 574.46 51.912 572.444 51.912C570.032 51.912 569.456 53.244 569.204 54.432Z" fill="#F3F8E7"/>
</g>
<rect x="671" y="27" width="1" height="52" fill="#004415" fill-opacity="0.4"/>
<path d="M689.19 33V23.326H693.082C695.084 23.326 696.442 24.446 696.442 26.266C696.442 28.296 694.93 29.262 693.026 29.262H691.01V33H689.19ZM691.01 24.796V27.806H692.83C693.922 27.806 694.594 27.33 694.594 26.294C694.594 25.244 693.852 24.796 692.872 24.796H691.01ZM697.729 33V27.764C697.729 26.952 697.729 26.336 697.715 25.804H699.423C699.451 25.986 699.479 26.644 699.479 27.148C699.815 26.266 700.613 25.664 701.817 25.636V27.316C700.361 27.316 699.479 27.834 699.479 29.752V33H697.729ZM709.084 29.766H704.24C704.24 30.858 704.786 31.796 705.85 31.796C706.788 31.796 707.068 31.376 707.264 30.9H709.014C708.748 31.796 707.964 33.168 705.808 33.168C703.47 33.168 702.476 31.376 702.476 29.5C702.476 27.288 703.61 25.636 705.878 25.636C708.3 25.636 709.112 27.456 709.112 29.164C709.112 29.402 709.112 29.57 709.084 29.766ZM704.282 28.66H707.362C707.348 27.708 706.928 26.924 705.878 26.924C704.814 26.924 704.366 27.652 704.282 28.66ZM709.809 25.804H711.671C712.455 28.422 713.071 30.578 713.239 31.446H713.253C713.449 30.396 714.177 28.226 714.947 25.804H716.697L714.121 33H712.273L709.809 25.804ZM717.772 33V25.804H719.522V33H717.772ZM717.772 24.474V22.766H719.522V24.474H717.772ZM720.808 30.872H722.53C722.698 31.53 723.202 31.894 724.028 31.894C724.868 31.894 725.176 31.558 725.176 31.054C725.176 30.522 724.868 30.298 723.72 30.018C721.466 29.472 721.074 28.772 721.074 27.764C721.074 26.728 721.816 25.636 723.888 25.636C725.96 25.636 726.702 26.798 726.772 27.778H725.12C725.036 27.442 724.798 26.896 723.804 26.896C723.034 26.896 722.796 27.246 722.796 27.624C722.796 28.044 723.034 28.254 724.252 28.534C726.59 29.08 726.954 29.864 726.954 30.928C726.954 32.146 726.016 33.168 723.958 33.168C721.886 33.168 720.976 32.16 720.808 30.872ZM734.177 28.086V31.25C734.177 31.922 734.233 32.818 734.275 33H732.609C732.553 32.86 732.511 32.496 732.511 32.23C732.245 32.65 731.727 33.168 730.425 33.168C728.689 33.168 727.961 32.048 727.961 30.942C727.961 29.304 729.263 28.562 731.391 28.562C731.783 28.562 732.231 28.562 732.483 28.562V28.058C732.483 27.512 732.287 26.91 731.223 26.91C730.257 26.91 730.075 27.358 729.963 27.89H728.297C728.409 26.7 729.137 25.636 731.279 25.636C733.155 25.65 734.177 26.392 734.177 28.086ZM732.483 29.85V29.654C732.301 29.654 731.853 29.654 731.559 29.654C730.271 29.654 729.725 30.032 729.725 30.83C729.725 31.432 730.103 31.908 730.873 31.908C732.301 31.908 732.483 30.928 732.483 29.85ZM730.131 24.684H728.983V24.264C728.983 23.172 729.487 22.794 730.243 22.794C731.055 22.794 731.685 23.41 732.147 23.41C732.385 23.41 732.511 23.298 732.511 22.892V22.766H733.645V23.116C733.645 24.348 733.099 24.712 732.343 24.712C731.489 24.712 730.957 24.096 730.467 24.096C730.257 24.096 730.131 24.208 730.131 24.474V24.684ZM739.173 25.636C741.245 25.636 742.589 27.134 742.589 29.388C742.589 31.544 741.329 33.168 739.075 33.168C736.905 33.168 735.617 31.586 735.617 29.43C735.617 27.246 736.919 25.636 739.173 25.636ZM739.103 27.022C738.025 27.022 737.395 27.848 737.395 29.402C737.395 30.858 738.053 31.796 739.131 31.796C740.209 31.796 740.825 30.872 740.825 29.416C740.825 27.876 740.209 27.022 739.103 27.022ZM752.157 22.766H753.893V31.012C753.893 31.67 753.893 32.342 753.907 33H752.241C752.199 32.804 752.171 32.37 752.157 32.16C751.807 32.79 751.149 33.168 750.043 33.168C748.209 33.168 747.061 31.698 747.061 29.472C747.061 27.26 748.293 25.636 750.309 25.636C751.429 25.636 751.989 26.056 752.157 26.406V22.766ZM750.589 27.05C749.469 27.05 748.853 27.932 748.853 29.43C748.853 30.942 749.497 31.768 750.519 31.768C751.989 31.768 752.227 30.592 752.227 29.374C752.227 28.016 752.003 27.05 750.589 27.05ZM761.926 29.766H757.082C757.082 30.858 757.628 31.796 758.692 31.796C759.63 31.796 759.91 31.376 760.106 30.9H761.856C761.59 31.796 760.806 33.168 758.65 33.168C756.312 33.168 755.318 31.376 755.318 29.5C755.318 27.288 756.452 25.636 758.72 25.636C761.142 25.636 761.954 27.456 761.954 29.164C761.954 29.402 761.954 29.57 761.926 29.766ZM757.124 28.66H760.204C760.19 27.708 759.77 26.924 758.72 26.924C757.656 26.924 757.208 27.652 757.124 28.66ZM772.891 29.766H768.047C768.047 30.858 768.593 31.796 769.657 31.796C770.595 31.796 770.875 31.376 771.071 30.9H772.821C772.555 31.796 771.771 33.168 769.615 33.168C767.277 33.168 766.283 31.376 766.283 29.5C766.283 27.288 767.417 25.636 769.685 25.636C772.107 25.636 772.919 27.456 772.919 29.164C772.919 29.402 772.919 29.57 772.891 29.766ZM768.089 28.66H771.169C771.155 27.708 770.735 26.924 769.685 26.924C768.621 26.924 768.173 27.652 768.089 28.66ZM778.796 30.718H780.504C780.238 31.936 779.398 33.168 777.354 33.168C775.212 33.168 774.036 31.67 774.036 29.458C774.036 27.358 775.282 25.636 777.452 25.636C779.762 25.636 780.448 27.302 780.504 28.142H778.796C778.656 27.512 778.292 27.022 777.424 27.022C776.388 27.022 775.8 27.918 775.8 29.402C775.8 30.97 776.402 31.796 777.396 31.796C778.152 31.796 778.572 31.376 778.796 30.718ZM785.015 25.636C787.087 25.636 788.431 27.134 788.431 29.388C788.431 31.544 787.171 33.168 784.917 33.168C782.747 33.168 781.459 31.586 781.459 29.43C781.459 27.246 782.761 25.636 785.015 25.636ZM784.945 27.022C783.867 27.022 783.237 27.848 783.237 29.402C783.237 30.858 783.895 31.796 784.973 31.796C786.051 31.796 786.667 30.872 786.667 29.416C786.667 27.876 786.051 27.022 784.945 27.022ZM789.905 33V27.624C789.905 27.008 789.905 26.35 789.891 25.804H791.585C791.613 26 791.641 26.588 791.641 26.812C791.907 26.308 792.495 25.636 793.797 25.636C795.211 25.636 796.191 26.574 796.191 28.408V33H794.441V28.618C794.441 27.708 794.119 27.078 793.167 27.078C792.159 27.078 791.641 27.736 791.641 29.066V33H789.905ZM801.175 25.636C803.247 25.636 804.591 27.134 804.591 29.388C804.591 31.544 803.331 33.168 801.077 33.168C798.907 33.168 797.619 31.586 797.619 29.43C797.619 27.246 798.921 25.636 801.175 25.636ZM801.105 27.022C800.027 27.022 799.397 27.848 799.397 29.402C799.397 30.858 800.055 31.796 801.133 31.796C802.211 31.796 802.827 30.872 802.827 29.416C802.827 27.876 802.211 27.022 801.105 27.022ZM806.051 33V27.666C806.051 27.05 806.051 26.42 806.037 25.804H807.717C807.731 26 807.773 26.448 807.773 26.756C808.137 26.182 808.725 25.636 809.803 25.636C810.839 25.636 811.455 26.168 811.707 26.798C812.127 26.182 812.757 25.636 813.961 25.636C815.179 25.636 816.229 26.392 816.229 28.282V33H814.535V28.492C814.535 27.778 814.269 27.064 813.359 27.064C812.393 27.064 812.001 27.722 812.001 28.884V33H810.307V28.562C810.307 27.75 810.097 27.078 809.145 27.078C808.221 27.078 807.773 27.722 807.773 28.996V33H806.051ZM818.137 33V25.804H819.887V33H818.137ZM818.137 24.474V22.766H819.887V24.474H818.137ZM827.474 28.086V31.25C827.474 31.922 827.53 32.818 827.572 33H825.906C825.85 32.86 825.808 32.496 825.808 32.23C825.542 32.65 825.024 33.168 823.722 33.168C821.986 33.168 821.258 32.048 821.258 30.942C821.258 29.304 822.56 28.562 824.688 28.562C825.08 28.562 825.528 28.562 825.78 28.562V28.058C825.78 27.512 825.584 26.91 824.52 26.91C823.554 26.91 823.372 27.358 823.26 27.89H821.594C821.706 26.7 822.434 25.636 824.576 25.636C826.452 25.65 827.474 26.392 827.474 28.086ZM825.78 29.85V29.654C825.598 29.654 825.15 29.654 824.856 29.654C823.568 29.654 823.022 30.032 823.022 30.83C823.022 31.432 823.4 31.908 824.17 31.908C825.598 31.908 825.78 30.928 825.78 29.85ZM838.602 28.086V31.25C838.602 31.922 838.658 32.818 838.7 33H837.034C836.978 32.86 836.936 32.496 836.936 32.23C836.67 32.65 836.152 33.168 834.85 33.168C833.114 33.168 832.386 32.048 832.386 30.942C832.386 29.304 833.688 28.562 835.816 28.562C836.208 28.562 836.656 28.562 836.908 28.562V28.058C836.908 27.512 836.712 26.91 835.648 26.91C834.682 26.91 834.5 27.358 834.388 27.89H832.722C832.834 26.7 833.562 25.636 835.704 25.636C837.58 25.65 838.602 26.392 838.602 28.086ZM836.908 29.85V29.654C836.726 29.654 836.278 29.654 835.984 29.654C834.696 29.654 834.15 30.032 834.15 30.83C834.15 31.432 834.528 31.908 835.298 31.908C836.726 31.908 836.908 30.928 836.908 29.85ZM840.532 33V27.624C840.532 27.008 840.532 26.35 840.518 25.804H842.212C842.24 26 842.268 26.588 842.268 26.812C842.534 26.308 843.122 25.636 844.424 25.636C845.838 25.636 846.818 26.574 846.818 28.408V33H845.068V28.618C845.068 27.708 844.746 27.078 843.794 27.078C842.786 27.078 842.268 27.736 842.268 29.066V33H840.532ZM854.827 25.804V30.914C854.827 31.614 854.827 32.44 854.841 33H853.133C853.105 32.818 853.091 32.412 853.077 32.09C852.685 32.846 852.027 33.168 851.033 33.168C849.647 33.168 848.639 32.384 848.639 30.508V25.804H850.375V30.158C850.375 30.998 850.641 31.74 851.607 31.74C852.657 31.74 853.077 31.166 853.077 29.612V25.804H854.827ZM862.487 28.086V31.25C862.487 31.922 862.543 32.818 862.585 33H860.919C860.863 32.86 860.821 32.496 860.821 32.23C860.555 32.65 860.037 33.168 858.735 33.168C856.999 33.168 856.271 32.048 856.271 30.942C856.271 29.304 857.573 28.562 859.701 28.562C860.093 28.562 860.541 28.562 860.793 28.562V28.058C860.793 27.512 860.597 26.91 859.533 26.91C858.567 26.91 858.385 27.358 858.273 27.89H856.607C856.719 26.7 857.447 25.636 859.589 25.636C861.465 25.65 862.487 26.392 862.487 28.086ZM860.793 29.85V29.654C860.611 29.654 860.163 29.654 859.869 29.654C858.581 29.654 858.035 30.032 858.035 30.83C858.035 31.432 858.413 31.908 859.183 31.908C860.611 31.908 860.793 30.928 860.793 29.85ZM866.153 33H864.403V22.766H866.153V33Z" fill="#1F321D"/>
<g filter="url(#filter1_dd_1485_23432)">
<path d="M699.7 62.1H696.172V72H690.952V47.196H701.86C707.26 47.196 710.176 50.184 710.176 54C710.176 57.348 708.34 59.148 706.576 59.868C707.8 60.336 709.636 61.632 709.636 66.06V67.284C709.636 68.94 709.672 70.848 709.996 72H704.92C704.488 70.92 704.416 69.084 704.416 66.456V66.096C704.416 63.36 703.696 62.1 699.7 62.1ZM696.172 51.48V57.816H700.672C703.624 57.816 704.74 56.7 704.74 54.612C704.74 52.596 703.444 51.48 700.816 51.48H696.172ZM711.98 65.484H717.056C717.488 67.32 718.928 68.508 721.052 68.508C723.716 68.508 724.58 67.212 724.58 65.772C724.58 64.008 723.644 63.144 720.296 62.208C714.212 60.444 712.448 58.212 712.448 54.828C712.448 50.472 716.264 48.06 720.584 48.06C726.776 48.06 728.828 51.264 729.152 54.468H724.04C723.788 53.46 723.32 51.876 720.548 51.876C718.244 51.876 717.596 53.208 717.596 54.324C717.596 55.908 718.46 56.592 722.312 57.708C727.676 59.184 729.692 61.344 729.692 65.196C729.692 69.984 726.02 72.288 720.908 72.252C715.436 72.252 712.304 69.48 711.98 65.484ZM723.104 74.988H718.784V69.804H723.104V74.988ZM722.816 49.608H718.532V45.936H722.816V49.608ZM749.31 72H744.09V54.288C742.974 54.828 740.994 55.224 739.806 55.332V51.48C742.038 51.084 744.306 49.788 745.674 48.312H749.31V72ZM758.732 72H753.188V65.7H758.732V72ZM778.665 48.312L777.945 52.524H768.441C768.297 53.784 767.865 56.088 767.721 57.06C768.621 56.304 769.953 55.764 771.969 55.764C776.649 55.764 779.277 59.148 779.277 63.648C779.277 68.256 776.793 72.432 770.385 72.432C765.705 72.432 762.249 70.056 761.745 65.808H766.857C767.325 67.464 768.477 68.508 770.493 68.508C772.941 68.508 774.129 66.708 774.129 64.08C774.129 61.596 773.193 59.868 770.493 59.868C768.261 59.868 767.397 60.804 766.857 62.208L762.213 61.632C762.825 58.608 763.833 51.588 764.229 48.312H778.665ZM790.638 72H785.418V54.288C784.302 54.828 782.322 55.224 781.134 55.332V51.48C783.366 51.084 785.634 49.788 787.002 48.312H790.638V72ZM811.532 72H794.756V71.676C794.756 67.572 796.628 64.224 801.74 60.48C805.088 58.032 806.096 57.168 806.096 55.116C806.096 53.064 805.088 51.912 803.108 51.912C800.804 51.912 799.94 53.316 799.616 55.404H794.648C795.008 51.3 797.672 47.88 803.108 47.88C809.192 47.88 811.28 51.516 811.28 55.08C811.28 58.536 809.804 60.192 805.448 63.252C802.532 65.304 801.344 66.636 800.948 67.716H812.144L811.532 72ZM817.479 76.176H813.483C815.571 71.388 815.895 68.328 816.111 65.7H821.403C821.043 69.264 819.855 73.224 817.479 76.176ZM832.135 47.88C838.723 47.88 841.135 53.316 841.135 60.012C841.135 66.528 839.047 72.432 832.027 72.432C825.079 72.432 822.919 66.744 822.919 60.156C822.919 53.676 825.295 47.88 832.135 47.88ZM832.135 52.02C829.111 52.02 828.247 54.972 828.247 60.12C828.247 64.476 828.715 68.328 832.099 68.328C835.339 68.328 835.771 64.728 835.771 60.048C835.771 55.44 835.231 52.02 832.135 52.02ZM853.001 47.88C859.589 47.88 862.001 53.316 862.001 60.012C862.001 66.528 859.913 72.432 852.893 72.432C845.945 72.432 843.785 66.744 843.785 60.156C843.785 53.676 846.161 47.88 853.001 47.88ZM853.001 52.02C849.977 52.02 849.113 54.972 849.113 60.12C849.113 64.476 849.581 68.328 852.965 68.328C856.205 68.328 856.637 64.728 856.637 60.048C856.637 55.44 856.097 52.02 853.001 52.02Z" fill="#F3F8E7"/>
</g>
<defs>
<filter id="filter0_dd_1485_23432" x="540.512" y="45.88" width="43.9316" height="30.552" filterUnits="userSpaceOnUse" color-interpolation-filters="sRGB">
<feFlood flood-opacity="0" result="BackgroundImageFix"/>
<feColorMatrix in="SourceAlpha" type="matrix" values="0 0 0 0 0 0 0 0 0 0 0 0 0 0 0 0 0 0 127 0" result="hardAlpha"/>
<feOffset dy="1"/>
<feGaussianBlur stdDeviation="1"/>
<feComposite in2="hardAlpha" operator="out"/>
<feColorMatrix type="matrix" values="0 0 0 0 0.0627451 0 0 0 0 0.0941176 0 0 0 0 0.156863 0 0 0 0.06 0"/>
<feBlend mode="normal" in2="BackgroundImageFix" result="effect1_dropShadow_1485_23432"/>
<feColorMatrix in="SourceAlpha" type="matrix" values="0 0 0 0 0 0 0 0 0 0 0 0 0 0 0 0 0 0 127 0" result="hardAlpha"/>
<feOffset dy="1"/>
<feGaussianBlur stdDeviation="1.5"/>
<feComposite in2="hardAlpha" operator="out"/>
<feColorMatrix type="matrix" values="0 0 0 0 0.0627451 0 0 0 0 0.0941176 0 0 0 0 0.156863 0 0 0 0.1 0"/>
<feBlend mode="normal" in2="effect1_dropShadow_1485_23432" result="effect2_dropShadow_1485_23432"/>
<feBlend mode="normal" in="SourceGraphic" in2="effect2_dropShadow_1485_23432" result="shape"/>
</filter>
<filter id="filter1_dd_1485_23432" x="687.952" y="43.936" width="177.048" height="36.24" filterUnits="userSpaceOnUse" color-interpolation-filters="sRGB">
<feFlood flood-opacity="0" result="BackgroundImageFix"/>
<feColorMatrix in="SourceAlpha" type="matrix" values="0 0 0 0 0 0 0 0 0 0 0 0 0 0 0 0 0 0 127 0" result="hardAlpha"/>
<feOffset dy="1"/>
<feGaussianBlur stdDeviation="1"/>
<feComposite in2="hardAlpha" operator="out"/>
<feColorMatrix type="matrix" values="0 0 0 0 0.0627451 0 0 0 0 0.0941176 0 0 0 0 0.156863 0 0 0 0.06 0"/>
<feBlend mode="normal" in2="BackgroundImageFix" result="effect1_dropShadow_1485_23432"/>
<feColorMatrix in="SourceAlpha" type="matrix" values="0 0 0 0 0 0 0 0 0 0 0 0 0 0 0 0 0 0 127 0" result="hardAlpha"/>
<feOffset dy="1"/>
<feGaussianBlur stdDeviation="1.5"/>
<feComposite in2="hardAlpha" operator="out"/>
<feColorMatrix type="matrix" values="0 0 0 0 0.0627451 0 0 0 0 0.0941176 0 0 0 0 0.156863 0 0 0 0.1 0"/>
<feBlend mode="normal" in2="effect1_dropShadow_1485_23432" result="effect2_dropShadow_1485_23432"/>
<feBlend mode="normal" in="SourceGraphic" in2="effect2_dropShadow_1485_23432" result="shape"/>
</filter>
</defs>
</svg>
