<svg width="328" height="72" viewBox="0 0 328 72" fill="none" xmlns="http://www.w3.org/2000/svg">
<mask id="path-1-inside-1_1150_2383" fill="white">
<path d="M0 0H328V72H0V0Z"/>
</mask>
<path d="M0 1H328V-1H0V1Z" fill="#E5E5E5" mask="url(#path-1-inside-1_1150_2383)"/>
<g filter="url(#filter0_d_1150_2383)">
<path d="M16 24C16 19.5817 19.5817 16 24 16H150C154.418 16 158 19.5817 158 24V48C158 52.4183 154.418 56 150 56H24C19.5817 56 16 52.4183 16 48V24Z" fill="white"/>
<path d="M24 16.5H150C154.142 16.5 157.5 19.8579 157.5 24V48C157.5 52.1421 154.142 55.5 150 55.5H24C19.8579 55.5 16.5 52.1421 16.5 48V24C16.5 19.8579 19.8579 16.5 24 16.5Z" stroke="#D6D6D6"/>
<path d="M65.392 36.102H67.212C66.82 37.852 65.504 39.14 63.152 39.14C60.142 39.14 58.686 36.956 58.686 34.212C58.686 31.566 60.17 29.186 63.236 29.186C65.714 29.186 66.96 30.628 67.212 32.238H65.392C65.14 31.398 64.566 30.628 63.18 30.628C61.304 30.628 60.576 32.322 60.576 34.142C60.576 35.878 61.234 37.698 63.236 37.698C64.636 37.698 65.154 36.802 65.392 36.102ZM74.4267 34.086V37.25C74.4267 37.922 74.4827 38.818 74.5247 39H72.8587C72.8027 38.86 72.7607 38.496 72.7607 38.23C72.4947 38.65 71.9767 39.168 70.6747 39.168C68.9387 39.168 68.2107 38.048 68.2107 36.942C68.2107 35.304 69.5127 34.562 71.6407 34.562C72.0327 34.562 72.4807 34.562 72.7327 34.562V34.058C72.7327 33.512 72.5367 32.91 71.4727 32.91C70.5067 32.91 70.3247 33.358 70.2127 33.89H68.5467C68.6587 32.7 69.3867 31.636 71.5287 31.636C73.4047 31.65 74.4267 32.392 74.4267 34.086ZM72.7327 35.85V35.654C72.5507 35.654 72.1027 35.654 71.8087 35.654C70.5207 35.654 69.9747 36.032 69.9747 36.83C69.9747 37.432 70.3527 37.908 71.1227 37.908C72.5507 37.908 72.7327 36.928 72.7327 35.85ZM76.3563 39V33.624C76.3563 33.008 76.3563 32.35 76.3423 31.804H78.0363C78.0643 32 78.0923 32.588 78.0923 32.812C78.3583 32.308 78.9463 31.636 80.2483 31.636C81.6623 31.636 82.6423 32.574 82.6423 34.408V39H80.8923V34.618C80.8923 33.708 80.5703 33.078 79.6183 33.078C78.6103 33.078 78.0923 33.736 78.0923 35.066V39H76.3563ZM88.8581 36.718H90.5661C90.3001 37.936 89.4601 39.168 87.4161 39.168C85.2741 39.168 84.0981 37.67 84.0981 35.458C84.0981 33.358 85.3441 31.636 87.5141 31.636C89.8241 31.636 90.5101 33.302 90.5661 34.142H88.8581C88.7181 33.512 88.3541 33.022 87.4861 33.022C86.4501 33.022 85.8621 33.918 85.8621 35.402C85.8621 36.97 86.4641 37.796 87.4581 37.796C88.2141 37.796 88.6341 37.376 88.8581 36.718ZM98.1293 35.766H93.2853C93.2853 36.858 93.8313 37.796 94.8953 37.796C95.8333 37.796 96.1133 37.376 96.3093 36.9H98.0593C97.7933 37.796 97.0093 39.168 94.8533 39.168C92.5153 39.168 91.5213 37.376 91.5213 35.5C91.5213 33.288 92.6553 31.636 94.9233 31.636C97.3453 31.636 98.1573 33.456 98.1573 35.164C98.1573 35.402 98.1573 35.57 98.1293 35.766ZM93.3273 34.66H96.4073C96.3933 33.708 95.9733 32.924 94.9233 32.924C93.8593 32.924 93.4113 33.652 93.3273 34.66ZM101.348 39H99.5982V28.766H101.348V39ZM108.935 34.086V37.25C108.935 37.922 108.991 38.818 109.033 39H107.367C107.311 38.86 107.269 38.496 107.269 38.23C107.003 38.65 106.485 39.168 105.183 39.168C103.447 39.168 102.719 38.048 102.719 36.942C102.719 35.304 104.021 34.562 106.149 34.562C106.541 34.562 106.989 34.562 107.241 34.562V34.058C107.241 33.512 107.045 32.91 105.981 32.91C105.015 32.91 104.833 33.358 104.721 33.89H103.055C103.167 32.7 103.895 31.636 106.037 31.636C107.913 31.65 108.935 32.392 108.935 34.086ZM107.241 35.85V35.654C107.059 35.654 106.611 35.654 106.317 35.654C105.029 35.654 104.483 36.032 104.483 36.83C104.483 37.432 104.861 37.908 105.631 37.908C107.059 37.908 107.241 36.928 107.241 35.85ZM110.85 39V33.764C110.85 32.952 110.85 32.336 110.836 31.804H112.544C112.572 31.986 112.6 32.644 112.6 33.148C112.936 32.266 113.734 31.664 114.938 31.636V33.316C113.482 33.316 112.6 33.834 112.6 35.752V39H110.85Z" fill="#424242"/>
</g>
<g filter="url(#filter1_d_1150_2383)">
<path d="M170 24C170 19.5817 173.582 16 178 16H304C308.418 16 312 19.5817 312 24V48C312 52.4183 308.418 56 304 56H178C173.582 56 170 52.4183 170 48V24Z" fill="#467541"/>
<path d="M178 16.5H304C308.142 16.5 311.5 19.8579 311.5 24V48C311.5 52.1421 308.142 55.5 304 55.5H178C173.858 55.5 170.5 52.1421 170.5 48V24C170.5 19.8579 173.858 16.5 178 16.5Z" stroke="#467541"/>
<path d="M224.482 36.536H220.828L219.974 39H218.196L221.528 29.326H223.81L227.296 39H225.378L224.482 36.536ZM221.234 35.038H224.076C223.306 32.826 222.844 31.496 222.62 30.67H222.606C222.368 31.58 221.85 33.148 221.234 35.038ZM232.121 39.168C231.057 39.168 230.497 38.762 230.203 38.286V41.786H228.467V33.554C228.467 32.966 228.467 32.378 228.453 31.804H230.147C230.175 32.014 230.203 32.462 230.203 32.784C230.539 32.196 231.211 31.636 232.387 31.636C234.011 31.636 235.257 33.008 235.257 35.22C235.257 37.782 233.857 39.168 232.121 39.168ZM231.757 37.768C232.905 37.768 233.479 36.858 233.479 35.29C233.479 33.904 232.891 33.064 231.855 33.064C230.595 33.064 230.133 33.862 230.133 35.416C230.133 36.9 230.539 37.768 231.757 37.768ZM238.448 39H236.698V28.766H238.448V39ZM240.334 39V31.804H242.084V39H240.334ZM240.334 30.474V28.766H242.084V30.474H240.334ZM248.311 36.718H250.019C249.753 37.936 248.913 39.168 246.869 39.168C244.727 39.168 243.551 37.67 243.551 35.458C243.551 33.358 244.797 31.636 246.967 31.636C249.277 31.636 249.963 33.302 250.019 34.142H248.311C248.171 33.512 247.807 33.022 246.939 33.022C245.903 33.022 245.315 33.918 245.315 35.402C245.315 36.97 245.917 37.796 246.911 37.796C247.667 37.796 248.087 37.376 248.311 36.718ZM257.136 34.086V37.25C257.136 37.922 257.192 38.818 257.234 39H255.568C255.512 38.86 255.47 38.496 255.47 38.23C255.204 38.65 254.686 39.168 253.384 39.168C251.648 39.168 250.92 38.048 250.92 36.942C250.92 35.304 252.222 34.562 254.35 34.562C254.742 34.562 255.19 34.562 255.442 34.562V34.058C255.442 33.512 255.246 32.91 254.182 32.91C253.216 32.91 253.034 33.358 252.922 33.89H251.256C251.368 32.7 252.096 31.636 254.238 31.636C256.114 31.65 257.136 32.392 257.136 34.086ZM255.442 35.85V35.654C255.26 35.654 254.812 35.654 254.518 35.654C253.23 35.654 252.684 36.032 252.684 36.83C252.684 37.432 253.062 37.908 253.832 37.908C255.26 37.908 255.442 36.928 255.442 35.85ZM259.051 39V33.764C259.051 32.952 259.051 32.336 259.037 31.804H260.745C260.773 31.986 260.801 32.644 260.801 33.148C261.137 32.266 261.935 31.664 263.139 31.636V33.316C261.683 33.316 260.801 33.834 260.801 35.752V39H259.051Z" fill="white"/>
</g>
<defs>
<filter id="filter0_d_1150_2383" x="14" y="15" width="146" height="44" filterUnits="userSpaceOnUse" color-interpolation-filters="sRGB">
<feFlood flood-opacity="0" result="BackgroundImageFix"/>
<feColorMatrix in="SourceAlpha" type="matrix" values="0 0 0 0 0 0 0 0 0 0 0 0 0 0 0 0 0 0 127 0" result="hardAlpha"/>
<feOffset dy="1"/>
<feGaussianBlur stdDeviation="1"/>
<feComposite in2="hardAlpha" operator="out"/>
<feColorMatrix type="matrix" values="0 0 0 0 0.0627451 0 0 0 0 0.0941176 0 0 0 0 0.156863 0 0 0 0.05 0"/>
<feBlend mode="normal" in2="BackgroundImageFix" result="effect1_dropShadow_1150_2383"/>
<feBlend mode="normal" in="SourceGraphic" in2="effect1_dropShadow_1150_2383" result="shape"/>
</filter>
<filter id="filter1_d_1150_2383" x="168" y="15" width="146" height="44" filterUnits="userSpaceOnUse" color-interpolation-filters="sRGB">
<feFlood flood-opacity="0" result="BackgroundImageFix"/>
<feColorMatrix in="SourceAlpha" type="matrix" values="0 0 0 0 0 0 0 0 0 0 0 0 0 0 0 0 0 0 127 0" result="hardAlpha"/>
<feOffset dy="1"/>
<feGaussianBlur stdDeviation="1"/>
<feComposite in2="hardAlpha" operator="out"/>
<feColorMatrix type="matrix" values="0 0 0 0 0.0627451 0 0 0 0 0.0941176 0 0 0 0 0.156863 0 0 0 0.05 0"/>
<feBlend mode="normal" in2="BackgroundImageFix" result="effect1_dropShadow_1150_2383"/>
<feBlend mode="normal" in="SourceGraphic" in2="effect1_dropShadow_1150_2383" result="shape"/>
</filter>
</defs>
</svg>
