<svg width="336" height="352" viewBox="0 0 336 352" fill="none" xmlns="http://www.w3.org/2000/svg">
<path d="M0 7.99999C0 3.58171 3.58172 0 8 0H328C332.418 0 336 3.58172 336 8V344C336 348.418 332.418 352 328 352H8.00001C3.58173 352 0 348.418 0 344V7.99999Z" fill="url(#paint0_linear_1485_22937)"/>
<path d="M8 0.5H328C332.142 0.5 335.5 3.85786 335.5 8V344C335.5 348.142 332.142 351.5 328 351.5H8C3.85787 351.5 0.5 348.142 0.5 344V8C0.5 3.85787 3.85786 0.5 8 0.5Z" stroke="url(#paint1_radial_1485_22937)" stroke-opacity="0.27"/>
<mask id="path-3-inside-1_1485_22937" fill="white">
<path d="M12 12H324V148H12V12Z"/>
</mask>
<path d="M324 148V147H12V148V149H324V148Z" fill="white" fill-opacity="0.2" mask="url(#path-3-inside-1_1485_22937)"/>
<path fill-rule="evenodd" clip-rule="evenodd" d="M138 31.4973C138 30.6689 138.672 29.9973 139.5 29.9973H196.5C197.328 29.9973 198 30.6689 198 31.4973V88.4973C198 89.3257 197.328 89.9973 196.5 89.9973H139.5C138.672 89.9973 138 89.3257 138 88.4973V31.4973Z" stroke="white" stroke-width="1.5" stroke-linecap="round" stroke-linejoin="round"/>
<path d="M168 39.9973L156 55.9973L148 47.9973" stroke="white" stroke-width="2" stroke-linecap="round" stroke-linejoin="round"/>
<path d="M174 49.9973H186" stroke="white" stroke-width="2" stroke-linecap="round" stroke-linejoin="round"/>
<path d="M168 63.9973L156 79.9973L148 71.9973" stroke="white" stroke-width="2" stroke-linecap="round" stroke-linejoin="round"/>
<path d="M174 73.9973H186" stroke="white" stroke-width="2" stroke-linecap="round" stroke-linejoin="round"/>
<path d="M16.644 125.196C17.7 125.196 18.444 125.082 18.876 124.854C19.404 124.578 19.668 124.098 19.668 123.414C19.668 122.25 18.744 121.668 16.896 121.668H13.98V125.196H16.644ZM12 120.012H17.22C18.648 120.012 19.644 120.18 20.208 120.516C21.204 121.092 21.702 122.028 21.702 123.324C21.702 125.208 20.61 126.306 18.426 126.618C19.278 127.074 20.1 127.926 20.892 129.174L22.692 132H20.28L18.606 129.462C18.078 128.646 17.676 128.076 17.4 127.752C17.148 127.452 16.884 127.23 16.608 127.086C16.308 126.918 15.834 126.834 15.186 126.834H13.998V132H12V120.012ZM30.215 126.87C30.119 125.346 29.423 124.584 28.127 124.584C26.891 124.584 26.183 125.346 26.003 126.87H30.215ZM25.967 128.166C26.027 129.894 26.783 130.758 28.235 130.758C29.159 130.758 29.795 130.248 30.143 129.228L32.033 129.498C31.505 131.286 30.227 132.18 28.199 132.18C26.903 132.18 25.889 131.784 25.157 130.992C24.413 130.212 24.041 129.12 24.041 127.716C24.041 126.324 24.407 125.208 25.139 124.368C25.871 123.54 26.843 123.126 28.055 123.126C29.327 123.126 30.323 123.54 31.043 124.368C31.763 125.208 32.123 126.36 32.123 127.824C32.111 127.86 32.105 127.908 32.105 127.968V128.166H25.967ZM38.8311 125.79C38.6871 124.962 38.0811 124.548 37.0131 124.548C35.8971 124.548 35.3391 124.854 35.3391 125.466C35.3391 125.73 35.4771 125.94 35.7531 126.096C36.0171 126.252 36.5571 126.426 37.3731 126.618C38.7771 126.93 39.7071 127.272 40.1631 127.644C40.6791 128.064 40.9371 128.628 40.9371 129.336C40.9371 130.2 40.5951 130.89 39.9111 131.406C39.2271 131.922 38.3271 132.18 37.2111 132.18C34.9551 132.18 33.6471 131.274 33.2871 129.462L35.1411 129.174C35.3211 130.242 35.9991 130.776 37.1751 130.776C38.4231 130.776 39.0471 130.38 39.0471 129.588C39.0471 129.132 38.6451 128.82 37.8411 128.652C36.0531 128.244 34.8951 127.836 34.3671 127.428C33.8391 127.008 33.5751 126.432 33.5751 125.7C33.5751 124.932 33.8751 124.314 34.4751 123.846C35.0751 123.366 35.8611 123.126 36.8331 123.126C39.0531 123.126 40.3131 123.918 40.6131 125.502L38.8311 125.79ZM47.9416 132L47.9236 130.722C47.2636 131.694 46.3216 132.18 45.0976 132.18C43.8976 132.18 43.0636 131.778 42.5956 130.974C42.3196 130.47 42.1816 129.732 42.1816 128.76V123.324H44.0536V128.238C44.0536 129.882 44.5996 130.704 45.6916 130.704C46.5076 130.704 47.0896 130.386 47.4376 129.75C47.6656 129.33 47.7796 128.586 47.7796 127.518V123.324H49.6336V132H47.9416ZM51.9551 123.324H53.6471V124.512C54.3071 123.588 55.2071 123.126 56.3471 123.126C57.5591 123.126 58.3691 123.606 58.7771 124.566C59.4851 123.606 60.3971 123.126 61.5131 123.126C62.6171 123.126 63.3851 123.522 63.8171 124.314C64.0811 124.794 64.2131 125.436 64.2131 126.24V132H62.3591V126.762C62.3471 125.334 61.8791 124.62 60.9551 124.62C59.6711 124.62 59.0291 125.538 59.0291 127.374V132H57.1751V126.78C57.1631 125.34 56.7011 124.62 55.7891 124.62C55.0331 124.62 54.4991 124.908 54.1871 125.484C53.9471 125.916 53.8271 126.63 53.8271 127.626V132H51.9551V123.324ZM68.1717 127.662C68.1717 129.678 68.9577 130.686 70.5297 130.686C71.2377 130.686 71.8077 130.41 72.2397 129.858C72.6717 129.318 72.8877 128.598 72.8877 127.698C72.8877 125.658 72.1017 124.638 70.5297 124.638C68.9577 124.638 68.1717 125.646 68.1717 127.662ZM66.2637 127.77C66.2637 126.354 66.6537 125.226 67.4337 124.386C68.2017 123.546 69.2337 123.126 70.5297 123.126C71.8017 123.126 72.8337 123.54 73.6257 124.368C74.4057 125.196 74.7957 126.288 74.7957 127.644C74.7957 129 74.3997 130.098 73.6077 130.938C72.8277 131.766 71.8017 132.18 70.5297 132.18C69.2457 132.18 68.2137 131.778 67.4337 130.974C66.6537 130.17 66.2637 129.102 66.2637 127.77ZM84.3243 124.584C82.8723 124.584 82.1463 125.58 82.1463 127.572C82.1463 129.66 82.8663 130.704 84.3063 130.704C85.7343 130.704 86.4483 129.732 86.4483 127.788C86.4483 125.652 85.7403 124.584 84.3243 124.584ZM88.2303 132H86.5023V130.83C85.8903 131.73 85.0263 132.18 83.9103 132.18C82.8423 132.18 81.9603 131.76 81.2643 130.92C80.5803 130.08 80.2383 129 80.2383 127.68C80.2383 126.288 80.5683 125.178 81.2283 124.35C81.8883 123.534 82.7703 123.126 83.8743 123.126C84.9183 123.126 85.7523 123.522 86.3763 124.314V120.012H88.2303V132ZM95.7537 127.734C95.4297 127.854 95.1657 127.938 94.9617 127.986C94.7217 128.046 94.2957 128.124 93.6837 128.22C92.5077 128.424 91.9197 128.868 91.9197 129.552C91.9197 130.404 92.4357 130.83 93.4677 130.83C94.3917 130.83 95.0577 130.482 95.4657 129.786C95.6577 129.462 95.7537 128.97 95.7537 128.31V127.734ZM90.2637 125.664C90.8277 123.972 92.1177 123.126 94.1337 123.126C95.7417 123.126 96.7917 123.552 97.2837 124.404C97.4997 124.776 97.6077 125.448 97.6077 126.42L97.5897 129.534C97.5897 130.578 97.7577 131.4 98.0937 132H96.2217C96.0657 131.664 95.9577 131.328 95.8977 130.992C95.0337 131.784 94.0617 132.18 92.9817 132.18C91.0017 132.18 90.0117 131.346 90.0117 129.678C90.0117 128.574 90.5817 127.794 91.7217 127.338C92.1177 127.194 92.6517 127.062 93.3237 126.942C94.4997 126.762 95.3097 126.588 95.7537 126.42V126.222C95.7537 125.13 95.1897 124.584 94.0617 124.584C92.9457 124.584 92.2617 125.052 92.0097 125.988L90.2637 125.664ZM111.019 127.158L109.903 124.206C109.519 123.138 109.261 122.4 109.129 121.992C108.925 122.736 108.709 123.408 108.481 124.008L107.329 127.158H111.019ZM103.459 132L108.103 120.012H110.209L115.069 132H112.873L111.649 128.796H106.753L105.565 132H103.459ZM115.166 123.324H116.876V124.566C117.548 123.606 118.496 123.126 119.72 123.126C120.92 123.126 121.754 123.54 122.222 124.368C122.414 124.728 122.534 125.028 122.582 125.268C122.618 125.52 122.636 126.078 122.636 126.942V132H120.782V127.122C120.782 125.454 120.23 124.62 119.126 124.62C118.31 124.62 117.728 124.944 117.38 125.592C117.14 126.036 117.02 126.72 117.02 127.644V132H115.166V123.324ZM130.681 127.734C130.357 127.854 130.093 127.938 129.889 127.986C129.649 128.046 129.223 128.124 128.611 128.22C127.435 128.424 126.847 128.868 126.847 129.552C126.847 130.404 127.363 130.83 128.395 130.83C129.319 130.83 129.985 130.482 130.393 129.786C130.585 129.462 130.681 128.97 130.681 128.31V127.734ZM125.191 125.664C125.755 123.972 127.045 123.126 129.061 123.126C130.669 123.126 131.719 123.552 132.211 124.404C132.427 124.776 132.535 125.448 132.535 126.42L132.517 129.534C132.517 130.578 132.685 131.4 133.021 132H131.149C130.993 131.664 130.885 131.328 130.825 130.992C129.961 131.784 128.989 132.18 127.909 132.18C125.929 132.18 124.939 131.346 124.939 129.678C124.939 128.574 125.509 127.794 126.649 127.338C127.045 127.194 127.579 127.062 128.251 126.942C129.427 126.762 130.237 126.588 130.681 126.42V126.222C130.681 125.13 130.117 124.584 128.989 124.584C127.873 124.584 127.189 125.052 126.937 125.988L125.191 125.664ZM127.315 121.92L128.413 119.544H130.645L128.629 121.92H127.315ZM134.186 120.012H136.058V132H134.186V120.012ZM138.369 120.012H140.223V121.902H138.369V120.012ZM138.369 123.324H140.223V132H138.369V123.324ZM148.097 125.79C147.953 124.962 147.347 124.548 146.279 124.548C145.163 124.548 144.605 124.854 144.605 125.466C144.605 125.73 144.743 125.94 145.019 126.096C145.283 126.252 145.823 126.426 146.639 126.618C148.043 126.93 148.973 127.272 149.429 127.644C149.945 128.064 150.203 128.628 150.203 129.336C150.203 130.2 149.861 130.89 149.177 131.406C148.493 131.922 147.593 132.18 146.477 132.18C144.221 132.18 142.913 131.274 142.553 129.462L144.407 129.174C144.587 130.242 145.265 130.776 146.441 130.776C147.689 130.776 148.313 130.38 148.313 129.588C148.313 129.132 147.911 128.82 147.107 128.652C145.319 128.244 144.161 127.836 143.633 127.428C143.105 127.008 142.841 126.432 142.841 125.7C142.841 124.932 143.141 124.314 143.741 123.846C144.341 123.366 145.127 123.126 146.099 123.126C148.319 123.126 149.579 123.918 149.879 125.502L148.097 125.79ZM157.621 126.87C157.525 125.346 156.829 124.584 155.533 124.584C154.297 124.584 153.589 125.346 153.409 126.87H157.621ZM153.373 128.166C153.433 129.894 154.189 130.758 155.641 130.758C156.565 130.758 157.201 130.248 157.549 129.228L159.439 129.498C158.911 131.286 157.633 132.18 155.605 132.18C154.309 132.18 153.295 131.784 152.563 130.992C151.819 130.212 151.447 129.12 151.447 127.716C151.447 126.324 151.813 125.208 152.545 124.368C153.277 123.54 154.249 123.126 155.461 123.126C156.733 123.126 157.729 123.54 158.449 124.368C159.169 125.208 159.529 126.36 159.529 127.824C159.517 127.86 159.511 127.908 159.511 127.968V128.166H153.373Z" fill="white"/>
<path d="M20.001 176.998V182.998" stroke="white" stroke-width="2" stroke-linecap="round" stroke-linejoin="round"/>
<path d="M17.501 179.498L20.001 176.998L22.501 179.498" stroke="white" stroke-width="1.5" stroke-linecap="round" stroke-linejoin="round"/>
<path fill-rule="evenodd" clip-rule="evenodd" d="M20.001 186.998C23.867 186.998 27.001 183.864 27.001 179.998C27.001 176.132 23.867 172.998 20.001 172.998C16.135 172.998 13.001 176.132 13.001 179.998C13.001 183.864 16.135 186.998 20.001 186.998Z" stroke="white" stroke-width="1.5" stroke-linecap="round" stroke-linejoin="round"/>
<path d="M32 176.676H38.356V177.992H33.554V180.568H37.698V181.884H33.554V186H32V176.676ZM44.1496 182.682C43.8976 182.775 43.6923 182.841 43.5336 182.878C43.3469 182.925 43.0156 182.985 42.5396 183.06C41.6249 183.219 41.1676 183.564 41.1676 184.096C41.1676 184.759 41.5689 185.09 42.3716 185.09C43.0903 185.09 43.6083 184.819 43.9256 184.278C44.0749 184.026 44.1496 183.643 44.1496 183.13V182.682ZM39.8796 181.072C40.3183 179.756 41.3216 179.098 42.8896 179.098C44.1403 179.098 44.9569 179.429 45.3396 180.092C45.5076 180.381 45.5916 180.904 45.5916 181.66L45.5776 184.082C45.5776 184.894 45.7083 185.533 45.9696 186H44.5136C44.3923 185.739 44.3083 185.477 44.2616 185.216C43.5896 185.832 42.8336 186.14 41.9936 186.14C40.4536 186.14 39.6836 185.491 39.6836 184.194C39.6836 183.335 40.1269 182.729 41.0136 182.374C41.3216 182.262 41.7369 182.159 42.2596 182.066C43.1743 181.926 43.8043 181.791 44.1496 181.66V181.506C44.1496 180.657 43.7109 180.232 42.8336 180.232C41.9656 180.232 41.4336 180.596 41.2376 181.324L39.8796 181.072ZM49.143 179.238H50.333V180.372H49.157V183.732C49.1477 184.217 49.1757 184.53 49.241 184.67C49.3063 184.81 49.451 184.88 49.675 184.88C49.8617 184.88 50.0763 184.838 50.319 184.754L50.487 185.944C50.1417 186.056 49.787 186.112 49.423 186.112C48.6297 186.112 48.1303 185.907 47.925 185.496C47.7757 185.197 47.701 184.642 47.701 183.83V180.386H46.875V179.252H47.701V177.726L49.143 176.872V179.238ZM55.2925 186L55.2785 185.006C54.7652 185.762 54.0325 186.14 53.0805 186.14C52.1472 186.14 51.4985 185.827 51.1345 185.202C50.9198 184.81 50.8125 184.236 50.8125 183.48V179.252H52.2685V183.074C52.2685 184.353 52.6932 184.992 53.5425 184.992C54.1772 184.992 54.6298 184.745 54.9005 184.25C55.0778 183.923 55.1665 183.345 55.1665 182.514V179.252H56.6085V186H55.2925ZM61.9421 180.736C61.6434 180.559 61.3541 180.47 61.0741 180.47C60.2621 180.47 59.8561 181.361 59.8561 183.144V186H58.4141V179.252H59.7441V180.246C60.1547 179.481 60.6447 179.098 61.2141 179.098C61.5967 179.098 61.9981 179.215 62.4181 179.448L61.9421 180.736ZM67.4875 182.682C67.2355 182.775 67.0302 182.841 66.8715 182.878C66.6848 182.925 66.3535 182.985 65.8775 183.06C64.9628 183.219 64.5055 183.564 64.5055 184.096C64.5055 184.759 64.9068 185.09 65.7095 185.09C66.4282 185.09 66.9462 184.819 67.2635 184.278C67.4128 184.026 67.4875 183.643 67.4875 183.13V182.682ZM63.2175 181.072C63.6562 179.756 64.6595 179.098 66.2275 179.098C67.4782 179.098 68.2948 179.429 68.6775 180.092C68.8455 180.381 68.9295 180.904 68.9295 181.66L68.9155 184.082C68.9155 184.894 69.0462 185.533 69.3075 186H67.8515C67.7302 185.739 67.6462 185.477 67.5995 185.216C66.9275 185.832 66.1715 186.14 65.3315 186.14C63.7915 186.14 63.0215 185.491 63.0215 184.194C63.0215 183.335 63.4648 182.729 64.3515 182.374C64.6595 182.262 65.0748 182.159 65.5975 182.066C66.5122 181.926 67.1422 181.791 67.4875 181.66V181.506C67.4875 180.657 67.0488 180.232 66.1715 180.232C65.3035 180.232 64.7715 180.596 64.5755 181.324L63.2175 181.072ZM74.5249 181.17C74.4129 180.526 73.9416 180.204 73.1109 180.204C72.2429 180.204 71.8089 180.442 71.8089 180.918C71.8089 181.123 71.9162 181.287 72.1309 181.408C72.3362 181.529 72.7562 181.665 73.3909 181.814C74.4829 182.057 75.2062 182.323 75.5609 182.612C75.9622 182.939 76.1629 183.377 76.1629 183.928C76.1629 184.6 75.8969 185.137 75.3649 185.538C74.8329 185.939 74.1329 186.14 73.2649 186.14C71.5102 186.14 70.4929 185.435 70.2129 184.026L71.6549 183.802C71.7949 184.633 72.3222 185.048 73.2369 185.048C74.2076 185.048 74.6929 184.74 74.6929 184.124C74.6929 183.769 74.3802 183.527 73.7549 183.396C72.3642 183.079 71.4636 182.761 71.0529 182.444C70.6422 182.117 70.4369 181.669 70.4369 181.1C70.4369 180.503 70.6702 180.022 71.1369 179.658C71.6036 179.285 72.2149 179.098 72.9709 179.098C74.6976 179.098 75.6776 179.714 75.9109 180.946L74.5249 181.17ZM85.2004 182.01C85.1258 180.825 84.5844 180.232 83.5764 180.232C82.6151 180.232 82.0644 180.825 81.9244 182.01H85.2004ZM81.8964 183.018C81.9431 184.362 82.5311 185.034 83.6604 185.034C84.3791 185.034 84.8738 184.637 85.1444 183.844L86.6144 184.054C86.2038 185.445 85.2098 186.14 83.6324 186.14C82.6244 186.14 81.8358 185.832 81.2664 185.216C80.6878 184.609 80.3984 183.76 80.3984 182.668C80.3984 181.585 80.6831 180.717 81.2524 180.064C81.8218 179.42 82.5778 179.098 83.5204 179.098C84.5098 179.098 85.2844 179.42 85.8444 180.064C86.4044 180.717 86.6844 181.613 86.6844 182.752C86.6751 182.78 86.6704 182.817 86.6704 182.864V183.018H81.8964ZM87.5898 179.252H88.9198V180.218C89.4425 179.471 90.1798 179.098 91.1318 179.098C92.0652 179.098 92.7138 179.42 93.0778 180.064C93.2272 180.344 93.3205 180.577 93.3578 180.764C93.3858 180.96 93.3998 181.394 93.3998 182.066V186H91.9578V182.206C91.9578 180.909 91.5285 180.26 90.6698 180.26C90.0352 180.26 89.5825 180.512 89.3118 181.016C89.1252 181.361 89.0318 181.893 89.0318 182.612V186H87.5898V179.252ZM101.785 179.252L99.1674 186H97.8514L95.1914 179.252H96.7174L98.0894 183.018L98.4954 184.264C98.6354 183.769 98.7661 183.368 98.8874 183.06L100.287 179.252H101.785ZM102.109 176.676H103.551V178.146H102.109V176.676ZM102.109 179.252H103.551V186H102.109V179.252ZM109.829 182.682C109.577 182.775 109.372 182.841 109.213 182.878C109.027 182.925 108.695 182.985 108.219 183.06C107.305 183.219 106.847 183.564 106.847 184.096C106.847 184.759 107.249 185.09 108.051 185.09C108.77 185.09 109.288 184.819 109.605 184.278C109.755 184.026 109.829 183.643 109.829 183.13V182.682ZM105.559 181.072C105.998 179.756 107.001 179.098 108.569 179.098C109.82 179.098 110.637 179.429 111.019 180.092C111.187 180.381 111.271 180.904 111.271 181.66L111.257 184.082C111.257 184.894 111.388 185.533 111.649 186H110.193C110.072 185.739 109.988 185.477 109.941 185.216C109.269 185.832 108.513 186.14 107.673 186.14C106.133 186.14 105.363 185.491 105.363 184.194C105.363 183.335 105.807 182.729 106.693 182.374C107.001 182.262 107.417 182.159 107.939 182.066C108.854 181.926 109.484 181.791 109.829 181.66V181.506C109.829 180.657 109.391 180.232 108.513 180.232C107.645 180.232 107.113 180.596 106.917 181.324L105.559 181.072ZM115.733 180.232C114.603 180.232 114.039 181.007 114.039 182.556C114.039 184.18 114.599 184.992 115.719 184.992C116.829 184.992 117.385 184.236 117.385 182.724C117.385 181.063 116.834 180.232 115.733 180.232ZM118.771 186H117.427V185.09C116.951 185.79 116.279 186.14 115.411 186.14C114.58 186.14 113.894 185.813 113.353 185.16C112.821 184.507 112.555 183.667 112.555 182.64C112.555 181.557 112.811 180.694 113.325 180.05C113.838 179.415 114.524 179.098 115.383 179.098C116.195 179.098 116.843 179.406 117.329 180.022V176.676H118.771V186ZM124.622 182.682C124.37 182.775 124.165 182.841 124.006 182.878C123.82 182.925 123.488 182.985 123.012 183.06C122.098 183.219 121.64 183.564 121.64 184.096C121.64 184.759 122.042 185.09 122.844 185.09C123.563 185.09 124.081 184.819 124.398 184.278C124.548 184.026 124.622 183.643 124.622 183.13V182.682ZM120.352 181.072C120.791 179.756 121.794 179.098 123.362 179.098C124.613 179.098 125.43 179.429 125.812 180.092C125.98 180.381 126.064 180.904 126.064 181.66L126.05 184.082C126.05 184.894 126.181 185.533 126.442 186H124.986C124.865 185.739 124.781 185.477 124.734 185.216C124.062 185.832 123.306 186.14 122.466 186.14C120.926 186.14 120.156 185.491 120.156 184.194C120.156 183.335 120.6 182.729 121.486 182.374C121.794 182.262 122.21 182.159 122.732 182.066C123.647 181.926 124.277 181.791 124.622 181.66V181.506C124.622 180.657 124.184 180.232 123.306 180.232C122.438 180.232 121.906 180.596 121.71 181.324L120.352 181.072ZM131.66 181.17C131.548 180.526 131.076 180.204 130.246 180.204C129.378 180.204 128.944 180.442 128.944 180.918C128.944 181.123 129.051 181.287 129.266 181.408C129.471 181.529 129.891 181.665 130.526 181.814C131.618 182.057 132.341 182.323 132.696 182.612C133.097 182.939 133.298 183.377 133.298 183.928C133.298 184.6 133.032 185.137 132.5 185.538C131.968 185.939 131.268 186.14 130.4 186.14C128.645 186.14 127.628 185.435 127.348 184.026L128.79 183.802C128.93 184.633 129.457 185.048 130.372 185.048C131.342 185.048 131.828 184.74 131.828 184.124C131.828 183.769 131.515 183.527 130.89 183.396C129.499 183.079 128.598 182.761 128.188 182.444C127.777 182.117 127.572 181.669 127.572 181.1C127.572 180.503 127.805 180.022 128.272 179.658C128.738 179.285 129.35 179.098 130.106 179.098C131.832 179.098 132.812 179.714 133.046 180.946L131.66 181.17ZM134.266 179.252H135.806V180.778H134.266V179.252ZM134.266 184.474H135.806V186H134.266V184.474Z" fill="#DCE9B7"/>
<path d="M316.829 184.423L318.743 184.225C318.798 184.658 318.96 185.002 319.229 185.257C319.497 185.507 319.807 185.633 320.158 185.633C320.559 185.633 320.899 185.471 321.177 185.147C321.455 184.819 321.594 184.327 321.594 183.671C321.594 183.056 321.455 182.595 321.177 182.29C320.903 181.98 320.546 181.825 320.104 181.825C319.552 181.825 319.058 182.069 318.62 182.557L317.062 182.331L318.046 177.115H323.125V178.913H319.502L319.201 180.615C319.63 180.401 320.067 180.294 320.514 180.294C321.366 180.294 322.088 180.604 322.681 181.224C323.273 181.843 323.569 182.648 323.569 183.637C323.569 184.462 323.33 185.198 322.852 185.845C322.2 186.729 321.295 187.171 320.138 187.171C319.213 187.171 318.458 186.923 317.875 186.426C317.292 185.929 316.943 185.261 316.829 184.423Z" fill="white"/>
<path d="M16 216.815L17.6333 219.133C17.759 219.321 17.9677 219.437 18.1936 219.443C18.4194 219.45 18.6346 219.347 18.7713 219.167L24 212.552" stroke="#75E0A7" stroke-width="2" stroke-linecap="round" stroke-linejoin="round"/>
<path fill-rule="evenodd" clip-rule="evenodd" d="M20 223.499C24.1421 223.499 27.5 220.142 27.5 215.999C27.5 211.857 24.1421 208.499 20 208.499C15.8579 208.499 12.5 211.857 12.5 215.999C12.5 220.142 15.8579 223.499 20 223.499Z" stroke="#75E0A7" stroke-width="1.5" stroke-linecap="round" stroke-linejoin="round"/>
<path d="M32 212.676H38.832V213.992H33.554V216.47H38.482V217.786H33.554V220.67H39.042V222H32V212.676ZM40.6816 212.676H42.1376V222H40.6816V212.676ZM48.7375 218.01C48.6629 216.825 48.1215 216.232 47.1135 216.232C46.1522 216.232 45.6015 216.825 45.4615 218.01H48.7375ZM45.4335 219.018C45.4802 220.362 46.0682 221.034 47.1975 221.034C47.9162 221.034 48.4109 220.637 48.6815 219.844L50.1515 220.054C49.7409 221.445 48.7469 222.14 47.1695 222.14C46.1615 222.14 45.3729 221.832 44.8035 221.216C44.2249 220.609 43.9355 219.76 43.9355 218.668C43.9355 217.585 44.2202 216.717 44.7895 216.064C45.3589 215.42 46.1149 215.098 47.0575 215.098C48.0469 215.098 48.8215 215.42 49.3815 216.064C49.9415 216.717 50.2215 217.613 50.2215 218.752C50.2122 218.78 50.2075 218.817 50.2075 218.864V219.018H45.4335ZM54.277 216.232C53.1663 216.232 52.611 217.007 52.611 218.556C52.611 220.068 53.1663 220.824 54.277 220.824C55.425 220.824 55.999 220.105 55.999 218.668C55.999 217.044 55.425 216.232 54.277 216.232ZM52.919 222.7C53.003 223.297 53.423 223.596 54.179 223.596C54.8416 223.596 55.299 223.456 55.551 223.176C55.803 222.896 55.929 222.397 55.929 221.678V221.02C55.4063 221.673 54.7483 222 53.955 222C53.1243 222 52.4476 221.683 51.925 221.048C51.393 220.404 51.127 219.583 51.127 218.584C51.127 217.529 51.393 216.685 51.925 216.05C52.4476 215.415 53.143 215.098 54.011 215.098C54.8323 215.098 55.509 215.439 56.041 216.12V215.252H57.385V221.188C57.385 222.579 57.119 223.517 56.587 224.002C56.0736 224.487 55.3316 224.73 54.361 224.73C52.989 224.73 52.0743 224.357 51.617 223.61C51.4396 223.293 51.351 222.971 51.351 222.644L51.365 222.504L52.919 222.7ZM59.3025 215.252H60.7445V222H59.3025V215.252ZM58.7285 214.314L59.5825 212.466H61.3185L59.7505 214.314H58.7285ZM68.9729 215.252L66.3549 222H65.0389L62.3789 215.252H63.9049L65.2769 219.018L65.6829 220.264C65.8229 219.769 65.9536 219.368 66.0749 219.06L67.4749 215.252H68.9729ZM74.0989 218.01C74.0242 216.825 73.4829 216.232 72.4749 216.232C71.5135 216.232 70.9629 216.825 70.8229 218.01H74.0989ZM70.7949 219.018C70.8415 220.362 71.4295 221.034 72.5589 221.034C73.2775 221.034 73.7722 220.637 74.0429 219.844L75.5129 220.054C75.1022 221.445 74.1082 222.14 72.5309 222.14C71.5229 222.14 70.7342 221.832 70.1649 221.216C69.5862 220.609 69.2969 219.76 69.2969 218.668C69.2969 217.585 69.5815 216.717 70.1509 216.064C70.7202 215.42 71.4762 215.098 72.4189 215.098C73.4082 215.098 74.1829 215.42 74.7429 216.064C75.3029 216.717 75.5829 217.613 75.5829 218.752C75.5735 218.78 75.5689 218.817 75.5689 218.864V219.018H70.7949ZM76.4883 212.676H77.9303V214.146H76.4883V212.676ZM76.4883 215.252H77.9303V222H76.4883V215.252ZM84.0542 217.17C83.9422 216.526 83.4709 216.204 82.6402 216.204C81.7722 216.204 81.3382 216.442 81.3382 216.918C81.3382 217.123 81.4455 217.287 81.6602 217.408C81.8655 217.529 82.2855 217.665 82.9202 217.814C84.0122 218.057 84.7355 218.323 85.0902 218.612C85.4915 218.939 85.6922 219.377 85.6922 219.928C85.6922 220.6 85.4262 221.137 84.8942 221.538C84.3622 221.939 83.6622 222.14 82.7942 222.14C81.0395 222.14 80.0222 221.435 79.7422 220.026L81.1842 219.802C81.3242 220.633 81.8515 221.048 82.7662 221.048C83.7369 221.048 84.2222 220.74 84.2222 220.124C84.2222 219.769 83.9095 219.527 83.2842 219.396C81.8935 219.079 80.9929 218.761 80.5822 218.444C80.1715 218.117 79.9662 217.669 79.9662 217.1C79.9662 216.503 80.1995 216.022 80.6662 215.658C81.1329 215.285 81.7442 215.098 82.5002 215.098C84.2269 215.098 85.2069 215.714 85.4402 216.946L84.0542 217.17ZM86.6602 215.252H88.2002V216.778H86.6602V215.252ZM86.6602 220.474H88.2002V222H86.6602V220.474Z" fill="#DCE9B7"/>
<path d="M316.733 220.341L318.593 220.115C318.652 220.589 318.812 220.951 319.071 221.202C319.331 221.453 319.646 221.578 320.015 221.578C320.411 221.578 320.744 221.428 321.013 221.127C321.286 220.826 321.423 220.421 321.423 219.91C321.423 219.427 321.293 219.044 321.033 218.762C320.773 218.479 320.457 218.338 320.083 218.338C319.837 218.338 319.543 218.386 319.201 218.481L319.413 216.916C319.933 216.93 320.329 216.818 320.603 216.581C320.876 216.34 321.013 216.021 321.013 215.624C321.013 215.287 320.912 215.018 320.712 214.817C320.511 214.617 320.245 214.517 319.912 214.517C319.584 214.517 319.304 214.631 319.071 214.858C318.839 215.086 318.698 215.419 318.647 215.856L316.877 215.556C317 214.95 317.185 214.466 317.431 214.106C317.681 213.742 318.028 213.457 318.47 213.252C318.916 213.042 319.415 212.938 319.967 212.938C320.91 212.938 321.667 213.238 322.236 213.84C322.706 214.332 322.94 214.888 322.94 215.508C322.94 216.387 322.46 217.089 321.498 217.613C322.072 217.736 322.53 218.012 322.872 218.44C323.218 218.869 323.392 219.386 323.392 219.992C323.392 220.872 323.07 221.621 322.428 222.241C321.785 222.861 320.985 223.171 320.028 223.171C319.121 223.171 318.369 222.911 317.772 222.392C317.175 221.868 316.829 221.184 316.733 220.341Z" fill="#75E0A7"/>
<path fill-rule="evenodd" clip-rule="evenodd" d="M20 259.499C24.1421 259.499 27.5 256.142 27.5 251.999C27.5 247.857 24.1421 244.499 20 244.499C15.8579 244.499 12.5 247.857 12.5 251.999C12.5 256.142 15.8579 259.499 20 259.499Z" stroke="#F3809A" stroke-width="1.5" stroke-linecap="round" stroke-linejoin="round"/>
<path d="M17 254.999L23 248.999" stroke="#F3809A" stroke-width="2" stroke-linecap="round" stroke-linejoin="round"/>
<path d="M23 254.999L17 248.999" stroke="#F3809A" stroke-width="1.5" stroke-linecap="round" stroke-linejoin="round"/>
<path d="M32 248.676H33.54V258H32V248.676ZM35.6504 251.252H36.9804V252.218C37.5031 251.471 38.2404 251.098 39.1924 251.098C40.1257 251.098 40.7744 251.42 41.1384 252.064C41.2877 252.344 41.3811 252.577 41.4184 252.764C41.4464 252.96 41.4604 253.394 41.4604 254.066V258H40.0184V254.206C40.0184 252.909 39.5891 252.26 38.7304 252.26C38.0957 252.26 37.6431 252.512 37.3724 253.016C37.1857 253.361 37.0924 253.893 37.0924 254.612V258H35.6504V251.252ZM48.054 254.01C47.9793 252.825 47.438 252.232 46.43 252.232C45.4686 252.232 44.918 252.825 44.778 254.01H48.054ZM44.75 255.018C44.7966 256.362 45.3846 257.034 46.514 257.034C47.2326 257.034 47.7273 256.637 47.998 255.844L49.468 256.054C49.0573 257.445 48.0633 258.14 46.486 258.14C45.478 258.14 44.6893 257.832 44.12 257.216C43.5413 256.609 43.252 255.76 43.252 254.668C43.252 253.585 43.5366 252.717 44.106 252.064C44.6753 251.42 45.4313 251.098 46.374 251.098C47.3633 251.098 48.138 251.42 48.698 252.064C49.258 252.717 49.538 253.613 49.538 254.752C49.5286 254.78 49.524 254.817 49.524 254.864V255.018H44.75ZM50.4434 248.676H51.8994V258H50.4434V248.676ZM58.4993 254.01C58.4246 252.825 57.8833 252.232 56.8753 252.232C55.9139 252.232 55.3633 252.825 55.2233 254.01H58.4993ZM55.1953 255.018C55.2419 256.362 55.8299 257.034 56.9593 257.034C57.6779 257.034 58.1726 256.637 58.4433 255.844L59.9133 256.054C59.5026 257.445 58.5086 258.14 56.9313 258.14C55.9233 258.14 55.1346 257.832 54.5653 257.216C53.9866 256.609 53.6973 255.76 53.6973 254.668C53.6973 253.585 53.9819 252.717 54.5513 252.064C55.1206 251.42 55.8766 251.098 56.8193 251.098C57.8086 251.098 58.5833 251.42 59.1433 252.064C59.7033 252.717 59.9833 253.613 59.9833 254.752C59.9739 254.78 59.9693 254.817 59.9693 254.864V255.018H55.1953ZM64.0387 252.232C62.928 252.232 62.3727 253.007 62.3727 254.556C62.3727 256.068 62.928 256.824 64.0387 256.824C65.1867 256.824 65.7607 256.105 65.7607 254.668C65.7607 253.044 65.1867 252.232 64.0387 252.232ZM62.6807 258.7C62.7647 259.297 63.1847 259.596 63.9407 259.596C64.6033 259.596 65.0607 259.456 65.3127 259.176C65.5647 258.896 65.6907 258.397 65.6907 257.678V257.02C65.168 257.673 64.51 258 63.7167 258C62.886 258 62.2093 257.683 61.6867 257.048C61.1547 256.404 60.8887 255.583 60.8887 254.584C60.8887 253.529 61.1547 252.685 61.6867 252.05C62.2093 251.415 62.9047 251.098 63.7727 251.098C64.594 251.098 65.2707 251.439 65.8027 252.12V251.252H67.1467V257.188C67.1467 258.579 66.8807 259.517 66.3487 260.002C65.8353 260.487 65.0933 260.73 64.1227 260.73C62.7507 260.73 61.836 260.357 61.3787 259.61C61.2013 259.293 61.1127 258.971 61.1127 258.644L61.1267 258.504L62.6807 258.7ZM69.0642 251.252H70.5062V258H69.0642V251.252ZM68.4902 250.314L69.3442 248.466H71.0802L69.5122 250.314H68.4902ZM78.7346 251.252L76.1166 258H74.8006L72.1406 251.252H73.6666L75.0386 255.018L75.4446 256.264C75.5846 255.769 75.7153 255.368 75.8366 255.06L77.2366 251.252H78.7346ZM83.8606 254.01C83.7859 252.825 83.2446 252.232 82.2366 252.232C81.2753 252.232 80.7246 252.825 80.5846 254.01H83.8606ZM80.5566 255.018C80.6033 256.362 81.1913 257.034 82.3206 257.034C83.0393 257.034 83.5339 256.637 83.8046 255.844L85.2746 256.054C84.8639 257.445 83.8699 258.14 82.2926 258.14C81.2846 258.14 80.4959 257.832 79.9266 257.216C79.3479 256.609 79.0586 255.76 79.0586 254.668C79.0586 253.585 79.3433 252.717 79.9126 252.064C80.4819 251.42 81.2379 251.098 82.1806 251.098C83.1699 251.098 83.9446 251.42 84.5046 252.064C85.0646 252.717 85.3446 253.613 85.3446 254.752C85.3353 254.78 85.3306 254.817 85.3306 254.864V255.018H80.5566ZM86.25 248.676H87.692V250.146H86.25V248.676ZM86.25 251.252H87.692V258H86.25V251.252ZM93.8159 253.17C93.7039 252.526 93.2326 252.204 92.4019 252.204C91.5339 252.204 91.0999 252.442 91.0999 252.918C91.0999 253.123 91.2072 253.287 91.4219 253.408C91.6272 253.529 92.0472 253.665 92.6819 253.814C93.7739 254.057 94.4972 254.323 94.8519 254.612C95.2532 254.939 95.4539 255.377 95.4539 255.928C95.4539 256.6 95.1879 257.137 94.6559 257.538C94.1239 257.939 93.4239 258.14 92.5559 258.14C90.8012 258.14 89.7839 257.435 89.5039 256.026L90.9459 255.802C91.0859 256.633 91.6132 257.048 92.5279 257.048C93.4986 257.048 93.9839 256.74 93.9839 256.124C93.9839 255.769 93.6712 255.527 93.0459 255.396C91.6552 255.079 90.7546 254.761 90.3439 254.444C89.9332 254.117 89.7279 253.669 89.7279 253.1C89.7279 252.503 89.9612 252.022 90.4279 251.658C90.8946 251.285 91.5059 251.098 92.2619 251.098C93.9886 251.098 94.9686 251.714 95.2019 252.946L93.8159 253.17ZM96.4219 251.252H97.9619V252.778H96.4219V251.252ZM96.4219 256.474H97.9619V258H96.4219V256.474Z" fill="#DCE9B7"/>
<path d="M321.717 259H319.796V251.761C319.094 252.417 318.267 252.902 317.314 253.217V251.474C317.816 251.31 318.36 251 318.948 250.544C319.536 250.084 319.939 249.548 320.158 248.938H321.717V259Z" fill="#F3809A"/>
<mask id="path-26-inside-2_1485_22937" fill="white">
<path d="M12 288H324V340H12V288Z"/>
</mask>
<path d="M12 288V289H324V288V287H12V288Z" fill="white" fill-opacity="0.2" mask="url(#path-26-inside-2_1485_22937)"/>
<path d="M12 314.676H18.832V315.992H13.554V318.47H18.482V319.786H13.554V322.67H19.042V324H12V314.676ZM25.3296 319.604C25.1243 318.717 24.6436 318.274 23.8876 318.274C22.7396 318.274 22.1656 319.035 22.1656 320.556C22.1656 322.171 22.7303 322.978 23.8596 322.978C24.7183 322.978 25.2223 322.479 25.3716 321.48L26.7996 321.69C26.5196 323.323 25.5303 324.14 23.8316 324.14C22.8516 324.14 22.0816 323.827 21.5216 323.202C20.9616 322.586 20.6816 321.727 20.6816 320.626C20.6816 319.515 20.9616 318.652 21.5216 318.036C22.091 317.411 22.875 317.098 23.8736 317.098C25.4696 317.098 26.4263 317.859 26.7436 319.38L25.3296 319.604ZM29.0836 320.626C29.0836 322.194 29.6949 322.978 30.9176 322.978C31.4683 322.978 31.9116 322.763 32.2476 322.334C32.5836 321.914 32.7516 321.354 32.7516 320.654C32.7516 319.067 32.1403 318.274 30.9176 318.274C29.6949 318.274 29.0836 319.058 29.0836 320.626ZM27.5996 320.71C27.5996 319.609 27.9029 318.731 28.5096 318.078C29.1069 317.425 29.9096 317.098 30.9176 317.098C31.9069 317.098 32.7096 317.42 33.3256 318.064C33.9323 318.708 34.2356 319.557 34.2356 320.612C34.2356 321.667 33.9276 322.521 33.3116 323.174C32.7049 323.818 31.9069 324.14 30.9176 324.14C29.9189 324.14 29.1163 323.827 28.5096 323.202C27.9029 322.577 27.5996 321.746 27.5996 320.71ZM35.2012 317.252H36.5312V318.218C37.0538 317.471 37.7912 317.098 38.7432 317.098C39.6765 317.098 40.3252 317.42 40.6892 318.064C40.8385 318.344 40.9318 318.577 40.9692 318.764C40.9972 318.96 41.0112 319.394 41.0112 320.066V324H39.5692V320.206C39.5692 318.909 39.1398 318.26 38.2812 318.26C37.6465 318.26 37.1938 318.512 36.9232 319.016C36.7365 319.361 36.6432 319.893 36.6432 320.612V324H35.2012V317.252ZM44.2867 320.626C44.2867 322.194 44.8981 322.978 46.1207 322.978C46.6714 322.978 47.1147 322.763 47.4507 322.334C47.7867 321.914 47.9547 321.354 47.9547 320.654C47.9547 319.067 47.3434 318.274 46.1207 318.274C44.8981 318.274 44.2867 319.058 44.2867 320.626ZM42.8027 320.71C42.8027 319.609 43.1061 318.731 43.7127 318.078C44.3101 317.425 45.1127 317.098 46.1207 317.098C47.1101 317.098 47.9127 317.42 48.5287 318.064C49.1354 318.708 49.4387 319.557 49.4387 320.612C49.4387 321.667 49.1307 322.521 48.5147 323.174C47.9081 323.818 47.1101 324.14 46.1207 324.14C45.1221 324.14 44.3194 323.827 43.7127 323.202C43.1061 322.577 42.8027 321.746 42.8027 320.71ZM50.4043 317.252H51.7203V318.176C52.2336 317.457 52.9336 317.098 53.8203 317.098C54.763 317.098 55.393 317.471 55.7103 318.218C56.261 317.471 56.9703 317.098 57.8383 317.098C58.697 317.098 59.2943 317.406 59.6303 318.022C59.8356 318.395 59.9383 318.895 59.9383 319.52V324H58.4963V319.926C58.487 318.815 58.123 318.26 57.4043 318.26C56.4056 318.26 55.9063 318.974 55.9063 320.402V324H54.4643V319.94C54.455 318.82 54.0956 318.26 53.3863 318.26C52.7983 318.26 52.383 318.484 52.1403 318.932C51.9536 319.268 51.8603 319.823 51.8603 320.598V324H50.4043V317.252ZM61.5332 314.676H62.9752V316.146H61.5332V314.676ZM61.5332 317.252H62.9752V324H61.5332V317.252ZM69.2531 320.682C69.0011 320.775 68.7958 320.841 68.6371 320.878C68.4504 320.925 68.1191 320.985 67.6431 321.06C66.7284 321.219 66.2711 321.564 66.2711 322.096C66.2711 322.759 66.6724 323.09 67.4751 323.09C68.1938 323.09 68.7118 322.819 69.0291 322.278C69.1784 322.026 69.2531 321.643 69.2531 321.13V320.682ZM64.9831 319.072C65.4218 317.756 66.4251 317.098 67.9931 317.098C69.2438 317.098 70.0604 317.429 70.4431 318.092C70.6111 318.381 70.6951 318.904 70.6951 319.66L70.6811 322.082C70.6811 322.894 70.8118 323.533 71.0731 324H69.6171C69.4958 323.739 69.4118 323.477 69.3651 323.216C68.6931 323.832 67.9371 324.14 67.0971 324.14C65.5571 324.14 64.7871 323.491 64.7871 322.194C64.7871 321.335 65.2304 320.729 66.1171 320.374C66.4251 320.262 66.8404 320.159 67.3631 320.066C68.2778 319.926 68.9078 319.791 69.2531 319.66V319.506C69.2531 318.657 68.8144 318.232 67.9371 318.232C67.0691 318.232 66.5371 318.596 66.3411 319.324L64.9831 319.072ZM81.1261 320.234L80.2581 317.938C79.9594 317.107 79.7588 316.533 79.6561 316.216C79.4974 316.795 79.3294 317.317 79.1521 317.784L78.2561 320.234H81.1261ZM75.2461 324L78.8581 314.676H80.4961L84.2761 324H82.5681L81.6161 321.508H77.8081L76.8841 324H75.2461ZM84.3516 317.252H85.6816V318.218C86.2042 317.471 86.9416 317.098 87.8936 317.098C88.8269 317.098 89.4756 317.42 89.8396 318.064C89.9889 318.344 90.0822 318.577 90.1196 318.764C90.1476 318.96 90.1616 319.394 90.1616 320.066V324H88.7196V320.206C88.7196 318.909 88.2902 318.26 87.4316 318.26C86.7969 318.26 86.3442 318.512 86.0736 319.016C85.8869 319.361 85.7936 319.893 85.7936 320.612V324H84.3516V317.252ZM96.4331 324L96.4191 323.006C95.9058 323.762 95.1731 324.14 94.2211 324.14C93.2878 324.14 92.6391 323.827 92.2751 323.202C92.0605 322.81 91.9531 322.236 91.9531 321.48V317.252H93.4091V321.074C93.4091 322.353 93.8338 322.992 94.6831 322.992C95.3178 322.992 95.7705 322.745 96.0411 322.25C96.2185 321.923 96.3071 321.345 96.3071 320.514V317.252H97.7491V324H96.4331ZM104.021 320.682C103.769 320.775 103.563 320.841 103.405 320.878C103.218 320.925 102.887 320.985 102.411 321.06C101.496 321.219 101.039 321.564 101.039 322.096C101.039 322.759 101.44 323.09 102.243 323.09C102.961 323.09 103.479 322.819 103.797 322.278C103.946 322.026 104.021 321.643 104.021 321.13V320.682ZM99.7507 319.072C100.189 317.756 101.193 317.098 102.761 317.098C104.011 317.098 104.828 317.429 105.211 318.092C105.379 318.381 105.463 318.904 105.463 319.66L105.449 322.082C105.449 322.894 105.579 323.533 105.841 324H104.385C104.263 323.739 104.179 323.477 104.133 323.216C103.461 323.832 102.705 324.14 101.865 324.14C100.325 324.14 99.5547 323.491 99.5547 322.194C99.5547 321.335 99.998 320.729 100.885 320.374C101.193 320.262 101.608 320.159 102.131 320.066C103.045 319.926 103.675 319.791 104.021 319.66V319.506C104.021 318.657 103.582 318.232 102.705 318.232C101.837 318.232 101.305 318.596 101.109 319.324L99.7507 319.072ZM106.746 314.676H108.202V324H106.746V314.676ZM110 317.252H111.54V318.778H110V317.252ZM110 322.474H111.54V324H110V322.474Z" fill="#D6E7CA"/>
<path d="M192 300.5H316C320.142 300.5 323.5 303.858 323.5 308V332C323.5 336.142 320.142 339.5 316 339.5H192C187.858 339.5 184.5 336.142 184.5 332V308C184.5 303.858 187.858 300.5 192 300.5Z" fill="#47CD89"/>
<path d="M192 300.5H316C320.142 300.5 323.5 303.858 323.5 308V332C323.5 336.142 320.142 339.5 316 339.5H192C187.858 339.5 184.5 336.142 184.5 332V308C184.5 303.858 187.858 300.5 192 300.5Z" stroke="#75E0A7"/>
<path d="M202.192 318.928C203.6 318.928 204.592 318.776 205.168 318.472C205.872 318.104 206.224 317.464 206.224 316.552C206.224 315 204.992 314.224 202.528 314.224H198.64V318.928H202.192ZM196 312.016H202.96C204.864 312.016 206.192 312.24 206.944 312.688C208.272 313.456 208.936 314.704 208.936 316.432C208.936 318.944 207.48 320.408 204.568 320.824C205.704 321.432 206.8 322.568 207.856 324.232L210.256 328H207.04L204.808 324.616C204.104 323.528 203.568 322.768 203.2 322.336C202.864 321.936 202.512 321.64 202.144 321.448C201.744 321.224 201.112 321.112 200.248 321.112H198.664V328H196V312.016ZM218.103 326.272C219.607 326.032 220.359 325.144 220.359 323.608C220.359 322.344 219.607 321.512 218.103 321.112V326.272ZM216.735 313.624C215.407 313.944 214.743 314.72 214.743 315.952C214.743 316.992 215.407 317.76 216.735 318.256V313.624ZM216.735 328.312C215.663 328.152 214.839 327.88 214.263 327.496C212.983 326.68 212.247 325.36 212.055 323.536L214.431 323.224C214.703 324.856 215.471 325.84 216.735 326.176V320.728C213.871 319.944 212.439 318.4 212.439 316.096C212.439 313.408 213.871 311.92 216.735 311.632V310.624H218.103V311.632C220.503 311.968 221.895 313.256 222.279 315.496L219.903 315.832C219.711 314.664 219.111 313.936 218.103 313.648V318.64L218.295 318.712C219.655 319.064 220.647 319.496 221.271 320.008C222.215 320.792 222.687 321.912 222.687 323.368C222.687 324.712 222.263 325.832 221.415 326.728C220.551 327.624 219.447 328.128 218.103 328.24V330.256H216.735V328.312ZM233.944 328V315.952C232.84 316.96 231.52 317.744 229.984 318.304V315.976C232.288 315.032 233.816 313.688 234.568 311.944H236.416V328H233.944ZM239.43 325.384H242.046V328H239.43V325.384ZM248.232 323.608C248.488 325.384 249.384 326.272 250.92 326.272C251.768 326.272 252.456 325.944 252.984 325.288C253.528 324.648 253.8 323.816 253.8 322.792C253.8 320.552 252.824 319.432 250.872 319.432C249.768 319.432 248.88 319.888 248.208 320.8L246.048 320.488L247.632 312.232H255.648V314.56H249.552L248.855 318.136C249.72 317.608 250.592 317.344 251.472 317.344C252.88 317.36 254.048 317.864 254.976 318.856C255.904 319.848 256.368 321.096 256.368 322.6C256.368 324.248 255.848 325.608 254.808 326.68C253.784 327.736 252.472 328.264 250.872 328.264C249.448 328.264 248.264 327.864 247.32 327.064C246.376 326.248 245.832 325.176 245.688 323.848L248.232 323.608ZM260.804 328V315.952C259.7 316.96 258.38 317.744 256.844 318.304V315.976C259.148 315.032 260.676 313.688 261.428 311.944H263.276V328H260.804ZM278.656 328H268C268.032 326.912 268.504 325.76 269.416 324.544C269.992 323.792 270.896 322.88 272.128 321.808C273.376 320.72 274.256 319.888 274.768 319.312C275.28 318.752 275.648 318.216 275.872 317.704C276.048 317.304 276.136 316.888 276.136 316.456C276.136 314.824 275.272 314.008 273.544 314.008C271.816 314.008 270.928 314.968 270.88 316.888L268.36 316.624C268.648 313.504 270.352 311.944 273.472 311.944C275.04 311.944 276.296 312.352 277.24 313.168C278.168 313.984 278.632 315.072 278.632 316.432C278.632 317.888 277.984 319.304 276.688 320.68C275.92 321.496 274.928 322.416 273.712 323.44C272.72 324.288 272.072 324.952 271.768 325.432L271.624 325.672H278.656V328ZM280.52 325.384H283.16V327.592C283.16 329.464 282.408 330.712 280.904 331.336L280.328 330.304C281.272 329.904 281.768 329.136 281.816 328H280.52V325.384ZM289.178 320.152C289.178 324.216 290.05 326.24 291.794 326.224C292.738 326.224 293.418 325.728 293.834 324.736C294.234 323.744 294.434 322.096 294.434 319.792C294.434 315.936 293.554 314.008 291.794 314.008C290.05 314.008 289.178 316.056 289.178 320.152ZM286.586 320.104C286.586 314.664 288.322 311.944 291.794 311.944C295.266 311.944 297.002 314.672 297.002 320.128C297.002 325.552 295.266 328.264 291.794 328.264C288.322 328.264 286.586 325.544 286.586 320.104ZM301.506 320.152C301.506 324.216 302.378 326.24 304.122 326.224C305.066 326.224 305.746 325.728 306.162 324.736C306.562 323.744 306.762 322.096 306.762 319.792C306.762 315.936 305.882 314.008 304.122 314.008C302.378 314.008 301.506 316.056 301.506 320.152ZM298.914 320.104C298.914 314.664 300.65 311.944 304.122 311.944C307.594 311.944 309.33 314.672 309.33 320.128C309.33 325.552 307.594 328.264 304.122 328.264C300.65 328.264 298.914 325.544 298.914 320.104Z" fill="#053321"/>
<defs>
<linearGradient id="paint0_linear_1485_22937" x1="168" y1="0" x2="168" y2="352" gradientUnits="userSpaceOnUse">
<stop stop-color="#1F321D"/>
<stop offset="1" stop-color="#60AB56"/>
</linearGradient>
<radialGradient id="paint1_radial_1485_22937" cx="0" cy="0" r="1" gradientUnits="userSpaceOnUse" gradientTransform="translate(168 352) rotate(-90) scale(352 336)">
<stop stop-color="#1F321D"/>
<stop offset="1" stop-color="#AECF9D"/>
</radialGradient>
</defs>
</svg>
