<svg width="2400" height="542" viewBox="0 0 2400 542" fill="none" xmlns="http://www.w3.org/2000/svg">
<rect width="2400" height="542" fill="white"/>
<path d="M32 52C32 40.9543 40.9543 32 52 32H2348C2359.05 32 2368 40.9543 2368 52V490C2368 501.046 2359.05 510 2348 510H52.0001C40.9544 510 32 501.046 32 490V52Z" fill="#FAFAFA"/>
<g filter="url(#filter0_dd_1550_265865)">
<rect x="80" y="80" width="36" height="36" rx="9" fill="white"/>
<path d="M109.581 99.008C109.455 99.008 109.343 99.0826 109.291 99.1972C108.619 100.626 107.163 101.619 105.472 101.619C105.133 101.619 104.806 101.593 104.482 101.527C102.972 101.217 101.6 100.025 99.9635 96.539C98.2502 92.891 95.984 89 90.7532 89C86.7195 89 83.3315 91.8024 82.4652 95.5475C82.3252 96.1553 82.25 96.7873 82.25 97.4366C82.25 100.335 83.748 103.04 86.1822 104.583C86.3485 104.689 86.5725 104.623 86.6495 104.443L88.109 101.015C88.1615 100.892 88.1317 100.746 88.0285 100.659C87.094 99.8674 86.5375 98.6902 86.5375 97.4384C86.5375 97.0772 86.583 96.7282 86.6705 96.3931C87.1395 94.5909 88.7915 93.2556 90.7532 93.2556C92.715 93.2556 94.059 94.0422 96.0767 98.3378C97.4767 101.321 99.5347 104.677 103.306 105.618C103.973 105.785 104.694 105.875 105.472 105.875C109.48 105.875 112.847 103.109 113.741 99.4021C113.788 99.2024 113.64 99.0097 113.433 99.0097H109.581V99.008Z" fill="url(#paint0_linear_1550_265865)"/>
</g>
<path d="M145.032 96.2H147.528C146.808 99.08 144.648 101.216 140.784 101.216C135.744 101.216 133.224 97.448 133.224 92.744C133.224 88.208 135.768 84.104 140.88 84.104C144.912 84.104 147.048 86.408 147.528 89.192H145.056C144.504 87.488 143.352 86.12 140.784 86.12C137.256 86.12 135.816 89.336 135.816 92.648C135.816 95.84 137.16 99.2 140.88 99.2C143.424 99.2 144.48 97.712 145.032 96.2ZM155.314 88.496C158.746 88.496 161.002 91.04 161.002 94.88C161.002 98.432 158.938 101.288 155.194 101.288C151.618 101.288 149.482 98.6 149.482 94.928C149.482 91.28 151.594 88.496 155.314 88.496ZM155.218 90.44C153.082 90.44 151.906 92.144 151.906 94.904C151.906 97.52 153.178 99.368 155.266 99.368C157.402 99.368 158.578 97.592 158.578 94.904C158.578 92.192 157.402 90.44 155.218 90.44ZM163.634 101V91.952C163.634 90.896 163.634 89.792 163.61 88.784H165.89C165.914 89.144 165.986 90.008 165.986 90.584C166.538 89.528 167.594 88.496 169.49 88.496C171.242 88.496 172.37 89.384 172.85 90.632C173.498 89.504 174.65 88.496 176.714 88.496C178.73 88.496 180.554 89.696 180.554 92.984V101H178.25V93.272C178.25 91.904 177.77 90.488 175.946 90.488C174.074 90.488 173.258 91.88 173.258 93.992V101H170.954V93.344C170.954 91.832 170.546 90.512 168.722 90.512C166.874 90.512 165.986 91.952 165.986 94.232V101H163.634ZM189.88 101.288C187.936 101.288 186.928 100.496 186.4 99.584V105.8H184.048V91.76C184.048 90.776 184.048 89.744 184.024 88.784H186.328C186.376 89.192 186.4 89.936 186.4 90.632C187.048 89.48 188.248 88.496 190.312 88.496C193.12 88.496 195.184 90.872 195.184 94.592C195.184 98.936 192.832 101.288 189.88 101.288ZM189.496 99.344C191.632 99.344 192.76 97.592 192.76 94.688C192.76 92.168 191.656 90.488 189.64 90.488C187.24 90.488 186.304 92.024 186.304 94.88C186.304 97.664 187.072 99.344 189.496 99.344ZM202.986 88.496C206.418 88.496 208.674 91.04 208.674 94.88C208.674 98.432 206.61 101.288 202.866 101.288C199.29 101.288 197.154 98.6 197.154 94.928C197.154 91.28 199.266 88.496 202.986 88.496ZM202.89 90.44C200.754 90.44 199.578 92.144 199.578 94.904C199.578 97.52 200.85 99.368 202.938 99.368C205.074 99.368 206.25 97.592 206.25 94.904C206.25 92.192 205.074 90.44 202.89 90.44ZM211.33 101V91.88C211.33 90.824 211.33 89.744 211.306 88.784H213.586C213.658 89.144 213.682 90.344 213.682 90.704C214.162 89.72 215.146 88.496 217.474 88.496C219.802 88.496 221.554 89.96 221.554 93.176V101H219.202V93.464C219.202 91.712 218.53 90.512 216.73 90.512C214.594 90.512 213.682 92.072 213.682 94.472V101H211.33ZM235.073 95.36H226.577C226.577 97.664 227.729 99.368 229.745 99.368C231.569 99.368 232.145 98.456 232.529 97.592H234.905C234.425 99.152 233.105 101.288 229.673 101.288C225.785 101.288 224.177 98.192 224.177 95.048C224.177 91.376 226.049 88.496 229.793 88.496C233.777 88.496 235.097 91.64 235.097 94.328C235.097 94.712 235.097 95.024 235.073 95.36ZM226.649 93.752H232.721C232.697 91.856 231.785 90.32 229.769 90.32C227.729 90.32 226.841 91.736 226.649 93.752ZM237.768 101V91.88C237.768 90.824 237.768 89.744 237.744 88.784H240.024C240.096 89.144 240.12 90.344 240.12 90.704C240.6 89.72 241.584 88.496 243.912 88.496C246.24 88.496 247.992 89.96 247.992 93.176V101H245.64V93.464C245.64 91.712 244.968 90.512 243.168 90.512C241.032 90.512 240.12 92.072 240.12 94.472V101H237.768ZM249.803 90.68V88.784H251.867V85.256H254.219V88.784H256.859V90.68H254.219V97.616C254.219 98.744 254.507 99.32 255.611 99.32C255.875 99.32 256.283 99.296 256.618 99.224V100.952C256.067 101.144 255.299 101.168 254.699 101.168C252.707 101.168 251.867 100.136 251.867 98.096V90.68H249.803ZM269.011 95.36H260.515C260.515 97.664 261.667 99.368 263.683 99.368C265.507 99.368 266.083 98.456 266.467 97.592H268.843C268.363 99.152 267.043 101.288 263.611 101.288C259.723 101.288 258.115 98.192 258.115 95.048C258.115 91.376 259.987 88.496 263.731 88.496C267.715 88.496 269.035 91.64 269.035 94.328C269.035 94.712 269.035 95.024 269.011 95.36ZM260.587 93.752H266.659C266.635 91.856 265.723 90.32 263.707 90.32C261.667 90.32 260.779 91.736 260.587 93.752ZM270.79 97.472H273.118C273.454 98.744 274.39 99.488 275.974 99.488C277.678 99.488 278.326 98.768 278.326 97.736C278.326 96.656 277.774 96.176 275.542 95.648C271.966 94.76 271.246 93.656 271.246 92C271.246 90.248 272.518 88.496 275.758 88.496C279.022 88.496 280.318 90.368 280.462 92.072H278.182C278.038 91.328 277.486 90.296 275.662 90.296C274.078 90.296 273.598 91.04 273.598 91.808C273.598 92.648 274.054 93.08 276.262 93.584C280.03 94.496 280.75 95.744 280.75 97.568C280.75 99.68 279.07 101.288 275.902 101.288C272.638 101.288 271.078 99.656 270.79 97.472Z" fill="#141414"/>
<path d="M291.344 93.8H297.728V95.912H291.344V93.8ZM311.886 93.416V95.336L301.038 101.12V98.84L309.606 94.4L301.038 89.768V87.512L311.886 93.416Z" fill="#141414"/>
<path d="M334.672 96.032H337.792C337.12 99.032 334.864 101.24 330.832 101.24C325.672 101.24 323.176 97.496 323.176 92.792C323.176 88.256 325.72 84.176 330.976 84.176C335.224 84.176 337.36 86.648 337.792 89.408H334.672C334.24 87.968 333.256 86.648 330.88 86.648C327.664 86.648 326.416 89.552 326.416 92.672C326.416 95.648 327.544 98.768 330.976 98.768C333.376 98.768 334.264 97.232 334.672 96.032ZM345.741 88.376C349.293 88.376 351.597 90.944 351.597 94.808C351.597 98.504 349.437 101.288 345.573 101.288C341.853 101.288 339.645 98.576 339.645 94.88C339.645 91.136 341.877 88.376 345.741 88.376ZM345.621 90.752C343.773 90.752 342.693 92.168 342.693 94.832C342.693 97.328 343.821 98.936 345.669 98.936C347.517 98.936 348.573 97.352 348.573 94.856C348.573 92.216 347.517 90.752 345.621 90.752ZM354.124 101V91.784C354.124 90.728 354.124 89.6 354.1 88.664H357.004C357.052 89 357.1 90.008 357.1 90.392C357.556 89.528 358.564 88.376 360.796 88.376C363.22 88.376 364.9 89.984 364.9 93.128V101H361.9V93.488C361.9 91.928 361.348 90.848 359.716 90.848C357.988 90.848 357.1 91.976 357.1 94.256V101H354.124ZM366.585 90.968V88.664H368.577V85.232H371.553V88.664H374.073V90.968H371.553V97.424C371.553 98.456 371.841 98.912 372.897 98.912C373.113 98.912 373.473 98.912 373.761 98.84V100.952C373.137 101.168 372.273 101.168 371.625 101.168C369.369 101.168 368.577 99.992 368.577 97.88V90.968H366.585ZM386.598 95.456H378.294C378.294 97.328 379.23 98.936 381.054 98.936C382.662 98.936 383.142 98.216 383.478 97.4H386.478C386.022 98.936 384.678 101.288 380.982 101.288C376.974 101.288 375.27 98.216 375.27 95C375.27 91.208 377.214 88.376 381.102 88.376C385.254 88.376 386.646 91.496 386.646 94.424C386.646 94.832 386.646 95.12 386.598 95.456ZM378.366 93.56H383.646C383.622 91.928 382.902 90.584 381.102 90.584C379.278 90.584 378.51 91.832 378.366 93.56ZM389.163 101V91.784C389.163 90.728 389.163 89.6 389.139 88.664H392.043C392.091 89 392.139 90.008 392.139 90.392C392.595 89.528 393.603 88.376 395.835 88.376C398.259 88.376 399.939 89.984 399.939 93.128V101H396.939V93.488C396.939 91.928 396.387 90.848 394.755 90.848C393.027 90.848 392.139 91.976 392.139 94.256V101H389.163ZM401.624 90.968V88.664H403.616V85.232H406.592V88.664H409.112V90.968H406.592V97.424C406.592 98.456 406.88 98.912 407.936 98.912C408.152 98.912 408.512 98.912 408.8 98.84V100.952C408.176 101.168 407.312 101.168 406.664 101.168C404.408 101.168 403.616 99.992 403.616 97.88V90.968H401.624ZM425.186 83.456H428.162V97.592C428.162 98.72 428.162 99.872 428.186 101H425.33C425.258 100.664 425.21 99.92 425.186 99.56C424.586 100.64 423.458 101.288 421.562 101.288C418.418 101.288 416.45 98.768 416.45 94.952C416.45 91.16 418.562 88.376 422.018 88.376C423.938 88.376 424.898 89.096 425.186 89.696V83.456ZM422.498 90.8C420.578 90.8 419.522 92.312 419.522 94.88C419.522 97.472 420.626 98.888 422.378 98.888C424.898 98.888 425.306 96.872 425.306 94.784C425.306 92.456 424.922 90.8 422.498 90.8ZM431.374 101V88.664H434.374V101H431.374ZM431.374 86.384V83.456H434.374V86.384H431.374ZM436.286 88.664H439.478C440.822 93.152 441.878 96.848 442.166 98.336H442.19C442.526 96.536 443.774 92.816 445.094 88.664H448.094L443.678 101H440.51L436.286 88.664ZM449.936 101V88.664H452.936V101H449.936ZM449.936 86.384V83.456H452.936V86.384H449.936ZM464.163 83.456H467.139V97.592C467.139 98.72 467.139 99.872 467.163 101H464.307C464.235 100.664 464.187 99.92 464.163 99.56C463.563 100.64 462.435 101.288 460.539 101.288C457.395 101.288 455.427 98.768 455.427 94.952C455.427 91.16 457.539 88.376 460.995 88.376C462.915 88.376 463.875 89.096 464.163 89.696V83.456ZM461.475 90.8C459.555 90.8 458.499 92.312 458.499 94.88C458.499 97.472 459.603 98.888 461.355 98.888C463.875 98.888 464.283 96.872 464.283 94.784C464.283 92.456 463.899 90.8 461.475 90.8ZM480.91 95.456H472.606C472.606 97.328 473.542 98.936 475.366 98.936C476.974 98.936 477.454 98.216 477.79 97.4H480.79C480.334 98.936 478.99 101.288 475.294 101.288C471.286 101.288 469.582 98.216 469.582 95C469.582 91.208 471.526 88.376 475.414 88.376C479.566 88.376 480.958 91.496 480.958 94.424C480.958 94.832 480.958 95.12 480.91 95.456ZM472.678 93.56H477.958C477.934 91.928 477.214 90.584 475.414 90.584C473.59 90.584 472.822 91.832 472.678 93.56ZM483.452 101V92.024C483.452 90.632 483.452 89.576 483.428 88.664H486.356C486.404 88.976 486.452 90.104 486.452 90.968C487.028 89.456 488.396 88.424 490.46 88.376V91.256C487.964 91.256 486.452 92.144 486.452 95.432V101H483.452ZM491.68 97.352H494.632C494.92 98.48 495.784 99.104 497.2 99.104C498.64 99.104 499.168 98.528 499.168 97.664C499.168 96.752 498.64 96.368 496.672 95.888C492.808 94.952 492.136 93.752 492.136 92.024C492.136 90.248 493.408 88.376 496.96 88.376C500.512 88.376 501.784 90.368 501.904 92.048H499.072C498.928 91.472 498.52 90.536 496.816 90.536C495.496 90.536 495.088 91.136 495.088 91.784C495.088 92.504 495.496 92.864 497.584 93.344C501.592 94.28 502.216 95.624 502.216 97.448C502.216 99.536 500.608 101.288 497.08 101.288C493.528 101.288 491.968 99.56 491.68 97.352Z" fill="#141414"/>
<path d="M2125 99.06H2126.84C2126.22 101.42 2124.46 103.18 2121.3 103.18C2117.14 103.18 2115.04 100.02 2115.04 96.1C2115.04 92.32 2117.14 88.9 2121.38 88.9C2124.66 88.9 2126.44 90.76 2126.84 93.1H2125C2124.5 91.58 2123.5 90.44 2121.3 90.44C2118.24 90.44 2116.98 93.22 2116.98 96.04C2116.98 98.76 2118.18 101.64 2121.38 101.64C2123.52 101.64 2124.46 100.42 2125 99.06ZM2133.29 92.62C2136.11 92.62 2137.95 94.74 2137.95 97.92C2137.95 100.84 2136.27 103.24 2133.17 103.24C2130.27 103.24 2128.51 101 2128.51 97.96C2128.51 94.96 2130.23 92.62 2133.29 92.62ZM2133.21 94.1C2131.31 94.1 2130.31 95.62 2130.31 97.94C2130.31 100.16 2131.43 101.78 2133.25 101.78C2135.11 101.78 2136.15 100.24 2136.15 97.94C2136.15 95.66 2135.11 94.1 2133.21 94.1ZM2140.23 103V95.48C2140.23 94.6 2140.23 93.7 2140.21 92.86H2141.91C2141.93 93.18 2141.99 93.92 2141.97 94.42C2142.43 93.52 2143.33 92.62 2144.93 92.62C2146.37 92.62 2147.35 93.36 2147.73 94.44C2148.27 93.48 2149.23 92.62 2150.97 92.62C2152.61 92.62 2154.17 93.6 2154.17 96.34V103H2152.43V96.56C2152.43 95.38 2152.01 94.14 2150.43 94.14C2148.79 94.14 2148.07 95.38 2148.07 97.18V103H2146.35V96.62C2146.35 95.3 2145.97 94.14 2144.39 94.14C2142.75 94.14 2141.97 95.46 2141.97 97.4V103H2140.23ZM2165.34 98.26H2158.2C2158.2 100.32 2159.24 101.78 2160.96 101.78C2162.58 101.78 2163.1 100.96 2163.42 100.22H2165.18C2164.78 101.52 2163.7 103.24 2160.92 103.24C2157.72 103.24 2156.42 100.66 2156.42 98.04C2156.42 95.04 2157.94 92.62 2161.02 92.62C2164.3 92.62 2165.38 95.26 2165.38 97.42C2165.38 97.72 2165.38 97.98 2165.34 98.26ZM2158.26 97.02H2163.6C2163.58 95.36 2162.74 94.02 2161 94.02C2159.22 94.02 2158.44 95.26 2158.26 97.02ZM2167.63 103V95.62C2167.63 94.2 2167.63 93.4 2167.61 92.86H2169.33C2169.37 93.16 2169.39 93.94 2169.39 94.94C2169.91 93.56 2171.13 92.68 2172.81 92.62V94.38C2170.73 94.44 2169.39 95.52 2169.39 98.08V103H2167.63ZM2180.78 99.9H2182.52C2182.08 101.66 2180.9 103.24 2178.32 103.24C2175.54 103.24 2173.8 101.24 2173.8 98C2173.8 95.12 2175.42 92.62 2178.44 92.62C2181.38 92.62 2182.38 94.72 2182.52 96.02H2180.78C2180.52 94.98 2179.88 94.1 2178.42 94.1C2176.62 94.1 2175.6 95.64 2175.6 97.94C2175.6 100.24 2176.58 101.8 2178.34 101.8C2179.62 101.8 2180.36 101.12 2180.78 99.9ZM2189.94 103V89.1H2194.92C2198.82 89.1 2201.48 91.76 2201.48 95.92C2201.48 100.02 2198.9 103 2194.86 103H2189.94ZM2191.78 90.66V101.44H2194.7C2197.98 101.44 2199.54 99.1 2199.54 95.94C2199.54 93.2 2198.12 90.66 2194.72 90.66H2191.78ZM2212.16 98.26H2205.02C2205.02 100.32 2206.06 101.78 2207.78 101.78C2209.4 101.78 2209.92 100.96 2210.24 100.22H2212C2211.6 101.52 2210.52 103.24 2207.74 103.24C2204.54 103.24 2203.24 100.66 2203.24 98.04C2203.24 95.04 2204.76 92.62 2207.84 92.62C2211.12 92.62 2212.2 95.26 2212.2 97.42C2212.2 97.72 2212.2 97.98 2212.16 98.26ZM2205.08 97.02H2210.42C2210.4 95.36 2209.56 94.02 2207.82 94.02C2206.04 94.02 2205.26 95.26 2205.08 97.02ZM2213.7 100.1H2215.44C2215.72 101.22 2216.54 101.86 2217.92 101.86C2219.42 101.86 2220 101.22 2220 100.3C2220 99.36 2219.54 98.92 2217.6 98.44C2214.7 97.74 2214.1 96.86 2214.1 95.48C2214.1 94.04 2215.14 92.62 2217.76 92.62C2220.36 92.62 2221.44 94.14 2221.58 95.56H2219.88C2219.74 94.9 2219.24 93.98 2217.68 93.98C2216.26 93.98 2215.84 94.68 2215.84 95.34C2215.84 96.1 2216.26 96.46 2218.12 96.92C2221.18 97.64 2221.8 98.66 2221.8 100.18C2221.8 101.96 2220.4 103.24 2217.86 103.24C2215.24 103.24 2213.96 101.92 2213.7 100.1ZM2224.03 103V92.86H2225.79V103H2224.03ZM2224.03 90.52V88.32H2225.79V90.52H2224.03ZM2237.14 95.8V102.1C2237.14 105.34 2235.8 107.2 2232.5 107.2C2229.42 107.2 2228.48 105.48 2228.28 104.1H2230.08C2230.36 105.2 2231.26 105.8 2232.56 105.8C2234.86 105.8 2235.44 104.34 2235.44 102V101.18C2234.9 102.32 2233.96 102.96 2232.28 102.96C2229.78 102.96 2228.08 100.92 2228.08 97.96C2228.08 94.64 2230 92.62 2232.46 92.62C2234.38 92.62 2235.2 93.54 2235.44 94.22C2235.46 93.76 2235.5 93.08 2235.52 92.86H2237.18C2237.16 93.46 2237.14 94.82 2237.14 95.8ZM2232.72 94.12C2230.84 94.12 2229.9 95.68 2229.9 97.88C2229.9 100.02 2231 101.46 2232.66 101.46C2234.84 101.46 2235.48 100 2235.48 97.74C2235.48 95.46 2234.88 94.12 2232.72 94.12ZM2240.15 103V95.42C2240.15 94.54 2240.15 93.66 2240.13 92.86H2241.83C2241.87 93.16 2241.91 94.24 2241.89 94.54C2242.31 93.66 2243.13 92.62 2245.09 92.62C2246.99 92.62 2248.47 93.8 2248.47 96.48V103H2246.73V96.72C2246.73 95.18 2246.13 94.14 2244.57 94.14C2242.67 94.14 2241.89 95.6 2241.89 97.64V103H2240.15ZM2255.86 99.14H2257.74C2258.12 100.8 2259.26 101.7 2261.26 101.7C2263.44 101.7 2264.3 100.68 2264.3 99.38C2264.3 97.98 2263.62 97.2 2260.82 96.52C2257.54 95.72 2256.4 94.6 2256.4 92.64C2256.4 90.58 2257.94 88.9 2261.04 88.9C2264.36 88.9 2265.72 90.82 2265.9 92.64H2264.02C2263.78 91.4 2263 90.38 2260.98 90.38C2259.28 90.38 2258.32 91.14 2258.32 92.48C2258.32 93.78 2259.12 94.3 2261.54 94.88C2265.52 95.86 2266.22 97.4 2266.22 99.18C2266.22 101.42 2264.56 103.18 2261.16 103.18C2257.66 103.18 2256.14 101.28 2255.86 99.14ZM2267.23 92.86H2269.13C2270.75 97.72 2271.67 100.42 2271.93 101.44H2271.95C2272.27 100.3 2273.01 97.98 2274.65 92.86H2276.43L2272.79 103.48C2271.75 106.44 2270.99 107.2 2268.91 107.2C2268.59 107.2 2268.21 107.18 2267.83 107.12V105.6C2268.07 105.64 2268.37 105.66 2268.65 105.66C2269.95 105.66 2270.43 105.1 2271.03 103.4L2267.23 92.86ZM2277.41 100.1H2279.15C2279.43 101.22 2280.25 101.86 2281.63 101.86C2283.13 101.86 2283.71 101.22 2283.71 100.3C2283.71 99.36 2283.25 98.92 2281.31 98.44C2278.41 97.74 2277.81 96.86 2277.81 95.48C2277.81 94.04 2278.85 92.62 2281.47 92.62C2284.07 92.62 2285.15 94.14 2285.29 95.56H2283.59C2283.45 94.9 2282.95 93.98 2281.39 93.98C2279.97 93.98 2279.55 94.68 2279.55 95.34C2279.55 96.1 2279.97 96.46 2281.83 96.92C2284.89 97.64 2285.51 98.66 2285.51 100.18C2285.51 101.96 2284.11 103.24 2281.57 103.24C2278.95 103.24 2277.67 101.92 2277.41 100.1ZM2286.37 94.3V92.86H2288.13V89.88H2289.89V92.86H2292.11V94.3H2289.89V100.24C2289.89 101.22 2290.13 101.72 2291.03 101.72C2291.29 101.72 2291.65 101.72 2291.93 101.64V102.96C2291.49 103.12 2290.89 103.14 2290.41 103.14C2288.83 103.14 2288.13 102.34 2288.13 100.64V94.3H2286.37ZM2302.12 98.26H2294.98C2294.98 100.32 2296.02 101.78 2297.74 101.78C2299.36 101.78 2299.88 100.96 2300.2 100.22H2301.96C2301.56 101.52 2300.48 103.24 2297.7 103.24C2294.5 103.24 2293.2 100.66 2293.2 98.04C2293.2 95.04 2294.72 92.62 2297.8 92.62C2301.08 92.62 2302.16 95.26 2302.16 97.42C2302.16 97.72 2302.16 97.98 2302.12 98.26ZM2295.04 97.02H2300.38C2300.36 95.36 2299.52 94.02 2297.78 94.02C2296 94.02 2295.22 95.26 2295.04 97.02ZM2304.41 103V95.48C2304.41 94.6 2304.41 93.7 2304.39 92.86H2306.09C2306.11 93.18 2306.17 93.92 2306.15 94.42C2306.61 93.52 2307.51 92.62 2309.11 92.62C2310.55 92.62 2311.53 93.36 2311.91 94.44C2312.45 93.48 2313.41 92.62 2315.15 92.62C2316.79 92.62 2318.35 93.6 2318.35 96.34V103H2316.61V96.56C2316.61 95.38 2316.19 94.14 2314.61 94.14C2312.97 94.14 2312.25 95.38 2312.25 97.18V103H2310.53V96.62C2310.53 95.3 2310.15 94.14 2308.57 94.14C2306.93 94.14 2306.15 95.46 2306.15 97.4V103H2304.41Z" fill="#467541"/>
<path d="M111.68 275.58H119.48C117.8 283.08 112.16 288.6 102.08 288.6C89.18 288.6 82.94 279.24 82.94 267.48C82.94 256.14 89.3 245.94 102.44 245.94C113.06 245.94 118.4 252.12 119.48 259.02H111.68C110.6 255.42 108.14 252.12 102.2 252.12C94.16 252.12 91.04 259.38 91.04 267.18C91.04 274.62 93.86 282.42 102.44 282.42C108.44 282.42 110.66 278.58 111.68 275.58ZM138.152 256.44C147.032 256.44 152.792 262.86 152.792 272.52C152.792 281.76 147.392 288.72 137.732 288.72C128.432 288.72 122.912 281.94 122.912 272.7C122.912 263.34 128.492 256.44 138.152 256.44ZM137.852 262.38C133.232 262.38 130.532 265.92 130.532 272.58C130.532 278.82 133.352 282.84 137.972 282.84C142.592 282.84 145.232 278.88 145.232 272.64C145.232 266.04 142.592 262.38 137.852 262.38ZM157.91 288V264.96C157.91 262.32 157.91 259.5 157.85 257.16H165.11C165.23 258 165.35 260.52 165.35 261.48C166.49 259.32 169.01 256.44 174.59 256.44C180.65 256.44 184.85 260.46 184.85 268.32V288H177.35V269.22C177.35 265.32 175.97 262.62 171.89 262.62C167.57 262.62 165.35 265.44 165.35 271.14V288H157.91ZM187.862 262.92V257.16H192.842V248.58H200.282V257.16H206.582V262.92H200.282V279.06C200.282 281.64 201.002 282.78 203.642 282.78C204.182 282.78 205.082 282.78 205.802 282.6V287.88C204.242 288.42 202.082 288.42 200.462 288.42C194.822 288.42 192.842 285.48 192.842 280.2V262.92H187.862ZM236.694 274.14H215.934C215.934 278.82 218.274 282.84 222.834 282.84C226.854 282.84 228.054 281.04 228.894 279H236.394C235.254 282.84 231.894 288.72 222.654 288.72C212.634 288.72 208.374 281.04 208.374 273C208.374 263.52 213.234 256.44 222.954 256.44C233.334 256.44 236.814 264.24 236.814 271.56C236.814 272.58 236.814 273.3 236.694 274.14ZM216.114 269.4H229.314C229.254 265.32 227.454 261.96 222.954 261.96C218.394 261.96 216.474 265.08 216.114 269.4ZM241.908 288V264.96C241.908 262.32 241.908 259.5 241.848 257.16H249.108C249.228 258 249.348 260.52 249.348 261.48C250.488 259.32 253.008 256.44 258.588 256.44C264.648 256.44 268.848 260.46 268.848 268.32V288H261.348V269.22C261.348 265.32 259.968 262.62 255.888 262.62C251.568 262.62 249.348 265.44 249.348 271.14V288H241.908ZM271.86 262.92V257.16H276.84V248.58H284.28V257.16H290.58V262.92H284.28V279.06C284.28 281.64 285 282.78 287.64 282.78C288.18 282.78 289.08 282.78 289.8 282.6V287.88C288.24 288.42 286.08 288.42 284.46 288.42C278.82 288.42 276.84 285.48 276.84 280.2V262.92H271.86ZM328.365 244.14H335.805V279.48C335.805 282.3 335.805 285.18 335.865 288H328.725C328.545 287.16 328.425 285.3 328.365 284.4C326.865 287.1 324.045 288.72 319.305 288.72C311.445 288.72 306.525 282.42 306.525 272.88C306.525 263.4 311.805 256.44 320.445 256.44C325.245 256.44 327.645 258.24 328.365 259.74V244.14ZM321.645 262.5C316.845 262.5 314.205 266.28 314.205 272.7C314.205 279.18 316.965 282.72 321.345 282.72C327.645 282.72 328.665 277.68 328.665 272.46C328.665 266.64 327.705 262.5 321.645 262.5ZM342.634 288V257.16H350.134V288H342.634ZM342.634 251.46V244.14H350.134V251.46H342.634ZM353.714 257.16H361.694C365.054 268.38 367.694 277.62 368.414 281.34H368.474C369.314 276.84 372.434 267.54 375.734 257.16H383.234L372.194 288H364.274L353.714 257.16ZM386.64 288V257.16H394.14V288H386.64ZM386.64 251.46V244.14H394.14V251.46H386.64ZM421.006 244.14H428.446V279.48C428.446 282.3 428.446 285.18 428.506 288H421.366C421.186 287.16 421.066 285.3 421.006 284.4C419.506 287.1 416.686 288.72 411.946 288.72C404.086 288.72 399.166 282.42 399.166 272.88C399.166 263.4 404.446 256.44 413.086 256.44C417.886 256.44 420.286 258.24 421.006 259.74V244.14ZM414.286 262.5C409.486 262.5 406.846 266.28 406.846 272.7C406.846 279.18 409.606 282.72 413.986 282.72C420.286 282.72 421.306 277.68 421.306 272.46C421.306 266.64 420.346 262.5 414.286 262.5ZM461.675 274.14H440.915C440.915 278.82 443.255 282.84 447.815 282.84C451.835 282.84 453.035 281.04 453.875 279H461.375C460.235 282.84 456.875 288.72 447.635 288.72C437.615 288.72 433.355 281.04 433.355 273C433.355 263.52 438.215 256.44 447.935 256.44C458.315 256.44 461.795 264.24 461.795 271.56C461.795 272.58 461.795 273.3 461.675 274.14ZM441.095 269.4H454.295C454.235 265.32 452.435 261.96 447.935 261.96C443.375 261.96 441.455 265.08 441.095 269.4ZM466.829 288V265.56C466.829 262.08 466.829 259.44 466.769 257.16H474.089C474.209 257.94 474.329 260.76 474.329 262.92C475.769 259.14 479.189 256.56 484.349 256.44V263.64C478.109 263.64 474.329 265.86 474.329 274.08V288H466.829ZM486.201 278.88H493.581C494.301 281.7 496.461 283.26 500.001 283.26C503.601 283.26 504.921 281.82 504.921 279.66C504.921 277.38 503.601 276.42 498.681 275.22C489.021 272.88 487.341 269.88 487.341 265.56C487.341 261.12 490.521 256.44 499.401 256.44C508.281 256.44 511.461 261.42 511.761 265.62H504.681C504.321 264.18 503.301 261.84 499.041 261.84C495.741 261.84 494.721 263.34 494.721 264.96C494.721 266.76 495.741 267.66 500.961 268.86C510.981 271.2 512.541 274.56 512.541 279.12C512.541 284.34 508.521 288.72 499.701 288.72C490.821 288.72 486.921 284.4 486.201 278.88Z" fill="#141414"/>
<path d="M81.82 356V342.1H83.66V354.42H90.92L90.66 356H81.82ZM96.8486 345.62C99.6686 345.62 101.509 347.74 101.509 350.92C101.509 353.84 99.8286 356.24 96.7286 356.24C93.8286 356.24 92.0686 354 92.0686 350.96C92.0686 347.96 93.7886 345.62 96.8486 345.62ZM96.7686 347.1C94.8686 347.1 93.8686 348.62 93.8686 350.94C93.8686 353.16 94.9886 354.78 96.8086 354.78C98.6686 354.78 99.7086 353.24 99.7086 350.94C99.7086 348.66 98.6686 347.1 96.7686 347.1ZM103.785 356V348.62C103.785 347.2 103.785 346.4 103.765 345.86H105.485C105.525 346.16 105.545 346.94 105.545 347.94C106.065 346.56 107.285 345.68 108.965 345.62V347.38C106.885 347.44 105.545 348.52 105.545 351.08V356H103.785ZM118.86 351.26H111.72C111.72 353.32 112.76 354.78 114.48 354.78C116.1 354.78 116.62 353.96 116.94 353.22H118.7C118.3 354.52 117.22 356.24 114.44 356.24C111.24 356.24 109.94 353.66 109.94 351.04C109.94 348.04 111.46 345.62 114.54 345.62C117.82 345.62 118.9 348.26 118.9 350.42C118.9 350.72 118.9 350.98 118.86 351.26ZM111.78 350.02H117.12C117.1 348.36 116.26 347.02 114.52 347.02C112.74 347.02 111.96 348.26 111.78 350.02ZM121.148 356V348.48C121.148 347.6 121.148 346.7 121.128 345.86H122.828C122.848 346.18 122.908 346.92 122.888 347.42C123.348 346.52 124.248 345.62 125.848 345.62C127.288 345.62 128.268 346.36 128.648 347.44C129.188 346.48 130.148 345.62 131.888 345.62C133.528 345.62 135.088 346.6 135.088 349.34V356H133.348V349.56C133.348 348.38 132.928 347.14 131.348 347.14C129.708 347.14 128.988 348.38 128.988 350.18V356H127.268V349.62C127.268 348.3 126.888 347.14 125.308 347.14C123.668 347.14 122.888 348.46 122.888 350.4V356H121.148ZM143.121 356V345.86H144.881V356H143.121ZM143.121 343.52V341.32H144.881V343.52H143.121ZM152.567 356.24C150.927 356.24 150.067 355.56 149.627 354.76V360H147.867V348.34C147.867 347.52 147.867 346.66 147.847 345.86H149.567C149.607 346.2 149.627 346.82 149.627 347.46C150.167 346.44 151.207 345.62 152.927 345.62C155.287 345.62 156.987 347.6 156.987 350.68C156.987 354.3 155.027 356.24 152.567 356.24ZM152.327 354.78C154.187 354.78 155.187 353.24 155.187 350.74C155.187 348.6 154.207 347.12 152.467 347.12C150.367 347.12 149.547 348.46 149.547 350.92C149.547 353.32 150.227 354.78 152.327 354.78ZM158.53 353.1H160.27C160.55 354.22 161.37 354.86 162.75 354.86C164.25 354.86 164.83 354.22 164.83 353.3C164.83 352.36 164.37 351.92 162.43 351.44C159.53 350.74 158.93 349.86 158.93 348.48C158.93 347.04 159.97 345.62 162.59 345.62C165.19 345.62 166.27 347.14 166.41 348.56H164.71C164.57 347.9 164.07 346.98 162.51 346.98C161.09 346.98 160.67 347.68 160.67 348.34C160.67 349.1 161.09 349.46 162.95 349.92C166.01 350.64 166.63 351.66 166.63 353.18C166.63 354.96 165.23 356.24 162.69 356.24C160.07 356.24 158.79 354.92 158.53 353.1ZM176.808 345.86V353.06C176.808 354.04 176.828 355.42 176.828 356H175.128C175.088 355.74 175.068 355.12 175.068 354.48C174.568 355.62 173.588 356.24 171.988 356.24C170.288 356.24 168.648 355.4 168.648 352.54V345.86H170.388V352.16C170.388 353.5 170.788 354.72 172.488 354.72C174.348 354.72 175.068 353.7 175.068 351.16V345.86H176.808ZM179.8 356V348.48C179.8 347.6 179.8 346.7 179.78 345.86H181.48C181.5 346.18 181.56 346.92 181.54 347.42C182 346.52 182.9 345.62 184.5 345.62C185.94 345.62 186.92 346.36 187.3 347.44C187.84 346.48 188.8 345.62 190.54 345.62C192.18 345.62 193.74 346.6 193.74 349.34V356H192V349.56C192 348.38 191.58 347.14 190 347.14C188.36 347.14 187.64 348.38 187.64 350.18V356H185.92V349.62C185.92 348.3 185.54 347.14 183.96 347.14C182.32 347.14 181.54 348.46 181.54 350.4V356H179.8ZM208.473 341.32H210.213V353.14C210.213 354.1 210.213 355.04 210.233 356H208.553C208.513 355.74 208.473 354.96 208.473 354.58C207.973 355.62 206.933 356.24 205.273 356.24C202.673 356.24 201.073 354.14 201.073 351.04C201.073 347.92 202.793 345.62 205.593 345.62C207.393 345.62 208.193 346.36 208.473 346.92V341.32ZM205.773 347.12C203.993 347.12 202.893 348.54 202.893 351C202.893 353.44 204.053 354.76 205.633 354.76C208.013 354.76 208.533 353.02 208.533 350.8C208.533 348.54 208.073 347.12 205.773 347.12ZM217.259 345.62C220.079 345.62 221.919 347.74 221.919 350.92C221.919 353.84 220.239 356.24 217.139 356.24C214.239 356.24 212.479 354 212.479 350.96C212.479 347.96 214.199 345.62 217.259 345.62ZM217.179 347.1C215.279 347.1 214.279 348.62 214.279 350.94C214.279 353.16 215.399 354.78 217.219 354.78C219.079 354.78 220.119 353.24 220.119 350.94C220.119 348.66 219.079 347.1 217.179 347.1ZM225.955 356H224.195V341.32H225.955V356ZM233.001 345.62C235.821 345.62 237.661 347.74 237.661 350.92C237.661 353.84 235.981 356.24 232.881 356.24C229.981 356.24 228.221 354 228.221 350.96C228.221 347.96 229.941 345.62 233.001 345.62ZM232.921 347.1C231.021 347.1 230.021 348.62 230.021 350.94C230.021 353.16 231.141 354.78 232.961 354.78C234.821 354.78 235.861 353.24 235.861 350.94C235.861 348.66 234.821 347.1 232.921 347.1ZM239.937 356V348.62C239.937 347.2 239.937 346.4 239.917 345.86H241.637C241.677 346.16 241.697 346.94 241.697 347.94C242.217 346.56 243.437 345.68 245.117 345.62V347.38C243.037 347.44 241.697 348.52 241.697 351.08V356H239.937ZM251.147 353.1H252.887C253.167 354.22 253.987 354.86 255.367 354.86C256.867 354.86 257.447 354.22 257.447 353.3C257.447 352.36 256.987 351.92 255.047 351.44C252.147 350.74 251.547 349.86 251.547 348.48C251.547 347.04 252.587 345.62 255.207 345.62C257.807 345.62 258.887 347.14 259.027 348.56H257.327C257.187 347.9 256.687 346.98 255.127 346.98C253.707 346.98 253.287 347.68 253.287 348.34C253.287 349.1 253.707 349.46 255.567 349.92C258.627 350.64 259.247 351.66 259.247 353.18C259.247 354.96 257.847 356.24 255.307 356.24C252.687 356.24 251.407 354.92 251.147 353.1ZM261.48 356V345.86H263.24V356H261.48ZM261.48 343.52V341.32H263.24V343.52H261.48ZM265.004 347.3V345.86H266.764V342.88H268.524V345.86H270.744V347.3H268.524V353.24C268.524 354.22 268.764 354.72 269.664 354.72C269.924 354.72 270.284 354.72 270.564 354.64V355.96C270.124 356.12 269.524 356.14 269.044 356.14C267.464 356.14 266.764 355.34 266.764 353.64V347.3H265.004ZM285.31 348.96V353.8C285.31 354.72 285.39 355.72 285.45 356H283.77C283.69 355.78 283.63 355.3 283.61 354.68C283.25 355.36 282.45 356.24 280.49 356.24C278.09 356.24 277.07 354.7 277.07 353.16C277.07 350.88 278.85 349.86 281.87 349.86C282.57 349.86 283.21 349.86 283.59 349.86V348.98C283.59 348.1 283.31 347 281.41 347C279.71 347 279.43 347.84 279.25 348.64H277.55C277.69 347.24 278.55 345.62 281.47 345.62C283.95 345.64 285.31 346.64 285.31 348.96ZM283.61 351.4V351.06C283.27 351.06 282.51 351.06 281.97 351.06C279.93 351.06 278.85 351.62 278.85 353.06C278.85 354.1 279.59 354.88 280.83 354.88C283.27 354.88 283.61 353.24 283.61 351.4ZM288.335 356V348.48C288.335 347.6 288.335 346.7 288.315 345.86H290.015C290.035 346.18 290.095 346.92 290.075 347.42C290.535 346.52 291.435 345.62 293.035 345.62C294.475 345.62 295.455 346.36 295.835 347.44C296.375 346.48 297.335 345.62 299.075 345.62C300.715 345.62 302.275 346.6 302.275 349.34V356H300.535V349.56C300.535 348.38 300.115 347.14 298.535 347.14C296.895 347.14 296.175 348.38 296.175 350.18V356H294.455V349.62C294.455 348.3 294.075 347.14 292.495 347.14C290.855 347.14 290.075 348.46 290.075 350.4V356H288.335ZM313.45 351.26H306.31C306.31 353.32 307.35 354.78 309.07 354.78C310.69 354.78 311.21 353.96 311.53 353.22H313.29C312.89 354.52 311.81 356.24 309.03 356.24C305.83 356.24 304.53 353.66 304.53 351.04C304.53 348.04 306.05 345.62 309.13 345.62C312.41 345.62 313.49 348.26 313.49 350.42C313.49 350.72 313.49 350.98 313.45 351.26ZM306.37 350.02H311.71C311.69 348.36 310.85 347.02 309.11 347.02C307.33 347.02 306.55 348.26 306.37 350.02ZM314.516 347.3V345.86H316.276V342.88H318.036V345.86H320.256V347.3H318.036V353.24C318.036 354.22 318.276 354.72 319.176 354.72C319.436 354.72 319.796 354.72 320.076 354.64V355.96C319.636 356.12 319.036 356.14 318.556 356.14C316.976 356.14 316.276 355.34 316.276 353.64V347.3H314.516ZM322.886 358.3H321.466C322.506 356.08 322.806 354.32 322.886 353.06H324.666C324.506 354.86 323.846 356.92 322.886 358.3ZM338.405 352.9H340.145C339.705 354.66 338.525 356.24 335.945 356.24C333.165 356.24 331.425 354.24 331.425 351C331.425 348.12 333.045 345.62 336.065 345.62C339.005 345.62 340.005 347.72 340.145 349.02H338.405C338.145 347.98 337.505 347.1 336.045 347.1C334.245 347.1 333.225 348.64 333.225 350.94C333.225 353.24 334.205 354.8 335.965 354.8C337.245 354.8 337.985 354.12 338.405 352.9ZM346.399 345.62C349.219 345.62 351.059 347.74 351.059 350.92C351.059 353.84 349.379 356.24 346.279 356.24C343.379 356.24 341.619 354 341.619 350.96C341.619 347.96 343.339 345.62 346.399 345.62ZM346.319 347.1C344.419 347.1 343.419 348.62 343.419 350.94C343.419 353.16 344.539 354.78 346.359 354.78C348.219 354.78 349.259 353.24 349.259 350.94C349.259 348.66 348.219 347.1 346.319 347.1ZM353.355 356V348.42C353.355 347.54 353.355 346.66 353.335 345.86H355.035C355.075 346.16 355.115 347.24 355.095 347.54C355.515 346.66 356.335 345.62 358.295 345.62C360.195 345.62 361.675 346.8 361.675 349.48V356H359.935V349.72C359.935 348.18 359.335 347.14 357.775 347.14C355.875 347.14 355.095 348.6 355.095 350.64V356H353.355ZM363.666 353.1H365.406C365.686 354.22 366.506 354.86 367.886 354.86C369.386 354.86 369.966 354.22 369.966 353.3C369.966 352.36 369.506 351.92 367.566 351.44C364.666 350.74 364.066 349.86 364.066 348.48C364.066 347.04 365.106 345.62 367.726 345.62C370.326 345.62 371.406 347.14 371.546 348.56H369.846C369.706 347.9 369.206 346.98 367.646 346.98C366.226 346.98 365.806 347.68 365.806 348.34C365.806 349.1 366.226 349.46 368.086 349.92C371.146 350.64 371.766 351.66 371.766 353.18C371.766 354.96 370.366 356.24 367.826 356.24C365.206 356.24 363.926 354.92 363.666 353.1ZM382.219 351.26H375.079C375.079 353.32 376.119 354.78 377.839 354.78C379.459 354.78 379.979 353.96 380.299 353.22H382.059C381.659 354.52 380.579 356.24 377.799 356.24C374.599 356.24 373.299 353.66 373.299 351.04C373.299 348.04 374.819 345.62 377.899 345.62C381.179 345.62 382.259 348.26 382.259 350.42C382.259 350.72 382.259 350.98 382.219 351.26ZM375.139 350.02H380.479C380.459 348.36 379.619 347.02 377.879 347.02C376.099 347.02 375.319 348.26 375.139 350.02ZM390.885 352.9H392.625C392.185 354.66 391.005 356.24 388.425 356.24C385.645 356.24 383.905 354.24 383.905 351C383.905 348.12 385.525 345.62 388.545 345.62C391.485 345.62 392.485 347.72 392.625 349.02H390.885C390.625 347.98 389.985 347.1 388.525 347.1C386.725 347.1 385.705 348.64 385.705 350.94C385.705 353.24 386.685 354.8 388.445 354.8C389.725 354.8 390.465 354.12 390.885 352.9ZM393.618 347.3V345.86H395.378V342.88H397.138V345.86H399.358V347.3H397.138V353.24C397.138 354.22 397.378 354.72 398.278 354.72C398.538 354.72 398.898 354.72 399.178 354.64V355.96C398.738 356.12 398.138 356.14 397.658 356.14C396.077 356.14 395.378 355.34 395.378 353.64V347.3H393.618ZM409.368 351.26H402.228C402.228 353.32 403.268 354.78 404.988 354.78C406.608 354.78 407.128 353.96 407.448 353.22H409.208C408.808 354.52 407.728 356.24 404.948 356.24C401.748 356.24 400.448 353.66 400.448 351.04C400.448 348.04 401.968 345.62 405.048 345.62C408.328 345.62 409.408 348.26 409.408 350.42C409.408 350.72 409.408 350.98 409.368 351.26ZM402.288 350.02H407.628C407.608 348.36 406.768 347.02 405.028 347.02C403.248 347.02 402.468 348.26 402.288 350.02ZM410.434 347.3V345.86H412.194V342.88H413.954V345.86H416.174V347.3H413.954V353.24C413.954 354.22 414.194 354.72 415.094 354.72C415.354 354.72 415.714 354.72 415.994 354.64V355.96C415.554 356.12 414.954 356.14 414.474 356.14C412.894 356.14 412.194 355.34 412.194 353.64V347.3H410.434ZM426.007 345.86V353.06C426.007 354.04 426.027 355.42 426.027 356H424.327C424.287 355.74 424.267 355.12 424.267 354.48C423.767 355.62 422.787 356.24 421.187 356.24C419.487 356.24 417.847 355.4 417.847 352.54V345.86H419.587V352.16C419.587 353.5 419.987 354.72 421.687 354.72C423.547 354.72 424.267 353.7 424.267 351.16V345.86H426.007ZM429 356V348.62C429 347.2 429 346.4 428.98 345.86H430.7C430.74 346.16 430.76 346.94 430.76 347.94C431.28 346.56 432.5 345.68 434.18 345.62V347.38C432.1 347.44 430.76 348.52 430.76 351.08V356H429ZM448.649 348.96V353.8C448.649 354.72 448.729 355.72 448.789 356H447.109C447.029 355.78 446.969 355.3 446.949 354.68C446.589 355.36 445.789 356.24 443.829 356.24C441.429 356.24 440.409 354.7 440.409 353.16C440.409 350.88 442.189 349.86 445.209 349.86C445.909 349.86 446.549 349.86 446.929 349.86V348.98C446.929 348.1 446.649 347 444.749 347C443.049 347 442.769 347.84 442.589 348.64H440.889C441.029 347.24 441.889 345.62 444.809 345.62C447.289 345.64 448.649 346.64 448.649 348.96ZM446.949 351.4V351.06C446.609 351.06 445.849 351.06 445.309 351.06C443.269 351.06 442.189 351.62 442.189 353.06C442.189 354.1 442.929 354.88 444.169 354.88C446.609 354.88 446.949 353.24 446.949 351.4ZM458.356 341.32H460.096V353.14C460.096 354.1 460.096 355.04 460.116 356H458.436C458.396 355.74 458.356 354.96 458.356 354.58C457.856 355.62 456.816 356.24 455.156 356.24C452.556 356.24 450.956 354.14 450.956 351.04C450.956 347.92 452.676 345.62 455.476 345.62C457.276 345.62 458.076 346.36 458.356 346.92V341.32ZM455.656 347.12C453.876 347.12 452.776 348.54 452.776 351C452.776 353.44 453.936 354.76 455.516 354.76C457.896 354.76 458.416 353.02 458.416 350.8C458.416 348.54 457.956 347.12 455.656 347.12ZM463.082 356V345.86H464.842V356H463.082ZM463.082 343.52V341.32H464.842V343.52H463.082ZM472.528 356.24C470.888 356.24 470.028 355.56 469.588 354.76V360H467.828V348.34C467.828 347.52 467.828 346.66 467.808 345.86H469.528C469.568 346.2 469.588 346.82 469.588 347.46C470.128 346.44 471.168 345.62 472.888 345.62C475.248 345.62 476.948 347.6 476.948 350.68C476.948 354.3 474.988 356.24 472.528 356.24ZM472.288 354.78C474.148 354.78 475.148 353.24 475.148 350.74C475.148 348.6 474.168 347.12 472.428 347.12C470.328 347.12 469.508 348.46 469.508 350.92C469.508 353.32 470.188 354.78 472.288 354.78ZM479.293 356V345.86H481.053V356H479.293ZM479.293 343.52V341.32H481.053V343.52H479.293ZM483.061 353.1H484.801C485.081 354.22 485.901 354.86 487.281 354.86C488.781 354.86 489.361 354.22 489.361 353.3C489.361 352.36 488.901 351.92 486.961 351.44C484.061 350.74 483.461 349.86 483.461 348.48C483.461 347.04 484.501 345.62 487.121 345.62C489.721 345.62 490.801 347.14 490.941 348.56H489.241C489.101 347.9 488.601 346.98 487.041 346.98C485.621 346.98 485.201 347.68 485.201 348.34C485.201 349.1 485.621 349.46 487.481 349.92C490.541 350.64 491.161 351.66 491.161 353.18C491.161 354.96 489.761 356.24 487.221 356.24C484.601 356.24 483.321 354.92 483.061 353.1ZM499.694 352.9H501.434C500.994 354.66 499.814 356.24 497.234 356.24C494.454 356.24 492.714 354.24 492.714 351C492.714 348.12 494.334 345.62 497.354 345.62C500.294 345.62 501.294 347.72 501.434 349.02H499.694C499.434 347.98 498.794 347.1 497.334 347.1C495.534 347.1 494.514 348.64 494.514 350.94C494.514 353.24 495.494 354.8 497.254 354.8C498.534 354.8 499.274 354.12 499.694 352.9ZM503.687 356V345.86H505.447V356H503.687ZM503.687 343.52V341.32H505.447V343.52H503.687ZM508.453 356V348.42C508.453 347.54 508.453 346.66 508.433 345.86H510.133C510.173 346.16 510.213 347.24 510.193 347.54C510.613 346.66 511.433 345.62 513.393 345.62C515.293 345.62 516.773 346.8 516.773 349.48V356H515.033V349.72C515.033 348.18 514.433 347.14 512.873 347.14C510.973 347.14 510.193 348.6 510.193 350.64V356H508.453ZM528.121 348.8V355.1C528.121 358.34 526.781 360.2 523.481 360.2C520.401 360.2 519.461 358.48 519.261 357.1H521.061C521.341 358.2 522.241 358.8 523.541 358.8C525.841 358.8 526.421 357.34 526.421 355V354.18C525.881 355.32 524.941 355.96 523.261 355.96C520.761 355.96 519.061 353.92 519.061 350.96C519.061 347.64 520.981 345.62 523.441 345.62C525.361 345.62 526.181 346.54 526.421 347.22C526.441 346.76 526.481 346.08 526.501 345.86H528.161C528.141 346.46 528.121 347.82 528.121 348.8ZM523.701 347.12C521.821 347.12 520.881 348.68 520.881 350.88C520.881 353.02 521.981 354.46 523.641 354.46C525.821 354.46 526.461 353 526.461 350.74C526.461 348.46 525.861 347.12 523.701 347.12ZM544.368 351.26H537.228C537.228 353.32 538.268 354.78 539.988 354.78C541.608 354.78 542.128 353.96 542.448 353.22H544.208C543.808 354.52 542.728 356.24 539.948 356.24C536.748 356.24 535.448 353.66 535.448 351.04C535.448 348.04 536.968 345.62 540.048 345.62C543.328 345.62 544.408 348.26 544.408 350.42C544.408 350.72 544.408 350.98 544.368 351.26ZM537.288 350.02H542.628C542.608 348.36 541.768 347.02 540.028 347.02C538.248 347.02 537.468 348.26 537.288 350.02ZM548.455 356H546.695V341.32H548.455V356ZM551.441 356V345.86H553.201V356H551.441ZM551.441 343.52V341.32H553.201V343.52H551.441ZM554.965 347.3V345.86H556.725V342.88H558.485V345.86H560.705V347.3H558.485V353.24C558.485 354.22 558.725 354.72 559.625 354.72C559.885 354.72 560.245 354.72 560.525 354.64V355.96C560.085 356.12 559.485 356.14 559.005 356.14C557.425 356.14 556.725 355.34 556.725 353.64V347.3H554.965ZM564.405 356H562.565V353.06H564.405V356ZM574.166 356H572.406V342.1H574.846C576.846 345.34 581.186 352.26 581.966 353.78H582.006C581.866 352 581.866 349.8 581.866 347.52V342.1H583.626V356H581.326C579.486 352.98 574.966 345.54 574.086 343.98H574.066C574.166 345.56 574.166 347.92 574.166 350.44V356ZM594.737 345.86V353.06C594.737 354.04 594.757 355.42 594.757 356H593.057C593.017 355.74 592.997 355.12 592.997 354.48C592.497 355.62 591.517 356.24 589.917 356.24C588.217 356.24 586.577 355.4 586.577 352.54V345.86H588.317V352.16C588.317 353.5 588.717 354.72 590.417 354.72C592.277 354.72 592.997 353.7 592.997 351.16V345.86H594.737ZM597.75 356V348.42C597.75 347.54 597.75 346.66 597.73 345.86H599.43C599.47 346.16 599.51 347.24 599.49 347.54C599.91 346.66 600.73 345.62 602.69 345.62C604.59 345.62 606.07 346.8 606.07 349.48V356H604.33V349.72C604.33 348.18 603.73 347.14 602.17 347.14C600.27 347.14 599.49 348.6 599.49 350.64V356H597.75ZM615.338 352.9H617.078C616.638 354.66 615.458 356.24 612.878 356.24C610.098 356.24 608.358 354.24 608.358 351C608.358 348.12 609.978 345.62 612.998 345.62C615.938 345.62 616.938 347.72 617.078 349.02H615.338C615.078 347.98 614.438 347.1 612.978 347.1C611.178 347.1 610.158 348.64 610.158 350.94C610.158 353.24 611.138 354.8 612.898 354.8C614.178 354.8 614.918 354.12 615.338 352.9ZM622.916 345.86H624.776C626.156 350.02 627.156 353.12 627.456 354.38H627.476C627.716 353.26 628.796 350.22 630.316 345.86H632.116L628.376 356H626.456L622.916 345.86ZM641.808 345.86V353.06C641.808 354.04 641.828 355.42 641.828 356H640.128C640.088 355.74 640.068 355.12 640.068 354.48C639.568 355.62 638.588 356.24 636.988 356.24C635.288 356.24 633.648 355.4 633.648 352.54V345.86H635.388V352.16C635.388 353.5 635.788 354.72 637.488 354.72C639.348 354.72 640.068 353.7 640.068 351.16V345.86H641.808ZM646.56 356H644.8V341.32H646.56V356ZM654.246 356.24C652.606 356.24 651.746 355.56 651.306 354.76V360H649.546V348.34C649.546 347.52 649.546 346.66 649.526 345.86H651.246C651.286 346.2 651.306 346.82 651.306 347.46C651.846 346.44 652.886 345.62 654.606 345.62C656.966 345.62 658.666 347.6 658.666 350.68C658.666 354.3 656.706 356.24 654.246 356.24ZM654.006 354.78C655.866 354.78 656.866 353.24 656.866 350.74C656.866 348.6 655.886 347.12 654.146 347.12C652.046 347.12 651.226 348.46 651.226 350.92C651.226 353.32 651.906 354.78 654.006 354.78ZM669.093 345.86V353.06C669.093 354.04 669.113 355.42 669.113 356H667.413C667.373 355.74 667.353 355.12 667.353 354.48C666.853 355.62 665.873 356.24 664.273 356.24C662.573 356.24 660.933 355.4 660.933 352.54V345.86H662.673V352.16C662.673 353.5 663.073 354.72 664.773 354.72C666.633 354.72 667.353 353.7 667.353 351.16V345.86H669.093ZM671 347.3V345.86H672.76V342.88H674.52V345.86H676.74V347.3H674.52V353.24C674.52 354.22 674.76 354.72 675.66 354.72C675.92 354.72 676.28 354.72 676.56 354.64V355.96C676.12 356.12 675.52 356.14 675.04 356.14C673.46 356.14 672.76 355.34 672.76 353.64V347.3H671ZM686.188 348.96V353.8C686.188 354.72 686.268 355.72 686.328 356H684.648C684.568 355.78 684.508 355.3 684.488 354.68C684.128 355.36 683.328 356.24 681.368 356.24C678.968 356.24 677.948 354.7 677.948 353.16C677.948 350.88 679.728 349.86 682.748 349.86C683.448 349.86 684.088 349.86 684.468 349.86V348.98C684.468 348.1 684.188 347 682.288 347C680.588 347 680.308 347.84 680.128 348.64H678.428C678.568 347.24 679.428 345.62 682.348 345.62C684.828 345.64 686.188 346.64 686.188 348.96ZM684.488 351.4V351.06C684.148 351.06 683.388 351.06 682.848 351.06C680.808 351.06 679.728 351.62 679.728 353.06C679.728 354.1 680.468 354.88 681.708 354.88C684.148 354.88 684.488 353.24 684.488 351.4ZM687.778 347.3V345.86H689.538V342.88H691.298V345.86H693.518V347.3H691.298V353.24C691.298 354.22 691.538 354.72 692.438 354.72C692.698 354.72 693.058 354.72 693.338 354.64V355.96C692.898 356.12 692.298 356.14 691.818 356.14C690.238 356.14 689.538 355.34 689.538 353.64V347.3H687.778ZM703.528 351.26H696.388C696.388 353.32 697.428 354.78 699.148 354.78C700.768 354.78 701.288 353.96 701.608 353.22H703.368C702.968 354.52 701.888 356.24 699.108 356.24C695.908 356.24 694.608 353.66 694.608 351.04C694.608 348.04 696.128 345.62 699.208 345.62C702.488 345.62 703.568 348.26 703.568 350.42C703.568 350.72 703.568 350.98 703.528 351.26ZM696.448 350.02H701.788C701.768 348.36 700.928 347.02 699.188 347.02C697.408 347.02 696.628 348.26 696.448 350.02ZM712.537 356H710.777V341.32H712.537V356ZM715.523 356V345.86H717.283V356H715.523ZM715.523 343.52V341.32H717.283V343.52H715.523ZM720.269 352.6V341.32H722.029V347.32C722.489 346.44 723.409 345.62 725.269 345.62C727.809 345.62 729.409 347.72 729.409 350.74C729.409 353.82 727.869 356.24 724.989 356.24C723.369 356.24 722.529 355.66 722.009 354.68C722.009 355.2 721.989 355.74 721.949 356H720.249C720.269 354.88 720.269 353.74 720.269 352.6ZM724.769 354.78C726.569 354.78 727.609 353.24 727.609 350.76C727.609 348.58 726.609 347.12 724.849 347.12C722.709 347.12 721.949 348.56 721.949 350.98C721.949 353.08 722.609 354.78 724.769 354.78ZM740.012 351.26H732.872C732.872 353.32 733.912 354.78 735.632 354.78C737.252 354.78 737.772 353.96 738.092 353.22H739.852C739.452 354.52 738.372 356.24 735.592 356.24C732.392 356.24 731.092 353.66 731.092 351.04C731.092 348.04 732.612 345.62 735.692 345.62C738.972 345.62 740.052 348.26 740.052 350.42C740.052 350.72 740.052 350.98 740.012 351.26ZM732.932 350.02H738.272C738.252 348.36 737.412 347.02 735.672 347.02C733.892 347.02 733.112 348.26 732.932 350.02ZM742.3 356V348.62C742.3 347.2 742.3 346.4 742.28 345.86H744C744.04 346.16 744.06 346.94 744.06 347.94C744.58 346.56 745.8 345.68 747.48 345.62V347.38C745.4 347.44 744.06 348.52 744.06 351.08V356H742.3ZM753.235 345.62C756.055 345.62 757.895 347.74 757.895 350.92C757.895 353.84 756.215 356.24 753.115 356.24C750.215 356.24 748.455 354 748.455 350.96C748.455 347.96 750.175 345.62 753.235 345.62ZM753.155 347.1C751.255 347.1 750.255 348.62 750.255 350.94C750.255 353.16 751.375 354.78 753.195 354.78C755.055 354.78 756.095 353.24 756.095 350.94C756.095 348.66 755.055 347.1 753.155 347.1ZM773.43 351.26H766.29C766.29 353.32 767.33 354.78 769.05 354.78C770.67 354.78 771.19 353.96 771.51 353.22H773.27C772.87 354.52 771.79 356.24 769.01 356.24C765.81 356.24 764.51 353.66 764.51 351.04C764.51 348.04 766.03 345.62 769.11 345.62C772.39 345.62 773.47 348.26 773.47 350.42C773.47 350.72 773.47 350.98 773.43 351.26ZM766.35 350.02H771.69C771.67 348.36 770.83 347.02 769.09 347.02C767.31 347.02 766.53 348.26 766.35 350.02ZM774.496 347.3V345.86H776.256V342.88H778.016V345.86H780.236V347.3H778.016V353.24C778.016 354.22 778.256 354.72 779.156 354.72C779.416 354.72 779.776 354.72 780.056 354.64V355.96C779.616 356.12 779.016 356.14 778.536 356.14C776.956 356.14 776.256 355.34 776.256 353.64V347.3H774.496ZM786.002 345.86H787.862C789.242 350.02 790.242 353.12 790.542 354.38H790.562C790.802 353.26 791.882 350.22 793.402 345.86H795.202L791.462 356H789.542L786.002 345.86ZM805.051 351.26H797.911C797.911 353.32 798.951 354.78 800.671 354.78C802.291 354.78 802.811 353.96 803.131 353.22H804.891C804.491 354.52 803.411 356.24 800.631 356.24C797.431 356.24 796.131 353.66 796.131 351.04C796.131 348.04 797.651 345.62 800.731 345.62C804.011 345.62 805.091 348.26 805.091 350.42C805.091 350.72 805.091 350.98 805.051 351.26ZM797.971 350.02H803.311C803.291 348.36 802.451 347.02 800.711 347.02C798.931 347.02 798.151 348.26 797.971 350.02ZM809.138 356H807.378V341.32H809.138V356ZM812.125 356V345.86H813.885V356H812.125ZM812.125 343.52V341.32H813.885V343.52H812.125ZM815.649 347.3V345.86H817.409V342.88H819.169V345.86H821.389V347.3H819.169V353.24C819.169 354.22 819.409 354.72 820.309 354.72C820.569 354.72 820.929 354.72 821.209 354.64V355.96C820.769 356.12 820.169 356.14 819.689 356.14C818.109 356.14 817.409 355.34 817.409 353.64V347.3H815.649ZM828.394 356V345.86H830.154V356H828.394ZM828.394 343.52V341.32H830.154V343.52H828.394ZM833.16 356V348.42C833.16 347.54 833.16 346.66 833.14 345.86H834.84C834.88 346.16 834.92 347.24 834.9 347.54C835.32 346.66 836.14 345.62 838.1 345.62C840 345.62 841.48 346.8 841.48 349.48V356H839.74V349.72C839.74 348.18 839.14 347.14 837.58 347.14C835.68 347.14 834.9 348.6 834.9 350.64V356H833.16ZM843.051 347.3V345.86H844.811V342.88H846.571V345.86H848.791V347.3H846.571V353.24C846.571 354.22 846.811 354.72 847.711 354.72C847.971 354.72 848.331 354.72 848.611 354.64V355.96C848.171 356.12 847.571 356.14 847.091 356.14C845.511 356.14 844.811 355.34 844.811 353.64V347.3H843.051ZM858.801 351.26H851.661C851.661 353.32 852.701 354.78 854.421 354.78C856.041 354.78 856.561 353.96 856.881 353.22H858.641C858.241 354.52 857.161 356.24 854.381 356.24C851.181 356.24 849.881 353.66 849.881 351.04C849.881 348.04 851.401 345.62 854.481 345.62C857.761 345.62 858.841 348.26 858.841 350.42C858.841 350.72 858.841 350.98 858.801 351.26ZM851.721 350.02H857.061C857.041 348.36 856.201 347.02 854.461 347.02C852.681 347.02 851.901 348.26 851.721 350.02ZM861.089 356V348.62C861.089 347.2 861.089 346.4 861.069 345.86H862.789C862.829 346.16 862.849 346.94 862.849 347.94C863.369 346.56 864.589 345.68 866.269 345.62V347.38C864.189 347.44 862.849 348.52 862.849 351.08V356H861.089ZM874.664 341.32H876.404V353.14C876.404 354.1 876.404 355.04 876.424 356H874.744C874.704 355.74 874.664 354.96 874.664 354.58C874.164 355.62 873.124 356.24 871.464 356.24C868.864 356.24 867.264 354.14 867.264 351.04C867.264 347.92 868.984 345.62 871.784 345.62C873.584 345.62 874.384 346.36 874.664 346.92V341.32ZM871.964 347.12C870.184 347.12 869.084 348.54 869.084 351C869.084 353.44 870.244 354.76 871.824 354.76C874.204 354.76 874.724 353.02 874.724 350.8C874.724 348.54 874.264 347.12 871.964 347.12ZM887.53 345.86V353.06C887.53 354.04 887.55 355.42 887.55 356H885.85C885.81 355.74 885.79 355.12 885.79 354.48C885.29 355.62 884.31 356.24 882.71 356.24C881.01 356.24 879.37 355.4 879.37 352.54V345.86H881.11V352.16C881.11 353.5 881.51 354.72 883.21 354.72C885.07 354.72 885.79 353.7 885.79 351.16V345.86H887.53ZM890.523 356V348.48C890.523 347.6 890.523 346.7 890.503 345.86H892.203C892.223 346.18 892.283 346.92 892.263 347.42C892.723 346.52 893.623 345.62 895.223 345.62C896.663 345.62 897.643 346.36 898.023 347.44C898.563 346.48 899.523 345.62 901.263 345.62C902.903 345.62 904.463 346.6 904.463 349.34V356H902.723V349.56C902.723 348.38 902.303 347.14 900.723 347.14C899.083 347.14 898.363 348.38 898.363 350.18V356H896.643V349.62C896.643 348.3 896.263 347.14 894.683 347.14C893.043 347.14 892.263 348.46 892.263 350.4V356H890.523ZM907.418 358.3H905.998C907.038 356.08 907.338 354.32 907.418 353.06H909.198C909.038 354.86 908.378 356.92 907.418 358.3ZM924.216 348.96V353.8C924.216 354.72 924.296 355.72 924.356 356H922.676C922.596 355.78 922.536 355.3 922.516 354.68C922.156 355.36 921.356 356.24 919.396 356.24C916.996 356.24 915.976 354.7 915.976 353.16C915.976 350.88 917.756 349.86 920.776 349.86C921.476 349.86 922.116 349.86 922.496 349.86V348.98C922.496 348.1 922.216 347 920.316 347C918.616 347 918.336 347.84 918.156 348.64H916.456C916.596 347.24 917.456 345.62 920.376 345.62C922.856 345.64 924.216 346.64 924.216 348.96ZM922.516 351.4V351.06C922.176 351.06 921.416 351.06 920.876 351.06C918.836 351.06 917.756 351.62 917.756 353.06C917.756 354.1 918.496 354.88 919.736 354.88C922.176 354.88 922.516 353.24 922.516 351.4ZM933.502 352.9H935.242C934.802 354.66 933.622 356.24 931.042 356.24C928.262 356.24 926.522 354.24 926.522 351C926.522 348.12 928.142 345.62 931.162 345.62C934.102 345.62 935.102 347.72 935.242 349.02H933.502C933.242 347.98 932.602 347.1 931.142 347.1C929.342 347.1 928.322 348.64 928.322 350.94C928.322 353.24 929.302 354.8 931.062 354.8C932.342 354.8 933.082 354.12 933.502 352.9ZM949.88 348.96V353.8C949.88 354.72 949.96 355.72 950.02 356H948.34C948.26 355.78 948.2 355.3 948.18 354.68C947.82 355.36 947.02 356.24 945.06 356.24C942.66 356.24 941.64 354.7 941.64 353.16C941.64 350.88 943.42 349.86 946.44 349.86C947.14 349.86 947.78 349.86 948.16 349.86V348.98C948.16 348.1 947.88 347 945.98 347C944.28 347 944 347.84 943.82 348.64H942.12C942.26 347.24 943.12 345.62 946.04 345.62C948.52 345.64 949.88 346.64 949.88 348.96ZM948.18 351.4V351.06C947.84 351.06 947.08 351.06 946.54 351.06C944.5 351.06 943.42 351.62 943.42 353.06C943.42 354.1 944.16 354.88 945.4 354.88C947.84 354.88 948.18 353.24 948.18 351.4ZM954.666 356H952.906V341.32H954.666V356ZM957.652 356V345.86H959.412V356H957.652ZM957.652 343.52V341.32H959.412V343.52H957.652ZM969.098 360V354.56C968.578 355.62 967.658 356.24 965.898 356.24C963.598 356.24 961.678 354.42 961.678 351.06C961.678 347.64 963.718 345.62 966.158 345.62C968.038 345.62 968.858 346.5 969.098 347.16C969.098 346.78 969.138 346.28 969.158 345.86H970.818C970.818 346.92 970.798 347.74 970.798 348.66V360H969.098ZM966.378 347.12C964.498 347.12 963.498 348.72 963.498 350.98C963.498 353.02 964.398 354.76 966.318 354.76C968.498 354.76 969.138 353.26 969.138 350.9C969.138 348.5 968.578 347.12 966.378 347.12ZM981.944 345.86V353.06C981.944 354.04 981.964 355.42 981.964 356H980.264C980.224 355.74 980.204 355.12 980.204 354.48C979.704 355.62 978.724 356.24 977.124 356.24C975.424 356.24 973.784 355.4 973.784 352.54V345.86H975.524V352.16C975.524 353.5 975.924 354.72 977.624 354.72C979.484 354.72 980.204 353.7 980.204 351.16V345.86H981.944ZM993.157 351.26H986.017C986.017 353.32 987.057 354.78 988.777 354.78C990.397 354.78 990.917 353.96 991.237 353.22H992.997C992.597 354.52 991.517 356.24 988.737 356.24C985.537 356.24 984.237 353.66 984.237 351.04C984.237 348.04 985.757 345.62 988.837 345.62C992.117 345.62 993.197 348.26 993.197 350.42C993.197 350.72 993.197 350.98 993.157 351.26ZM986.077 350.02H991.417C991.397 348.36 990.557 347.02 988.817 347.02C987.037 347.02 986.257 348.26 986.077 350.02ZM994.223 347.3V345.86H995.983V342.88H997.743V345.86H999.963V347.3H997.743V353.24C997.743 354.22 997.983 354.72 998.883 354.72C999.143 354.72 999.503 354.72 999.783 354.64V355.96C999.343 356.12 998.743 356.14 998.263 356.14C996.683 356.14 995.983 355.34 995.983 353.64V347.3H994.223ZM1011.03 345.62C1013.85 345.62 1015.69 347.74 1015.69 350.92C1015.69 353.84 1014.01 356.24 1010.91 356.24C1008.01 356.24 1006.25 354 1006.25 350.96C1006.25 347.96 1007.97 345.62 1011.03 345.62ZM1010.95 347.1C1009.05 347.1 1008.05 348.62 1008.05 350.94C1008.05 353.16 1009.17 354.78 1010.99 354.78C1012.85 354.78 1013.89 353.24 1013.89 350.94C1013.89 348.66 1012.85 347.1 1010.95 347.1ZM1024.78 341.32H1026.52V353.14C1026.52 354.1 1026.52 355.04 1026.54 356H1024.86C1024.82 355.74 1024.78 354.96 1024.78 354.58C1024.28 355.62 1023.24 356.24 1021.58 356.24C1018.98 356.24 1017.38 354.14 1017.38 351.04C1017.38 347.92 1019.1 345.62 1021.9 345.62C1023.7 345.62 1024.5 346.36 1024.78 346.92V341.32ZM1022.08 347.12C1020.3 347.12 1019.2 348.54 1019.2 351C1019.2 353.44 1020.36 354.76 1021.94 354.76C1024.32 354.76 1024.84 353.02 1024.84 350.8C1024.84 348.54 1024.38 347.12 1022.08 347.12ZM1029.51 356V345.86H1031.27V356H1029.51ZM1029.51 343.52V341.32H1031.27V343.52H1029.51ZM1038.31 345.62C1041.13 345.62 1042.97 347.74 1042.97 350.92C1042.97 353.84 1041.29 356.24 1038.19 356.24C1035.29 356.24 1033.53 354 1033.53 350.96C1033.53 347.96 1035.25 345.62 1038.31 345.62ZM1038.23 347.1C1036.33 347.1 1035.33 348.62 1035.33 350.94C1035.33 353.16 1036.45 354.78 1038.27 354.78C1040.13 354.78 1041.17 353.24 1041.17 350.94C1041.17 348.66 1040.13 347.1 1038.23 347.1ZM81.48 386V378.48C81.48 377.6 81.48 376.7 81.46 375.86H83.16C83.18 376.18 83.24 376.92 83.22 377.42C83.68 376.52 84.58 375.62 86.18 375.62C87.62 375.62 88.6 376.36 88.98 377.44C89.52 376.48 90.48 375.62 92.22 375.62C93.86 375.62 95.42 376.6 95.42 379.34V386H93.68V379.56C93.68 378.38 93.26 377.14 91.68 377.14C90.04 377.14 89.32 378.38 89.32 380.18V386H87.6V379.62C87.6 378.3 87.22 377.14 85.64 377.14C84 377.14 83.22 378.46 83.22 380.4V386H81.48ZM105.837 378.96V383.8C105.837 384.72 105.917 385.72 105.977 386H104.297C104.217 385.78 104.157 385.3 104.137 384.68C103.777 385.36 102.977 386.24 101.017 386.24C98.6169 386.24 97.5969 384.7 97.5969 383.16C97.5969 380.88 99.3769 379.86 102.397 379.86C103.097 379.86 103.737 379.86 104.117 379.86V378.98C104.117 378.1 103.837 377 101.937 377C100.237 377 99.9569 377.84 99.7769 378.64H98.0769C98.2169 377.24 99.0769 375.62 101.997 375.62C104.477 375.64 105.837 376.64 105.837 378.96ZM104.137 381.4V381.06C103.797 381.06 103.037 381.06 102.497 381.06C100.457 381.06 99.3769 381.62 99.3769 383.06C99.3769 384.1 100.117 384.88 101.357 384.88C103.797 384.88 104.137 383.24 104.137 381.4ZM107.426 377.3V375.86H109.186V372.88H110.946V375.86H113.166V377.3H110.946V383.24C110.946 384.22 111.186 384.72 112.086 384.72C112.346 384.72 112.706 384.72 112.986 384.64V385.96C112.546 386.12 111.946 386.14 111.466 386.14C109.886 386.14 109.186 385.34 109.186 383.64V377.3H107.426ZM113.52 377.3V375.86H115.28V372.88H117.04V375.86H119.26V377.3H117.04V383.24C117.04 384.22 117.28 384.72 118.18 384.72C118.44 384.72 118.8 384.72 119.08 384.64V385.96C118.64 386.12 118.04 386.14 117.56 386.14C115.98 386.14 115.28 385.34 115.28 383.64V377.3H113.52ZM121.128 386V375.86H122.888V386H121.128ZM121.128 373.52V371.32H122.888V373.52H121.128ZM124.897 383.1H126.637C126.917 384.22 127.737 384.86 129.117 384.86C130.617 384.86 131.197 384.22 131.197 383.3C131.197 382.36 130.737 381.92 128.797 381.44C125.897 380.74 125.297 379.86 125.297 378.48C125.297 377.04 126.337 375.62 128.957 375.62C131.557 375.62 132.637 377.14 132.777 378.56H131.077C130.937 377.9 130.437 376.98 128.877 376.98C127.457 376.98 127.037 377.68 127.037 378.34C127.037 379.1 127.457 379.46 129.317 379.92C132.377 380.64 132.997 381.66 132.997 383.18C132.997 384.96 131.597 386.24 129.057 386.24C126.437 386.24 125.157 384.92 124.897 383.1ZM136.963 386H135.123V383.06H136.963V386Z" fill="#525252"/>
<path d="M81.44 422.22H84.44V430.44C84.44 433.08 85.8 433.86 87.28 433.86C88.98 433.86 90.06 432.94 90.06 430.44V422.22H93.04V430.28C93.04 435 90.28 436.2 87.24 436.2C84.12 436.2 81.44 434.96 81.44 430.34V422.22ZM88.44 418.28H91.92L88.38 421.04H85.7L88.44 418.28ZM98.4564 436H95.5964V421.42H98.4564V436ZM100.065 427.82V425.66H101.645V422.86H104.525V425.66H106.545V427.82H104.525V432.92C104.525 433.7 104.765 434.02 105.605 434.02C105.765 434.02 106.045 434.02 106.265 433.98V435.96C105.705 436.14 104.925 436.14 104.345 436.14C102.325 436.14 101.645 435.06 101.645 433.26V427.82H100.065ZM108.155 436V425.66H111.015V436H108.155ZM108.155 423.96V421.42H111.015V423.96H108.155ZM113.604 436V428.32C113.604 427.44 113.604 426.54 113.584 425.66H116.324C116.364 425.9 116.424 426.48 116.424 426.9C116.964 426.12 117.784 425.42 119.304 425.42C120.804 425.42 121.624 426.18 121.984 427C122.584 426.14 123.484 425.42 125.164 425.42C126.984 425.42 128.444 426.52 128.444 429.22V436H125.664V429.56C125.664 428.64 125.324 427.72 124.144 427.72C122.924 427.72 122.444 428.5 122.444 430.1V436H119.644V429.68C119.644 428.6 119.384 427.74 118.144 427.74C116.984 427.74 116.424 428.46 116.424 430.22V436H113.604ZM139.489 428.98V433.34C139.489 434.32 139.569 435.76 139.629 436H136.889C136.809 435.8 136.749 435.26 136.749 435C136.369 435.58 135.669 436.24 133.849 436.24C131.349 436.24 130.289 434.6 130.289 433C130.289 430.64 132.189 429.56 135.229 429.56C135.729 429.56 136.349 429.56 136.689 429.56V428.92C136.689 428.18 136.429 427.46 135.109 427.46C133.889 427.46 133.629 427.98 133.489 428.72H130.769C130.929 426.88 132.069 425.4 135.209 425.42C137.989 425.44 139.489 426.52 139.489 428.98ZM136.689 431.56V431.3C136.469 431.3 135.909 431.3 135.529 431.3C133.809 431.3 133.169 431.82 133.169 432.82C133.169 433.58 133.629 434.2 134.649 434.2C136.469 434.2 136.689 432.94 136.689 431.56ZM155.505 428.98V433.34C155.505 434.32 155.585 435.76 155.645 436H152.905C152.825 435.8 152.765 435.26 152.765 435C152.385 435.58 151.685 436.24 149.865 436.24C147.365 436.24 146.305 434.6 146.305 433C146.305 430.64 148.205 429.56 151.245 429.56C151.745 429.56 152.365 429.56 152.705 429.56V428.92C152.705 428.18 152.445 427.46 151.125 427.46C149.905 427.46 149.645 427.98 149.505 428.72H146.785C146.945 426.88 148.085 425.4 151.225 425.42C154.005 425.44 155.505 426.52 155.505 428.98ZM152.705 431.56V431.3C152.485 431.3 151.925 431.3 151.545 431.3C149.825 431.3 149.185 431.82 149.185 432.82C149.185 433.58 149.645 434.2 150.665 434.2C152.485 434.2 152.705 432.94 152.705 431.56ZM156.901 427.82V425.66H158.481V422.86H161.361V425.66H163.381V427.82H161.361V432.92C161.361 433.7 161.601 434.02 162.441 434.02C162.601 434.02 162.881 434.02 163.101 433.98V435.96C162.541 436.14 161.761 436.14 161.181 436.14C159.161 436.14 158.481 435.06 158.481 433.26V427.82H156.901ZM174.072 425.66V433C174.072 434 174.072 435.08 174.092 436H171.272C171.232 435.74 171.212 435.18 171.192 434.82C170.592 435.86 169.672 436.24 168.352 436.24C166.232 436.24 164.892 434.96 164.892 432.4V425.66H167.752V431.82C167.752 432.96 168.112 433.92 169.352 433.92C170.652 433.92 171.192 433.22 171.192 431.16V425.66H174.072ZM185.231 428.98V433.34C185.231 434.32 185.311 435.76 185.371 436H182.631C182.551 435.8 182.491 435.26 182.491 435C182.111 435.58 181.411 436.24 179.591 436.24C177.091 436.24 176.031 434.6 176.031 433C176.031 430.64 177.931 429.56 180.971 429.56C181.471 429.56 182.091 429.56 182.431 429.56V428.92C182.431 428.18 182.171 427.46 180.851 427.46C179.631 427.46 179.371 427.98 179.231 428.72H176.511C176.671 426.88 177.811 425.4 180.951 425.42C183.731 425.44 185.231 426.52 185.231 428.98ZM182.431 431.56V431.3C182.211 431.3 181.651 431.3 181.271 431.3C179.551 431.3 178.911 431.82 178.911 432.82C178.911 433.58 179.371 434.2 180.391 434.2C182.211 434.2 182.431 432.94 182.431 431.56ZM190.683 436H187.823V421.42H190.683V436ZM193.272 436V425.66H196.132V436H193.272ZM193.272 423.96V421.42H196.132V423.96H193.272ZM198.041 436V433.86L203.181 427.92H198.301V425.66H206.401V427.88L201.381 433.74H206.761L206.421 436H198.041ZM217.126 428.98V433.34C217.126 434.32 217.206 435.76 217.266 436H214.526C214.446 435.8 214.386 435.26 214.386 435C214.006 435.58 213.306 436.24 211.486 436.24C208.986 436.24 207.926 434.6 207.926 433C207.926 430.64 209.826 429.56 212.866 429.56C213.366 429.56 213.986 429.56 214.326 429.56V428.92C214.326 428.18 214.066 427.46 212.746 427.46C211.526 427.46 211.266 427.98 211.126 428.72H208.406C208.566 426.88 209.706 425.4 212.846 425.42C215.626 425.44 217.126 426.52 217.126 428.98ZM214.326 431.56V431.3C214.106 431.3 213.546 431.3 213.166 431.3C211.446 431.3 210.806 431.82 210.806 432.82C210.806 433.58 211.266 434.2 212.286 434.2C214.106 434.2 214.326 432.94 214.326 431.56ZM225.799 432.66H228.619C228.259 434.38 227.059 436.24 223.959 436.24C220.739 436.24 219.079 434.02 219.079 430.9C219.079 427.86 220.959 425.42 224.099 425.42C227.599 425.42 228.559 427.92 228.619 429.1H225.819C225.639 428.26 225.159 427.66 224.039 427.66C222.739 427.66 221.999 428.8 221.999 430.82C221.999 433.02 222.779 434.02 224.039 434.02C225.019 434.02 225.539 433.44 225.799 432.66ZM223.599 435.8L225.399 436L224.559 436.94C225.239 437.1 226.279 437.5 226.279 438.82C226.279 440.56 224.659 440.92 223.439 440.92C222.839 440.92 222.259 440.82 221.979 440.7V439.18C222.239 439.24 222.879 439.3 223.079 439.3C223.759 439.3 223.939 439.14 223.939 438.8C223.939 438.24 223.079 438.14 222.219 438.12V437.42L223.599 435.8ZM239.02 428.98V433.34C239.02 434.32 239.1 435.76 239.16 436H236.42C236.34 435.8 236.28 435.26 236.28 435C235.9 435.58 235.2 436.24 233.38 436.24C230.88 436.24 229.82 434.6 229.82 433C229.82 430.64 231.72 429.56 234.76 429.56C235.26 429.56 235.88 429.56 236.22 429.56V428.92C236.22 428.18 235.96 427.46 234.64 427.46C233.42 427.46 233.16 427.98 233.02 428.72H230.3C230.46 426.88 231.6 425.4 234.74 425.42C237.52 425.44 239.02 426.52 239.02 428.98ZM236.22 431.56V431.3C236 431.3 235.44 431.3 235.06 431.3C233.34 431.3 232.7 431.82 232.7 432.82C232.7 433.58 233.16 434.2 234.18 434.2C236 434.2 236.22 432.94 236.22 431.56ZM233.16 424.24H231.32V423.54C231.32 421.92 232.08 421.36 233.18 421.36C234.38 421.36 235.24 422.2 235.88 422.2C236.2 422.2 236.38 422.06 236.38 421.5V421.34H238.18V421.88C238.18 423.76 237.34 424.28 236.22 424.28C234.98 424.28 234.24 423.46 233.6 423.46C233.32 423.46 233.16 423.6 233.16 423.94V424.24ZM246.173 425.42C249.213 425.42 251.173 427.56 251.173 430.82C251.173 433.94 249.313 436.24 246.033 436.24C242.813 436.24 240.953 433.96 240.953 430.86C240.953 427.68 242.873 425.42 246.173 425.42ZM246.053 427.66C244.713 427.66 243.853 428.64 243.853 430.84C243.853 432.82 244.713 434 246.093 434C247.493 434 248.273 432.82 248.273 430.86C248.273 428.68 247.473 427.66 246.053 427.66ZM256.667 436H253.667V432.68H256.667V436ZM256.667 429.08H253.667V425.74H256.667V429.08ZM265.004 436V422.1H269.984C273.884 422.1 276.544 424.76 276.544 428.92C276.544 433.02 273.964 436 269.924 436H265.004ZM266.844 423.66V434.44H269.764C273.044 434.44 274.604 432.1 274.604 428.94C274.604 426.2 273.184 423.66 269.784 423.66H266.844ZM279.418 436V422.1H284.398C288.298 422.1 290.958 424.76 290.958 428.92C290.958 433.02 288.378 436 284.338 436H279.418ZM281.258 423.66V434.44H284.178C287.458 434.44 289.018 432.1 289.018 428.94C289.018 426.2 287.598 423.66 284.198 423.66H281.258ZM294.472 437.02H292.892L298.492 421.9H300.052L294.472 437.02ZM314.677 436V430.08C314.677 427.5 314.697 424.86 314.757 423.4H314.677C314.097 425.66 311.837 431.64 310.237 436H308.597C307.377 432.44 305.057 425.76 304.417 423.38H304.357C304.477 424.98 304.517 428.08 304.517 430.46V436H302.777V422.1H305.537C307.117 426.42 309.037 431.98 309.517 433.76H309.557C309.877 432.42 312.157 426.3 313.797 422.1H316.477V436H314.677ZM332.158 436V430.08C332.158 427.5 332.178 424.86 332.238 423.4H332.158C331.578 425.66 329.318 431.64 327.718 436H326.078C324.858 432.44 322.538 425.76 321.898 423.38H321.838C321.958 424.98 321.998 428.08 321.998 430.46V436H320.258V422.1H323.018C324.598 426.42 326.518 431.98 326.998 433.76H327.038C327.358 432.42 329.638 426.3 331.278 422.1H333.958V436H332.158ZM338.261 437.02H336.681L342.281 421.9H343.841L338.261 437.02ZM354.026 431.84H348.466L346.966 436H345.126L350.086 422.1H352.366L357.526 436H355.566L354.026 431.84ZM348.946 430.26H353.546C352.226 426.6 351.486 424.66 351.186 423.6H351.166C350.826 424.78 350.026 427.12 348.946 430.26ZM367.405 431.84H361.845L360.345 436H358.505L363.465 422.1H365.745L370.905 436H368.945L367.405 431.84ZM362.325 430.26H366.925C365.605 426.6 364.865 424.66 364.565 423.6H364.545C364.205 424.78 363.405 427.12 362.325 430.26Z" fill="#525252"/>
<defs>
<filter id="filter0_dd_1550_265865" x="76.625" y="77.75" width="42.75" height="42.75" filterUnits="userSpaceOnUse" color-interpolation-filters="sRGB">
<feFlood flood-opacity="0" result="BackgroundImageFix"/>
<feColorMatrix in="SourceAlpha" type="matrix" values="0 0 0 0 0 0 0 0 0 0 0 0 0 0 0 0 0 0 127 0" result="hardAlpha"/>
<feOffset dy="1.125"/>
<feGaussianBlur stdDeviation="1.125"/>
<feColorMatrix type="matrix" values="0 0 0 0 0.0627451 0 0 0 0 0.0941176 0 0 0 0 0.156863 0 0 0 0.06 0"/>
<feBlend mode="normal" in2="BackgroundImageFix" result="effect1_dropShadow_1550_265865"/>
<feColorMatrix in="SourceAlpha" type="matrix" values="0 0 0 0 0 0 0 0 0 0 0 0 0 0 0 0 0 0 127 0" result="hardAlpha"/>
<feOffset dy="1.125"/>
<feGaussianBlur stdDeviation="1.6875"/>
<feColorMatrix type="matrix" values="0 0 0 0 0.0627451 0 0 0 0 0.0941176 0 0 0 0 0.156863 0 0 0 0.1 0"/>
<feBlend mode="normal" in2="effect1_dropShadow_1550_265865" result="effect2_dropShadow_1550_265865"/>
<feBlend mode="normal" in="SourceGraphic" in2="effect2_dropShadow_1550_265865" result="shape"/>
</filter>
<linearGradient id="paint0_linear_1550_265865" x1="87.0537" y1="94.2783" x2="103.757" y2="104.245" gradientUnits="userSpaceOnUse">
<stop offset="0.35" stop-color="#AECC56"/>
<stop offset="0.66" stop-color="#60AB56"/>
</linearGradient>
</defs>
</svg>
