<svg width="1122" height="1080" viewBox="0 0 1122 1080" fill="none" xmlns="http://www.w3.org/2000/svg">
<rect x="234" y="211.5" width="2.25" height="1.125" fill="#17450F"/>
<g clip-path="url(#clip0_19907_178026)">
<path d="M408.71 340.832C408.734 344.812 410.745 347.43 413.855 347.43C416.572 347.43 417.639 346.084 418.246 344.837C418.353 344.615 418.591 344.476 418.845 344.476H419.748C420.224 344.476 420.568 344.968 420.371 345.403C419.485 347.389 417.598 349.424 413.782 349.424C408.505 349.424 406.412 345.001 406.412 340.627C406.412 335.653 408.899 331.517 413.978 331.517C419.354 331.517 421.094 336.006 421.094 339.42C421.094 339.683 421.094 339.929 421.094 340.175C421.085 340.545 420.782 340.832 420.421 340.832H408.726H408.71ZM418.755 339.067C418.722 335.949 417.072 333.462 413.921 333.462C410.77 333.462 409.161 335.752 408.817 339.067H418.755Z" fill="white"/>
<path d="M424.631 336.171C424.631 334.923 424.631 333.7 424.614 332.543C424.614 332.166 424.91 331.862 425.287 331.862H426.198C426.559 331.862 426.855 332.141 426.871 332.502C426.912 333.315 426.928 334.537 426.912 334.907C427.634 333.29 429.029 331.452 432.451 331.452C435.57 331.452 438.18 333.274 438.18 337.91V348.275C438.18 348.644 437.876 348.948 437.507 348.948H436.579C436.21 348.948 435.906 348.644 435.906 348.275V338.23C435.906 335.399 434.757 333.528 431.951 333.528C428.266 333.528 426.912 336.491 426.912 340.077V348.267C426.912 348.636 426.608 348.94 426.239 348.94H425.312C424.942 348.94 424.639 348.636 424.639 348.267V336.154L424.631 336.171Z" fill="white"/>
<path d="M443.777 340.832C443.801 344.812 445.812 347.43 448.914 347.43C451.63 347.43 452.697 346.084 453.304 344.837C453.411 344.615 453.649 344.476 453.903 344.476H454.806C455.282 344.476 455.627 344.968 455.43 345.403C454.535 347.389 452.656 349.424 448.84 349.424C443.563 349.424 441.47 345.001 441.47 340.627C441.47 335.653 443.957 331.517 449.037 331.517C454.412 331.517 456.152 336.006 456.152 339.42C456.152 339.683 456.152 339.929 456.152 340.175C456.144 340.545 455.84 340.832 455.479 340.832H443.785H443.777ZM453.813 339.067C453.78 335.949 452.131 333.462 448.979 333.462C445.828 333.462 444.22 335.752 443.875 339.067H453.813Z" fill="white"/>
<path d="M459.665 336.581C459.665 334.611 459.648 333.397 459.64 332.609C459.64 332.231 459.935 331.936 460.313 331.936H461.224C461.585 331.936 461.88 332.215 461.897 332.576C461.921 333.233 461.938 334.234 461.938 335.612C462.791 333.397 464.605 331.944 467.009 331.608C467.42 331.55 467.797 331.854 467.797 332.272V333.265C467.797 333.61 467.526 333.889 467.182 333.93C463.998 334.316 461.938 336.474 461.938 340.413V348.357C461.938 348.727 461.634 349.03 461.265 349.03H460.337C459.968 349.03 459.665 348.727 459.665 348.357V336.589V336.581Z" fill="white"/>
<path d="M483.267 347.684C483.267 353.158 480.911 356.137 475.676 356.137C471.433 356.137 469.594 354.028 468.979 351.82C468.864 351.402 469.192 350.983 469.635 350.983H470.637C470.932 350.983 471.17 351.18 471.277 351.451C471.958 353.273 473.616 354.184 475.774 354.184C479.959 354.184 481.067 351.5 481.067 347.348V345.748C480.148 347.832 478.523 348.973 475.528 348.973C471.433 348.973 468.454 345.641 468.454 340.479C468.454 334.808 471.72 331.517 475.799 331.517C479.18 331.517 480.632 333.109 481.067 334.373C481.092 333.791 481.116 333.085 481.149 332.568C481.166 332.207 481.461 331.928 481.822 331.928H482.659C483.037 331.928 483.34 332.231 483.332 332.609C483.316 333.709 483.283 335.571 483.283 336.876V347.684H483.267ZM470.834 340.397C470.834 344.254 472.861 346.962 475.914 346.962C479.918 346.962 481.116 344.287 481.116 340.142C481.116 335.998 479.91 333.544 476.012 333.544C472.434 333.544 470.825 336.589 470.825 340.397H470.834Z" fill="white"/>
<path d="M488.314 331.936H489.241C489.61 331.936 489.914 332.24 489.914 332.609V348.349C489.914 348.718 489.61 349.022 489.241 349.022H488.314C487.944 349.022 487.641 348.718 487.641 348.349V332.609C487.641 332.24 487.944 331.936 488.314 331.936Z" fill="white"/>
<path d="M507.033 345.559C507.033 346.601 507.098 347.594 507.164 348.283C507.205 348.686 506.893 349.03 506.499 349.03H505.621C505.293 349.03 505.014 348.8 504.957 348.472C504.883 348.029 504.825 347.414 504.792 346.576C504.202 347.783 502.765 349.432 499.335 349.432C495.338 349.432 493.631 346.839 493.631 344.262C493.631 340.479 496.578 338.756 501.682 338.756H504.776V337.147C504.776 335.53 504.275 333.446 500.697 333.446C497.882 333.446 497.169 334.726 496.799 335.974C496.717 336.261 496.455 336.45 496.159 336.45H495.232C494.805 336.45 494.477 336.056 494.575 335.645C495.027 333.7 496.545 331.534 500.763 331.534C504.784 331.534 507.033 333.208 507.033 337.024V345.559ZM504.801 340.479H501.715C498.096 340.479 495.987 341.447 495.987 344.147C495.987 346.125 497.382 347.52 499.639 347.52C504.177 347.52 504.801 344.492 504.801 341.07V340.487V340.479Z" fill="white"/>
<path d="M355.457 309.532C356.024 309.532 356.434 310.074 356.278 310.615C355.072 314.784 351.797 318.904 344.37 318.904C335.942 318.904 331.609 313.069 331.609 304.936C331.609 296.804 336.484 290.575 344.731 290.575C352.979 290.575 355.827 295.884 356.426 299.183C356.524 299.709 356.122 300.193 355.589 300.193H349.893C349.524 300.193 349.187 299.963 349.089 299.61C348.531 297.723 347.259 296.451 344.592 296.451C341.17 296.451 339.225 299.454 339.225 304.706C339.225 310.468 341.276 313.094 344.559 313.094C346.914 313.094 348.277 311.813 348.999 310.041C349.122 309.729 349.442 309.54 349.778 309.54H355.457V309.532Z" fill="white"/>
<path d="M386.125 304.69C386.125 312.88 381.226 318.904 372.65 318.904C364.074 318.904 359.355 312.913 359.355 304.83C359.355 296.746 364.411 290.575 373.003 290.575C380.972 290.575 386.125 296.196 386.125 304.69ZM366.955 304.739C366.955 309.95 369.195 313.036 372.806 313.036C376.417 313.036 378.518 309.95 378.518 304.78C378.518 299.118 376.442 296.434 372.708 296.434C369.228 296.434 366.963 299.011 366.963 304.731L366.955 304.739Z" fill="white"/>
<path d="M390.647 298.182C390.647 296.131 390.647 294.095 390.614 292.068C390.606 291.592 390.984 291.207 391.46 291.207H397.007C397.442 291.207 397.803 291.527 397.852 291.962C397.935 292.7 398.017 293.685 398.049 294.44C399.42 292.421 401.603 290.583 405.575 290.583C409.547 290.583 411.607 292.602 412.559 294.703C414.143 292.487 416.481 290.583 420.897 290.583C425.615 290.583 429.481 293.48 429.481 300.521V317.427C429.481 317.894 429.103 318.28 428.627 318.28H423.022C422.554 318.28 422.169 317.903 422.169 317.427V301.432C422.169 298.986 421.282 296.598 418.213 296.598C415.144 296.598 413.781 298.65 413.781 302.802V317.427C413.781 317.894 413.404 318.28 412.928 318.28H407.282C406.814 318.28 406.428 317.903 406.428 317.427V301.711C406.428 298.904 405.739 296.639 402.538 296.639C399.338 296.639 398.049 298.51 398.049 303.155V317.427C398.049 317.894 397.672 318.28 397.196 318.28H391.492C391.025 318.28 390.639 317.903 390.639 317.427V298.182H390.647Z" fill="white"/>
<path d="M441.544 306.348C441.544 309.737 443.243 313.044 446.977 313.044C449.8 313.044 450.793 312.018 451.491 310.615C451.63 310.328 451.926 310.156 452.246 310.156H458.015C458.622 310.156 459.024 310.763 458.811 311.329C457.522 314.612 454.347 318.912 446.788 318.912C437.868 318.912 434.002 312.248 434.002 305.141C434.002 296.648 438.36 290.583 447.059 290.583C456.357 290.583 459.517 297.312 459.517 304.066C459.517 304.641 459.517 305.092 459.492 305.535C459.467 305.978 459.098 306.348 458.639 306.348H441.552H441.544ZM451.999 301.744C451.95 298.593 450.686 295.942 447.034 295.942C443.383 295.942 441.996 298.42 441.7 301.744H451.999Z" fill="white"/>
<path d="M464.145 298.552C464.145 296.204 464.145 294.079 464.112 292.077C464.112 291.601 464.49 291.215 464.966 291.215H470.669C471.121 291.215 471.49 291.56 471.523 292.011C471.589 293.094 471.646 294.875 471.646 295.975C472.754 293.094 475.331 290.936 479.393 290.632C479.894 290.591 480.329 290.977 480.329 291.486V296.894C480.329 297.353 479.959 297.739 479.5 297.747C474.559 297.78 471.646 299.462 471.646 306.504V317.451C471.646 317.919 471.269 318.305 470.793 318.305H464.999C464.531 318.305 464.145 317.927 464.145 317.451V298.576V298.552Z" fill="white"/>
<path d="M505.999 309.532C506.565 309.532 506.975 310.074 506.819 310.615C505.613 314.784 502.339 318.904 494.912 318.904C486.483 318.904 482.15 313.069 482.15 304.936C482.15 296.804 487.025 290.575 495.273 290.575C503.52 290.575 506.368 295.884 506.967 299.183C507.066 299.709 506.663 300.193 506.13 300.193H500.435C500.065 300.193 499.729 299.963 499.63 299.61C499.072 297.723 497.8 296.451 495.133 296.451C491.711 296.451 489.766 299.454 489.766 304.706C489.766 310.468 491.818 313.094 495.1 313.094C497.456 313.094 498.818 311.813 499.54 310.041C499.663 309.729 499.983 309.54 500.32 309.54H505.999V309.532Z" fill="white"/>
<path d="M362.991 331.928C362.4 331.928 361.875 332.281 361.629 332.822C358.477 339.576 351.649 344.27 343.722 344.27C342.13 344.27 340.595 344.147 339.077 343.835C331.995 342.366 325.561 336.737 317.888 320.258C309.853 303.016 299.226 284.625 274.696 284.625C255.78 284.625 239.892 297.87 235.83 315.572C235.174 318.444 234.821 321.431 234.821 324.501C234.821 338.198 241.846 350.983 253.261 358.279C254.04 358.78 255.091 358.468 255.452 357.614L262.296 341.415C262.542 340.832 262.403 340.142 261.919 339.732C257.536 335.99 254.927 330.426 254.927 324.509C254.927 322.802 255.14 321.152 255.55 319.569C257.75 311.05 265.497 304.739 274.696 304.739C283.896 304.739 290.199 308.457 299.661 328.76C306.226 342.859 315.877 358.722 333.562 363.17C336.689 363.958 340.07 364.385 343.722 364.385C362.515 364.385 378.304 351.312 382.498 333.791C382.72 332.847 382.022 331.936 381.054 331.936H362.991V331.928Z" fill="white"/>
</g>
<path d="M258.617 524.444C264.886 524.444 269.393 523.599 272.14 521.908C274.606 520.359 276.507 518.069 277.846 515.041C279.677 511.096 280.593 505.638 280.593 498.665C280.593 486.62 277.282 479.049 270.661 475.949C267.844 474.611 263.125 473.942 256.504 473.942H245.622V524.444H258.617ZM234 464.011H259.145C267.104 464.011 273.056 464.997 277 466.969C280.17 468.589 282.952 470.949 285.347 474.048C290.207 480.457 292.637 488.804 292.637 499.087C292.637 514.512 287.847 525.007 278.268 530.572C273.901 533.107 267.844 534.375 260.096 534.375H234V464.011ZM338.801 504.264C338.238 495.319 334.152 490.846 326.546 490.846C319.291 490.846 315.135 495.319 314.079 504.264H338.801ZM313.867 511.871C314.219 522.014 318.657 527.085 327.179 527.085C332.603 527.085 336.336 524.092 338.379 518.105L349.472 519.689C346.373 530.184 338.872 535.432 326.968 535.432C319.361 535.432 313.409 533.107 309.113 528.459C304.746 523.88 302.562 517.471 302.562 509.23C302.562 501.059 304.711 494.509 309.007 489.579C313.304 484.719 319.009 482.289 326.123 482.289C333.589 482.289 339.435 484.719 343.661 489.579C347.887 494.509 350 501.271 350 509.864C349.93 510.075 349.895 510.357 349.895 510.709V511.871H313.867ZM387.261 497.925C386.416 493.065 382.859 490.635 376.59 490.635C370.04 490.635 366.764 492.431 366.764 496.023C366.764 497.573 367.574 498.805 369.194 499.721C370.744 500.637 373.913 501.658 378.703 502.785C386.944 504.616 392.403 506.624 395.079 508.807C398.108 511.272 399.622 514.583 399.622 518.739C399.622 523.81 397.615 527.86 393.6 530.889C389.585 533.917 384.303 535.432 377.752 535.432C364.51 535.432 356.833 530.114 354.72 519.478L365.602 517.788C366.659 524.056 370.638 527.191 377.541 527.191C384.866 527.191 388.529 524.866 388.529 520.218C388.529 517.541 386.169 515.71 381.45 514.724C370.955 512.329 364.158 509.934 361.059 507.539C357.96 505.074 356.41 501.693 356.41 497.397C356.41 492.889 358.171 489.262 361.693 486.515C365.215 483.697 369.828 482.289 375.533 482.289C388.564 482.289 395.96 486.937 397.72 496.235L387.261 497.925ZM404.814 464.011H415.696V475.104H404.814V464.011ZM404.814 483.451H415.696V534.375H404.814V483.451ZM451.029 490.846C442.647 490.846 438.456 496.692 438.456 508.385C438.456 519.795 442.647 525.5 451.029 525.5C459.692 525.5 464.024 520.077 464.024 509.23C464.024 496.974 459.692 490.846 451.029 490.846ZM440.78 539.658C441.414 544.165 444.584 546.419 450.289 546.419C455.29 546.419 458.741 545.363 460.643 543.25C462.545 541.137 463.496 537.369 463.496 531.945V526.979C459.551 531.91 454.586 534.375 448.599 534.375C442.33 534.375 437.223 531.98 433.279 527.191C429.264 522.331 427.257 516.132 427.257 508.596C427.257 500.637 429.264 494.262 433.279 489.473C437.223 484.683 442.471 482.289 449.021 482.289C455.219 482.289 460.326 484.859 464.341 490.001V483.451H474.483V528.247C474.483 538.742 472.476 545.821 468.461 549.483C464.587 553.146 458.988 554.977 451.662 554.977C441.309 554.977 434.406 552.16 430.955 546.525C429.616 544.13 428.947 541.7 428.947 539.235L429.053 538.179L440.78 539.658ZM482.51 483.451H492.547V490.741C496.491 485.106 502.055 482.289 509.24 482.289C516.283 482.289 521.178 484.719 523.925 489.579C525.052 491.692 525.757 493.452 526.038 494.861C526.25 496.34 526.355 499.615 526.355 504.687V534.375H515.473V505.743C515.473 495.953 512.233 491.058 505.753 491.058C500.964 491.058 497.547 492.959 495.505 496.763C494.096 499.369 493.392 503.384 493.392 508.807V534.375H482.51V483.451ZM571.508 510.603C572.775 520.605 578.798 525.606 589.574 525.606C600.139 525.606 605.422 521.943 605.422 514.618C605.422 511.871 604.436 509.793 602.464 508.385C600.491 506.835 595.737 505.145 588.201 503.313C579.044 500.989 572.775 498.524 569.394 495.918C565.098 492.396 562.95 487.853 562.95 482.289C562.95 476.442 565.239 471.723 569.817 468.131C574.395 464.539 580.453 462.743 587.989 462.743C605.316 462.743 614.261 469.822 614.825 483.979L603.415 484.613C602.428 476.654 597.392 472.674 588.306 472.674C578.798 472.674 574.043 475.632 574.043 481.549C574.043 484.085 575.17 486.057 577.424 487.465C579.748 488.945 584.08 490.389 590.419 491.797C599.858 493.981 606.373 496.481 609.965 499.299C614.614 502.82 616.938 507.68 616.938 513.879C616.938 520.57 614.473 525.852 609.542 529.726C604.612 533.6 597.885 535.537 589.363 535.537C571.12 535.537 561.435 527.578 560.308 511.66L571.508 510.603ZM635.334 483.451L648.646 521.485L661.958 483.451H673.052L652.449 539.235C650.407 544.729 648.399 548.532 646.427 550.645C643.751 553.533 640.088 554.977 635.439 554.977C632.974 554.977 630.65 554.695 628.466 554.132H628.255L627.093 544.835C629.065 545.328 630.896 545.574 632.587 545.574C637.095 545.574 640.511 542.088 642.835 535.115L643.046 534.481L623.712 483.451H635.334ZM706.347 497.925C705.502 493.065 701.945 490.635 695.676 490.635C689.126 490.635 685.85 492.431 685.85 496.023C685.85 497.573 686.66 498.805 688.28 499.721C689.83 500.637 693 501.658 697.789 502.785C706.03 504.616 711.489 506.624 714.165 508.807C717.194 511.272 718.708 514.583 718.708 518.739C718.708 523.81 716.701 527.86 712.686 530.889C708.671 533.917 703.389 535.432 696.838 535.432C683.597 535.432 675.919 530.114 673.806 519.478L684.688 517.788C685.745 524.056 689.724 527.191 696.627 527.191C703.952 527.191 707.615 524.866 707.615 520.218C707.615 517.541 705.255 515.71 700.536 514.724C690.041 512.329 683.244 509.934 680.145 507.539C677.046 505.074 675.497 501.693 675.497 497.397C675.497 492.889 677.257 489.262 680.779 486.515C684.301 483.697 688.914 482.289 694.62 482.289C707.65 482.289 715.046 486.937 716.807 496.235L706.347 497.925ZM741.016 483.345H749.996V491.903H741.121V517.259C741.051 520.922 741.262 523.282 741.755 524.338C742.248 525.395 743.34 525.923 745.031 525.923C746.439 525.923 748.059 525.606 749.891 524.972L751.158 533.952C748.552 534.798 745.876 535.22 743.129 535.22C737.142 535.22 733.374 533.671 731.824 530.572C730.697 528.318 730.134 524.127 730.134 517.999V492.009H723.9V483.451H730.134V471.935L741.016 465.49V483.345ZM787.74 504.264C787.177 495.319 783.092 490.846 775.485 490.846C768.23 490.846 764.074 495.319 763.018 504.264H787.74ZM762.806 511.871C763.159 522.014 767.596 527.085 776.119 527.085C781.542 527.085 785.275 524.092 787.318 518.105L798.411 519.689C795.312 530.184 787.811 535.432 775.907 535.432C768.3 535.432 762.349 533.107 758.052 528.459C753.685 523.88 751.502 517.471 751.502 509.23C751.502 501.059 753.65 494.509 757.946 489.579C762.243 484.719 767.948 482.289 775.062 482.289C782.528 482.289 788.374 484.719 792.6 489.579C796.826 494.509 798.94 501.271 798.94 509.864C798.869 510.075 798.834 510.357 798.834 510.709V511.871H762.806ZM803.659 483.451H813.591V490.424C817.464 485 822.747 482.289 829.438 482.289C836.552 482.289 841.307 485.106 843.701 490.741C847.857 485.106 853.21 482.289 859.761 482.289C866.241 482.289 870.748 484.613 873.284 489.262C874.834 492.079 875.608 495.847 875.608 500.566V534.375H864.726V503.63C864.656 495.249 861.909 491.058 856.485 491.058C848.949 491.058 845.181 496.446 845.181 507.222V534.375H834.298V503.736C834.228 495.284 831.516 491.058 826.163 491.058C821.726 491.058 818.591 492.748 816.76 496.129C815.351 498.665 814.647 502.855 814.647 508.702V534.375H803.659V483.451Z" fill="white"/>
<rect x="234" y="792" width="291" height="76.5" rx="38.25" fill="url(#paint0_linear_19907_178026)"/>
<path d="M296.604 817.274L287.604 841.25H283.464L274.5 817.274H278.784L284.94 834.842C285.252 835.73 285.468 836.426 285.588 836.93L286.272 834.842L292.5 817.274H296.604ZM307.731 830.99C307.539 827.942 306.147 826.418 303.555 826.418C301.083 826.418 299.667 827.942 299.307 830.99H307.731ZM299.235 833.582C299.355 837.038 300.867 838.766 303.771 838.766C305.619 838.766 306.891 837.746 307.587 835.706L311.367 836.246C310.311 839.822 307.755 841.61 303.699 841.61C301.107 841.61 299.079 840.818 297.615 839.234C296.127 837.674 295.383 835.49 295.383 832.682C295.383 829.898 296.115 827.666 297.579 825.986C299.043 824.33 300.987 823.502 303.411 823.502C305.955 823.502 307.947 824.33 309.387 825.986C310.827 827.666 311.547 829.97 311.547 832.898C311.523 832.97 311.511 833.066 311.511 833.186V833.582H299.235ZM322.947 827.714C322.179 827.258 321.435 827.03 320.715 827.03C318.627 827.03 317.583 829.322 317.583 833.906V841.25H313.875V823.898H317.295V826.454C318.351 824.486 319.611 823.502 321.075 823.502C322.059 823.502 323.091 823.802 324.171 824.402L322.947 827.714ZM336.811 828.83C336.523 827.174 335.311 826.346 333.175 826.346C330.943 826.346 329.827 826.958 329.827 828.182C329.827 828.71 330.103 829.13 330.655 829.442C331.183 829.754 332.263 830.102 333.895 830.486C336.703 831.11 338.563 831.794 339.475 832.538C340.507 833.378 341.023 834.506 341.023 835.922C341.023 837.65 340.339 839.03 338.971 840.062C337.603 841.094 335.803 841.61 333.571 841.61C329.059 841.61 326.443 839.798 325.723 836.174L329.431 835.598C329.791 837.734 331.147 838.802 333.499 838.802C335.995 838.802 337.243 838.01 337.243 836.426C337.243 835.514 336.439 834.89 334.831 834.554C331.255 833.738 328.939 832.922 327.883 832.106C326.827 831.266 326.299 830.114 326.299 828.65C326.299 827.114 326.899 825.878 328.099 824.942C329.299 823.982 330.871 823.502 332.815 823.502C337.255 823.502 339.775 825.086 340.375 828.254L336.811 828.83ZM343.512 817.274H347.22V821.054H343.512V817.274ZM343.512 823.898H347.22V841.25H343.512V823.898ZM355.695 832.574C355.695 836.606 357.267 838.622 360.411 838.622C361.827 838.622 362.967 838.07 363.831 836.966C364.695 835.886 365.127 834.446 365.127 832.646C365.127 828.566 363.555 826.526 360.411 826.526C357.267 826.526 355.695 828.542 355.695 832.574ZM351.879 832.79C351.879 829.958 352.659 827.702 354.219 826.022C355.755 824.342 357.819 823.502 360.411 823.502C362.955 823.502 365.019 824.33 366.603 825.986C368.163 827.642 368.943 829.826 368.943 832.538C368.943 835.25 368.151 837.446 366.567 839.126C365.007 840.782 362.955 841.61 360.411 841.61C357.843 841.61 355.779 840.806 354.219 839.198C352.659 837.59 351.879 835.454 351.879 832.79ZM371.426 823.898H374.846V826.382C376.19 824.462 378.086 823.502 380.534 823.502C382.934 823.502 384.602 824.33 385.538 825.986C385.922 826.706 386.162 827.306 386.258 827.786C386.33 828.29 386.366 829.406 386.366 831.134V841.25H382.658V831.494C382.658 828.158 381.554 826.49 379.346 826.49C377.714 826.49 376.55 827.138 375.854 828.434C375.374 829.322 375.134 830.69 375.134 832.538V841.25H371.426V823.898ZM399.375 830.702H408.411V834.446H399.375V830.702ZM434.906 841.25H418.922C418.97 839.618 419.678 837.89 421.046 836.066C421.91 834.938 423.266 833.57 425.114 831.962C426.986 830.33 428.306 829.082 429.074 828.218C429.842 827.378 430.394 826.574 430.73 825.806C430.994 825.206 431.126 824.582 431.126 823.934C431.126 821.486 429.83 820.262 427.238 820.262C424.646 820.262 423.314 821.702 423.242 824.582L419.462 824.186C419.894 819.506 422.45 817.166 427.13 817.166C429.482 817.166 431.366 817.778 432.782 819.002C434.174 820.226 434.87 821.858 434.87 823.898C434.87 826.082 433.898 828.206 431.954 830.27C430.802 831.494 429.314 832.874 427.49 834.41C426.002 835.682 425.03 836.678 424.574 837.398L424.358 837.758H434.906V841.25ZM437.414 837.326H441.338V841.25H437.414V837.326ZM450.689 829.478C450.689 835.574 451.997 838.61 454.613 838.586C456.029 838.586 457.049 837.842 457.673 836.354C458.273 834.866 458.573 832.394 458.573 828.938C458.573 823.154 457.253 820.262 454.613 820.262C451.997 820.262 450.689 823.334 450.689 829.478ZM446.801 829.406C446.801 821.246 449.405 817.166 454.613 817.166C459.821 817.166 462.425 821.258 462.425 829.442C462.425 837.578 459.821 841.646 454.613 841.646C449.405 841.646 446.801 837.566 446.801 829.406ZM469.181 829.478C469.181 835.574 470.489 838.61 473.105 838.586C474.521 838.586 475.541 837.842 476.165 836.354C476.765 834.866 477.065 832.394 477.065 828.938C477.065 823.154 475.745 820.262 473.105 820.262C470.489 820.262 469.181 823.334 469.181 829.478ZM465.293 829.406C465.293 821.246 467.897 817.166 473.105 817.166C478.313 817.166 480.917 821.258 480.917 829.442C480.917 837.578 478.313 841.646 473.105 841.646C467.897 841.646 465.293 837.566 465.293 829.406Z" fill="#141414"/>
<defs>
<linearGradient id="paint0_linear_19907_178026" x1="280.094" y1="817.196" x2="363.095" y2="917.257" gradientUnits="userSpaceOnUse">
<stop stop-color="#AECC56"/>
<stop offset="1" stop-color="#60AB56"/>
</linearGradient>
<clipPath id="clip0_19907_178026">
<rect width="273.164" height="79.7515" fill="white" transform="translate(234 284.625)"/>
</clipPath>
</defs>
</svg>
