<svg width="382" height="419" viewBox="0 0 382 419" fill="none" xmlns="http://www.w3.org/2000/svg">
<g filter="url(#filter0_dd_1877_85492)">
<rect x="20" width="342" height="379" rx="12" fill="white"/>
<rect x="22" y="2" width="338" height="375" rx="10" stroke="url(#paint0_linear_1877_85492)" stroke-width="4" stroke-linecap="round" stroke-linejoin="round"/>
<path d="M45.53 42V29.562H50.3C53.882 29.562 56.24 31.956 56.24 35.646C56.24 39.282 53.954 42 50.21 42H45.53ZM47.87 31.47V40.092H50.084C52.658 40.092 53.828 38.22 53.828 35.646C53.828 33.468 52.748 31.47 50.102 31.47H47.87ZM65.665 35.682V39.75C65.665 40.614 65.737 41.766 65.791 42H63.649C63.577 41.82 63.523 41.352 63.523 41.01C63.181 41.55 62.515 42.216 60.841 42.216C58.609 42.216 57.673 40.776 57.673 39.354C57.673 37.248 59.347 36.294 62.083 36.294C62.587 36.294 63.163 36.294 63.487 36.294V35.646C63.487 34.944 63.235 34.17 61.867 34.17C60.625 34.17 60.391 34.746 60.247 35.43H58.105C58.249 33.9 59.185 32.532 61.939 32.532C64.351 32.55 65.665 33.504 65.665 35.682ZM63.487 37.95V37.698C63.253 37.698 62.677 37.698 62.299 37.698C60.643 37.698 59.941 38.184 59.941 39.21C59.941 39.984 60.427 40.596 61.417 40.596C63.253 40.596 63.487 39.336 63.487 37.95ZM74.0867 28.842H76.3187V39.444C76.3187 40.29 76.3187 41.154 76.3367 42H74.1947C74.1407 41.748 74.1047 41.19 74.0867 40.92C73.6367 41.73 72.7907 42.216 71.3687 42.216C69.0107 42.216 67.5347 40.326 67.5347 37.464C67.5347 34.62 69.1187 32.532 71.7107 32.532C73.1507 32.532 73.8707 33.072 74.0867 33.522V28.842ZM72.0707 34.35C70.6307 34.35 69.8387 35.484 69.8387 37.41C69.8387 39.354 70.6667 40.416 71.9807 40.416C73.8707 40.416 74.1767 38.904 74.1767 37.338C74.1767 35.592 73.8887 34.35 72.0707 34.35ZM82.7235 32.532C85.3875 32.532 87.1155 34.458 87.1155 37.356C87.1155 40.128 85.4955 42.216 82.5975 42.216C79.8075 42.216 78.1515 40.182 78.1515 37.41C78.1515 34.602 79.8255 32.532 82.7235 32.532ZM82.6335 34.314C81.2475 34.314 80.4375 35.376 80.4375 37.374C80.4375 39.246 81.2835 40.452 82.6695 40.452C84.0555 40.452 84.8475 39.264 84.8475 37.392C84.8475 35.412 84.0555 34.314 82.6335 34.314ZM88.397 39.264H90.611C90.827 40.11 91.475 40.578 92.537 40.578C93.617 40.578 94.013 40.146 94.013 39.498C94.013 38.814 93.617 38.526 92.141 38.166C89.243 37.464 88.739 36.564 88.739 35.268C88.739 33.936 89.693 32.532 92.357 32.532C95.021 32.532 95.975 34.026 96.065 35.286H93.941C93.833 34.854 93.527 34.152 92.249 34.152C91.259 34.152 90.953 34.602 90.953 35.088C90.953 35.628 91.259 35.898 92.825 36.258C95.831 36.96 96.299 37.968 96.299 39.336C96.299 40.902 95.093 42.216 92.447 42.216C89.783 42.216 88.613 40.92 88.397 39.264ZM108.522 28.842H110.754V39.444C110.754 40.29 110.754 41.154 110.772 42H108.63C108.576 41.748 108.54 41.19 108.522 40.92C108.072 41.73 107.226 42.216 105.804 42.216C103.446 42.216 101.97 40.326 101.97 37.464C101.97 34.62 103.554 32.532 106.146 32.532C107.586 32.532 108.306 33.072 108.522 33.522V28.842ZM106.506 34.35C105.066 34.35 104.274 35.484 104.274 37.41C104.274 39.354 105.102 40.416 106.416 40.416C108.306 40.416 108.612 38.904 108.612 37.338C108.612 35.592 108.324 34.35 106.506 34.35ZM121.083 37.842H114.855C114.855 39.246 115.557 40.452 116.925 40.452C118.131 40.452 118.491 39.912 118.743 39.3H120.993C120.651 40.452 119.643 42.216 116.871 42.216C113.865 42.216 112.587 39.912 112.587 37.5C112.587 34.656 114.045 32.532 116.961 32.532C120.075 32.532 121.119 34.872 121.119 37.068C121.119 37.374 121.119 37.59 121.083 37.842ZM114.909 36.42H118.869C118.851 35.196 118.311 34.188 116.961 34.188C115.593 34.188 115.017 35.124 114.909 36.42ZM132.841 39.066H135.037C134.695 40.632 133.615 42.216 130.987 42.216C128.233 42.216 126.721 40.29 126.721 37.446C126.721 34.746 128.323 32.532 131.113 32.532C134.083 32.532 134.965 34.674 135.037 35.754H132.841C132.661 34.944 132.193 34.314 131.077 34.314C129.745 34.314 128.989 35.466 128.989 37.374C128.989 39.39 129.763 40.452 131.041 40.452C132.013 40.452 132.553 39.912 132.841 39.066ZM140.837 32.532C143.501 32.532 145.229 34.458 145.229 37.356C145.229 40.128 143.609 42.216 140.711 42.216C137.921 42.216 136.265 40.182 136.265 37.41C136.265 34.602 137.939 32.532 140.837 32.532ZM140.747 34.314C139.361 34.314 138.551 35.376 138.551 37.374C138.551 39.246 139.397 40.452 140.783 40.452C142.169 40.452 142.961 39.264 142.961 37.392C142.961 35.412 142.169 34.314 140.747 34.314ZM147.124 42V35.088C147.124 34.296 147.124 33.45 147.106 32.748H149.284C149.32 33 149.356 33.756 149.356 34.044C149.698 33.396 150.454 32.532 152.128 32.532C153.946 32.532 155.206 33.738 155.206 36.096V42H152.956V36.366C152.956 35.196 152.542 34.386 151.318 34.386C150.022 34.386 149.356 35.232 149.356 36.942V42H147.124ZM156.47 34.476V32.748H157.964V30.174H160.196V32.748H162.086V34.476H160.196V39.318C160.196 40.092 160.412 40.434 161.204 40.434C161.366 40.434 161.636 40.434 161.852 40.38V41.964C161.384 42.126 160.736 42.126 160.25 42.126C158.558 42.126 157.964 41.244 157.964 39.66V34.476H156.47ZM171.046 35.682V39.75C171.046 40.614 171.118 41.766 171.172 42H169.03C168.958 41.82 168.904 41.352 168.904 41.01C168.562 41.55 167.896 42.216 166.222 42.216C163.99 42.216 163.054 40.776 163.054 39.354C163.054 37.248 164.728 36.294 167.464 36.294C167.968 36.294 168.544 36.294 168.868 36.294V35.646C168.868 34.944 168.616 34.17 167.248 34.17C166.006 34.17 165.772 34.746 165.628 35.43H163.486C163.63 33.9 164.566 32.532 167.32 32.532C169.732 32.55 171.046 33.504 171.046 35.682ZM168.868 37.95V37.698C168.634 37.698 168.058 37.698 167.68 37.698C166.024 37.698 165.322 38.184 165.322 39.21C165.322 39.984 165.808 40.596 166.798 40.596C168.634 40.596 168.868 39.336 168.868 37.95ZM172.361 34.476V32.748H173.855V30.174H176.087V32.748H177.977V34.476H176.087V39.318C176.087 40.092 176.303 40.434 177.095 40.434C177.257 40.434 177.527 40.434 177.743 40.38V41.964C177.275 42.126 176.627 42.126 176.141 42.126C174.449 42.126 173.855 41.244 173.855 39.66V34.476H172.361ZM183.446 32.532C186.11 32.532 187.838 34.458 187.838 37.356C187.838 40.128 186.218 42.216 183.32 42.216C180.53 42.216 178.874 40.182 178.874 37.41C178.874 34.602 180.548 32.532 183.446 32.532ZM183.356 34.314C181.97 34.314 181.16 35.376 181.16 37.374C181.16 39.246 182.006 40.452 183.392 40.452C184.778 40.452 185.57 39.264 185.57 37.392C185.57 35.412 184.778 34.314 183.356 34.314Z" fill="#004415"/>
<path fill-rule="evenodd" clip-rule="evenodd" d="M338 77H44V76H338V77Z" fill="#E5E5E5"/>
<path d="M46.604 114H45.246V104.284H47.122C48.494 106.538 51.378 111.2 51.896 112.264H51.924C51.826 111.06 51.826 109.492 51.826 107.91V104.284H53.184V114H51.406C50.174 111.942 47.136 106.86 46.548 105.768H46.534C46.604 106.818 46.604 108.54 46.604 110.29V114ZM58.2833 106.706C60.2853 106.706 61.6013 108.19 61.6013 110.43C61.6013 112.502 60.3973 114.168 58.2133 114.168C56.1273 114.168 54.8813 112.6 54.8813 110.458C54.8813 108.33 56.1133 106.706 58.2833 106.706ZM58.2273 107.84C56.9813 107.84 56.2953 108.834 56.2953 110.444C56.2953 111.97 57.0373 113.048 58.2553 113.048C59.5013 113.048 60.1873 112.012 60.1873 110.444C60.1873 108.862 59.5013 107.84 58.2273 107.84ZM63.1369 114V108.722C63.1369 108.106 63.1369 107.462 63.1229 106.874H64.4529C64.4669 107.084 64.5089 107.588 64.5089 107.924C64.8309 107.308 65.4469 106.706 66.5529 106.706C67.5749 106.706 68.2329 107.224 68.5129 107.952C68.8909 107.294 69.5629 106.706 70.7669 106.706C71.9429 106.706 73.0069 107.406 73.0069 109.324V114H71.6629V109.492C71.6629 108.694 71.3829 107.868 70.3189 107.868C69.2269 107.868 68.7509 108.68 68.7509 109.912V114H67.4069V109.534C67.4069 108.652 67.1689 107.882 66.1049 107.882C65.0269 107.882 64.5089 108.722 64.5089 110.052V114H63.1369ZM80.9111 110.71H75.9551C75.9551 112.054 76.6271 113.048 77.8031 113.048C78.8671 113.048 79.2031 112.516 79.4271 112.012H80.8131C80.5331 112.922 79.7631 114.168 77.7611 114.168C75.4931 114.168 74.5551 112.362 74.5551 110.528C74.5551 108.386 75.6471 106.706 77.8311 106.706C80.1551 106.706 80.9251 108.54 80.9251 110.108C80.9251 110.332 80.9251 110.514 80.9111 110.71ZM75.9971 109.772H79.5391C79.5251 108.666 78.9931 107.77 77.8171 107.77C76.6271 107.77 76.1091 108.596 75.9971 109.772ZM90.2686 111.802H91.6406C91.3466 113.02 90.5206 114.168 88.6446 114.168C86.6286 114.168 85.4246 112.74 85.4246 110.486C85.4246 108.456 86.6006 106.706 88.7286 106.706C90.8566 106.706 91.5566 108.232 91.6406 109.128H90.2826C90.1146 108.428 89.6806 107.84 88.7006 107.84C87.5106 107.84 86.8386 108.862 86.8386 110.444C86.8386 112.04 87.4966 113.048 88.6726 113.048C89.5126 113.048 90.0026 112.586 90.2686 111.802ZM96.045 106.706C98.047 106.706 99.363 108.19 99.363 110.43C99.363 112.502 98.159 114.168 95.975 114.168C93.889 114.168 92.643 112.6 92.643 110.458C92.643 108.33 93.875 106.706 96.045 106.706ZM95.989 107.84C94.743 107.84 94.057 108.834 94.057 110.444C94.057 111.97 94.799 113.048 96.017 113.048C97.263 113.048 97.949 112.012 97.949 110.444C97.949 108.862 97.263 107.84 95.989 107.84ZM100.899 114V108.722C100.899 108.106 100.899 107.462 100.885 106.874H102.215C102.229 107.084 102.271 107.588 102.271 107.924C102.593 107.308 103.209 106.706 104.315 106.706C105.337 106.706 105.995 107.224 106.275 107.952C106.653 107.294 107.325 106.706 108.529 106.706C109.705 106.706 110.769 107.406 110.769 109.324V114H109.425V109.492C109.425 108.694 109.145 107.868 108.081 107.868C106.989 107.868 106.513 108.68 106.513 109.912V114H105.169V109.534C105.169 108.652 104.931 107.882 103.867 107.882C102.789 107.882 102.271 108.722 102.271 110.052V114H100.899ZM116.209 114.168C115.075 114.168 114.487 113.706 114.179 113.174V116.8H112.807V108.61C112.807 108.036 112.807 107.434 112.793 106.874H114.137C114.165 107.112 114.179 107.546 114.179 107.952C114.557 107.28 115.257 106.706 116.461 106.706C118.099 106.706 119.303 108.092 119.303 110.262C119.303 112.796 117.931 114.168 116.209 114.168ZM115.985 113.034C117.231 113.034 117.889 112.012 117.889 110.318C117.889 108.848 117.245 107.868 116.069 107.868C114.669 107.868 114.123 108.764 114.123 110.43C114.123 112.054 114.571 113.034 115.985 113.034ZM122.246 114H120.86V103.738H122.246V114ZM130.144 110.71H125.188C125.188 112.054 125.86 113.048 127.036 113.048C128.1 113.048 128.436 112.516 128.66 112.012H130.046C129.766 112.922 128.996 114.168 126.994 114.168C124.726 114.168 123.788 112.362 123.788 110.528C123.788 108.386 124.88 106.706 127.064 106.706C129.388 106.706 130.158 108.54 130.158 110.108C130.158 110.332 130.158 110.514 130.144 110.71ZM125.23 109.772H128.772C128.758 108.666 128.226 107.77 127.05 107.77C125.86 107.77 125.342 108.596 125.23 109.772ZM130.874 107.98V106.874H132.078V104.816H133.45V106.874H134.99V107.98H133.45V112.026C133.45 112.684 133.618 113.02 134.262 113.02C134.416 113.02 134.654 113.006 134.85 112.964V113.972C134.528 114.084 134.08 114.098 133.73 114.098C132.568 114.098 132.078 113.496 132.078 112.306V107.98H130.874ZM139.125 106.706C141.127 106.706 142.443 108.19 142.443 110.43C142.443 112.502 141.239 114.168 139.055 114.168C136.969 114.168 135.723 112.6 135.723 110.458C135.723 108.33 136.955 106.706 139.125 106.706ZM139.069 107.84C137.823 107.84 137.137 108.834 137.137 110.444C137.137 111.97 137.879 113.048 139.097 113.048C140.343 113.048 141.029 112.012 141.029 110.444C141.029 108.862 140.343 107.84 139.069 107.84Z" fill="#424242"/>
<g filter="url(#filter1_d_1877_85492)">
<path d="M44 135C44 130.582 47.5817 127 52 127H330C334.418 127 338 130.582 338 135V163C338 167.418 334.418 171 330 171H52C47.5817 171 44 167.418 44 163V135Z" fill="white" shape-rendering="crispEdges"/>
<path d="M52 127.5H330C334.142 127.5 337.5 130.858 337.5 135V163C337.5 167.142 334.142 170.5 330 170.5H52C47.8579 170.5 44.5 167.142 44.5 163V135C44.5 130.858 47.8579 127.5 52 127.5Z" stroke="#D6D6D6" shape-rendering="crispEdges"/>
<path d="M66.8 149.848H68.272C67.776 151.736 66.368 153.144 63.84 153.144C60.512 153.144 58.832 150.616 58.832 147.48C58.832 144.456 60.512 141.72 63.904 141.72C66.528 141.72 67.952 143.208 68.272 145.08H66.8C66.4 143.864 65.6 142.952 63.84 142.952C61.392 142.952 60.384 145.176 60.384 147.432C60.384 149.608 61.344 151.912 63.904 151.912C65.616 151.912 66.368 150.936 66.8 149.848ZM76.1383 147.368V151.24C76.1383 151.976 76.2023 152.776 76.2503 153H74.9063C74.8423 152.824 74.7943 152.44 74.7783 151.944C74.4903 152.488 73.8503 153.192 72.2823 153.192C70.3623 153.192 69.5463 151.96 69.5463 150.728C69.5463 148.904 70.9703 148.088 73.3863 148.088C73.9463 148.088 74.4583 148.088 74.7623 148.088V147.384C74.7623 146.68 74.5383 145.8 73.0182 145.8C71.6583 145.8 71.4343 146.472 71.2903 147.112H69.9303C70.0423 145.992 70.7303 144.696 73.0663 144.696C75.0503 144.712 76.1383 145.512 76.1383 147.368ZM74.7783 149.32V149.048C74.5063 149.048 73.8983 149.048 73.4663 149.048C71.8343 149.048 70.9703 149.496 70.9703 150.648C70.9703 151.48 71.5623 152.104 72.5543 152.104C74.5063 152.104 74.7783 150.792 74.7783 149.32ZM78.559 153V147.096C78.559 145.96 78.559 145.32 78.543 144.888H79.919C79.951 145.128 79.967 145.752 79.967 146.552C80.383 145.448 81.359 144.744 82.703 144.696V146.104C81.039 146.152 79.967 147.016 79.967 149.064V153H78.559ZM85.5764 153H84.1684V141.256H85.5764V153ZM91.2133 144.696C93.4693 144.696 94.9413 146.392 94.9413 148.936C94.9413 151.272 93.5973 153.192 91.1173 153.192C88.7973 153.192 87.3893 151.4 87.3893 148.968C87.3893 146.568 88.7653 144.696 91.2133 144.696ZM91.1493 145.88C89.6293 145.88 88.8293 147.096 88.8293 148.952C88.8293 150.728 89.7253 152.024 91.1813 152.024C92.6693 152.024 93.5013 150.792 93.5013 148.952C93.5013 147.128 92.6693 145.88 91.1493 145.88ZM96.1675 150.68H97.5595C97.7835 151.576 98.4395 152.088 99.5435 152.088C100.744 152.088 101.208 151.576 101.208 150.84C101.208 150.088 100.84 149.736 99.2875 149.352C96.9675 148.792 96.4875 148.088 96.4875 146.984C96.4875 145.832 97.3195 144.696 99.4155 144.696C101.496 144.696 102.36 145.912 102.472 147.048H101.112C101 146.52 100.6 145.784 99.3515 145.784C98.2155 145.784 97.8795 146.344 97.8795 146.872C97.8795 147.48 98.2155 147.768 99.7035 148.136C102.152 148.712 102.648 149.528 102.648 150.744C102.648 152.168 101.528 153.192 99.4955 153.192C97.3995 153.192 96.3755 152.136 96.1675 150.68ZM113.361 141.72C116.497 141.72 118.465 144.072 118.465 147.384C118.465 150.44 116.753 153.16 113.233 153.16C109.969 153.16 108.129 150.632 108.129 147.448C108.129 144.264 110.001 141.72 113.361 141.72ZM113.313 142.968C110.785 142.968 109.681 145.016 109.681 147.4C109.681 149.8 110.913 151.912 113.297 151.912C115.889 151.912 116.913 149.784 116.913 147.4C116.913 145 115.745 142.968 113.313 142.968ZM121.889 153H120.481V141.256H121.889V153ZM124.278 153V144.888H125.686V153H124.278ZM124.278 143.016V141.256H125.686V143.016H124.278ZM127.145 144.888H128.633C129.737 148.216 130.537 150.696 130.777 151.704H130.793C130.985 150.808 131.849 148.376 133.065 144.888H134.505L131.513 153H129.977L127.145 144.888ZM142.385 149.208H136.673C136.673 150.856 137.505 152.024 138.881 152.024C140.177 152.024 140.593 151.368 140.849 150.776H142.257C141.937 151.816 141.073 153.192 138.849 153.192C136.289 153.192 135.249 151.128 135.249 149.032C135.249 146.632 136.465 144.696 138.929 144.696C141.553 144.696 142.417 146.808 142.417 148.536C142.417 148.776 142.417 148.984 142.385 149.208ZM136.721 148.216H140.993C140.977 146.888 140.305 145.816 138.913 145.816C137.489 145.816 136.865 146.808 136.721 148.216ZM144.262 153V144.888H145.67V153H144.262ZM144.262 143.016V141.256H145.67V143.016H144.262ZM148.059 153V147.096C148.059 145.96 148.059 145.32 148.043 144.888H149.419C149.451 145.128 149.467 145.752 149.467 146.552C149.883 145.448 150.859 144.744 152.203 144.696V146.104C150.539 146.152 149.467 147.016 149.467 149.064V153H148.059ZM159.466 147.368V151.24C159.466 151.976 159.53 152.776 159.578 153H158.234C158.17 152.824 158.122 152.44 158.106 151.944C157.818 152.488 157.178 153.192 155.61 153.192C153.69 153.192 152.874 151.96 152.874 150.728C152.874 148.904 154.298 148.088 156.714 148.088C157.274 148.088 157.786 148.088 158.09 148.088V147.384C158.09 146.68 157.866 145.8 156.346 145.8C154.986 145.8 154.762 146.472 154.618 147.112H153.258C153.37 145.992 154.058 144.696 156.394 144.696C158.378 144.712 159.466 145.512 159.466 147.368ZM158.106 149.32V149.048C157.834 149.048 157.226 149.048 156.794 149.048C155.162 149.048 154.298 149.496 154.298 150.648C154.298 151.48 154.89 152.104 155.882 152.104C157.834 152.104 158.106 150.792 158.106 149.32Z" fill="#141414"/>
</g>
<path d="M51.602 193.2H53.058C52.638 194.88 51.378 196.126 49.124 196.126C46.184 196.126 44.714 193.928 44.714 191.184C44.714 188.538 46.198 186.144 49.18 186.144C51.532 186.144 52.778 187.488 53.058 189.112H51.616C51.294 188.118 50.622 187.32 49.124 187.32C47.066 187.32 46.226 189.196 46.226 191.128C46.226 192.99 47.01 194.95 49.18 194.95C50.664 194.95 51.28 194.082 51.602 193.2ZM60.5537 192.71H55.5977C55.5977 194.054 56.2697 195.048 57.4457 195.048C58.5097 195.048 58.8457 194.516 59.0697 194.012H60.4557C60.1757 194.922 59.4057 196.168 57.4037 196.168C55.1357 196.168 54.1977 194.362 54.1977 192.528C54.1977 190.386 55.2897 188.706 57.4737 188.706C59.7977 188.706 60.5677 190.54 60.5677 192.108C60.5677 192.332 60.5677 192.514 60.5537 192.71ZM55.6397 191.772H59.1817C59.1677 190.666 58.6357 189.77 57.4597 189.77C56.2697 189.77 55.7517 190.596 55.6397 191.772ZM63.5112 196H62.1252V185.738H63.5112V196ZM71.3812 188.874V193.928C71.3812 194.628 71.3812 195.538 71.3952 196H70.0512C70.0232 195.818 70.0092 195.398 70.0092 194.992C69.6452 195.762 68.9592 196.168 67.8812 196.168C66.6352 196.168 65.5292 195.524 65.5292 193.564V188.874H66.8872V193.27C66.8872 194.18 67.1672 195.006 68.2872 195.006C69.5192 195.006 70.0092 194.32 70.0092 192.612V188.874H71.3812ZM74.7905 196H73.4045V185.738H74.7905V196ZM82.1724 191.072V194.404C82.1724 195.048 82.2284 195.804 82.2704 196H80.9544C80.8984 195.846 80.8564 195.51 80.8424 195.118C80.5904 195.58 80.0444 196.168 78.6864 196.168C76.9924 196.168 76.2784 195.076 76.2784 193.984C76.2784 192.388 77.5384 191.66 79.6524 191.66C80.1144 191.66 80.5624 191.66 80.8284 191.66V191.086C80.8284 190.484 80.6324 189.756 79.3724 189.756C78.2524 189.756 78.0564 190.302 77.9304 190.862H76.6144C76.7124 189.826 77.3424 188.706 79.4144 188.706C81.1924 188.72 82.1724 189.434 82.1724 191.072ZM80.8284 192.794V192.57C80.6184 192.57 80.1004 192.57 79.7504 192.57C78.3644 192.57 77.6644 192.962 77.6644 193.914C77.6644 194.6 78.1404 195.118 78.9804 195.118C80.6184 195.118 80.8284 194.026 80.8284 192.794ZM84.2189 196V190.82C84.2189 189.868 84.2189 189.294 84.2049 188.874H85.5629C85.5769 189.07 85.6049 189.658 85.6049 190.302C85.9549 189.364 86.7949 188.748 87.9709 188.706V190.064C86.5149 190.092 85.6049 190.778 85.6049 192.612V196H84.2189ZM97.1455 193.802H98.5175C98.2235 195.02 97.3975 196.168 95.5215 196.168C93.5055 196.168 92.3015 194.74 92.3015 192.486C92.3015 190.456 93.4775 188.706 95.6055 188.706C97.7335 188.706 98.4335 190.232 98.5175 191.128H97.1595C96.9915 190.428 96.5575 189.84 95.5775 189.84C94.3875 189.84 93.7155 190.862 93.7155 192.444C93.7155 194.04 94.3735 195.048 95.5495 195.048C96.3895 195.048 96.8795 194.586 97.1455 193.802ZM102.922 188.706C104.924 188.706 106.24 190.19 106.24 192.43C106.24 194.502 105.036 196.168 102.852 196.168C100.766 196.168 99.52 194.6 99.52 192.458C99.52 190.33 100.752 188.706 102.922 188.706ZM102.866 189.84C101.62 189.84 100.934 190.834 100.934 192.444C100.934 193.97 101.676 195.048 102.894 195.048C104.14 195.048 104.826 194.012 104.826 192.444C104.826 190.862 104.14 189.84 102.866 189.84ZM107.776 196V190.722C107.776 190.106 107.776 189.462 107.762 188.874H109.092C109.106 189.084 109.148 189.588 109.148 189.924C109.47 189.308 110.086 188.706 111.192 188.706C112.214 188.706 112.872 189.224 113.152 189.952C113.53 189.294 114.202 188.706 115.406 188.706C116.582 188.706 117.646 189.406 117.646 191.324V196H116.302V191.492C116.302 190.694 116.022 189.868 114.958 189.868C113.866 189.868 113.39 190.68 113.39 191.912V196H112.046V191.534C112.046 190.652 111.808 189.882 110.744 189.882C109.666 189.882 109.148 190.722 109.148 192.052V196H107.776ZM123.435 196V186.284H126.991C129.735 186.284 131.583 188.146 131.583 191.044C131.583 193.914 129.791 196 126.935 196H123.435ZM124.877 187.488V194.796H126.837C129.049 194.796 130.085 193.214 130.085 191.058C130.085 189.21 129.133 187.488 126.837 187.488H124.877ZM133.566 196V186.284H137.122C139.866 186.284 141.714 188.146 141.714 191.044C141.714 193.914 139.922 196 137.066 196H133.566ZM135.008 187.488V194.796H136.968C139.18 194.796 140.216 193.214 140.216 191.058C140.216 189.21 139.264 187.488 136.968 187.488H135.008ZM143.697 196V186.284H147.253C149.997 186.284 151.845 188.146 151.845 191.044C151.845 193.914 150.053 196 147.197 196H143.697ZM145.139 187.488V194.796H147.099C149.311 194.796 150.347 193.214 150.347 191.058C150.347 189.21 149.395 187.488 147.099 187.488H145.139Z" fill="#424242"/>
<g filter="url(#filter2_d_1877_85492)">
<path d="M44 217C44 212.582 47.5817 209 52 209H330C334.418 209 338 212.582 338 217V245C338 249.418 334.418 253 330 253H52C47.5817 253 44 249.418 44 245V217Z" fill="white" shape-rendering="crispEdges"/>
<path d="M52 209.5H330C334.142 209.5 337.5 212.858 337.5 217V245C337.5 249.142 334.142 252.5 330 252.5H52C47.8579 252.5 44.5 249.142 44.5 245V217C44.5 212.858 47.8579 209.5 52 209.5Z" stroke="#D6D6D6" shape-rendering="crispEdges"/>
<path d="M61.328 223.256H62.752C61.36 225.08 60.224 227.464 60.224 230.424C60.224 233.128 61.152 235.624 62.752 237.768H61.328C60.128 236.152 58.928 233.64 58.928 230.408C58.928 227.224 60.144 224.824 61.328 223.256ZM67.6306 235H66.2066V226.152C65.6786 226.536 64.6066 226.968 64.0306 227.064V225.928C64.8306 225.72 65.8546 225.112 66.5746 224.424H67.6306V235ZM73.2088 235H71.7848V226.152C71.2568 226.536 70.1848 226.968 69.6088 227.064V225.928C70.4088 225.72 71.4328 225.112 72.1528 224.424H73.2088V235ZM76.8449 237.768H75.4209C76.8129 235.944 77.9489 233.56 77.9489 230.6C77.9489 227.896 77.0209 225.4 75.4209 223.256H76.8449C78.0449 224.872 79.2449 227.384 79.2449 230.616C79.2449 233.8 78.0289 236.2 76.8449 237.768ZM85.0664 232.696H86.5224C86.8104 233.56 87.3544 234.008 88.3944 234.008C90.4424 234.008 90.6024 231.24 90.6664 229.912C90.1704 230.808 89.2424 231.176 88.1384 231.176C86.1704 231.176 84.9224 229.752 84.9224 227.816C84.9224 225.896 86.2024 224.296 88.4584 224.296C91.0824 224.296 92.0584 226.36 92.0584 229.144C92.0584 231.896 91.4824 235.176 88.3304 235.176C86.2184 235.176 85.3224 233.944 85.0664 232.696ZM88.4264 225.464C87.0024 225.464 86.3624 226.488 86.3624 227.768C86.3624 229.112 87.1304 229.992 88.3784 229.992C89.8504 229.992 90.5064 229.224 90.5064 227.832C90.5064 227.176 90.2664 225.464 88.4264 225.464ZM97.1463 235H95.7223V226.152C95.1943 226.536 94.1223 226.968 93.5463 227.064V225.928C94.3463 225.72 95.3703 225.112 96.0903 224.424H97.1463V235ZM106.509 235H99.5165V234.92C99.5165 233.4 100.525 231.816 102.701 230.184C104.381 228.888 104.845 228.488 104.845 227.32C104.845 226.264 104.285 225.464 103.021 225.464C101.741 225.464 101.133 226.136 100.924 227.416H99.5485C99.7245 225.64 100.861 224.28 103.021 224.28C105.373 224.28 106.285 225.8 106.285 227.288C106.285 228.872 105.613 229.496 103.677 231C102.221 232.12 101.453 232.968 101.181 233.768H106.701L106.509 235ZM109.509 226.984H108.149C108.309 225.688 109.237 224.28 111.477 224.28C113.669 224.28 114.661 225.624 114.661 227.016C114.661 228.296 113.893 228.952 113.253 229.192V229.24C114.197 229.544 115.109 230.312 115.109 231.896C115.109 233.56 114.069 235.192 111.461 235.192C109.045 235.192 108.005 233.688 107.861 232.28H109.253C109.461 233.208 110.165 234.04 111.525 234.04C113.029 234.04 113.653 233.032 113.653 231.896C113.653 230.504 112.789 229.864 111.381 229.864H110.613V228.712H111.253C112.629 228.712 113.237 228.168 113.237 227.064C113.237 226.12 112.597 225.464 111.429 225.464C110.165 225.464 109.701 226.136 109.509 226.984ZM122.973 235H121.629V232.296H116.669V231.032L121.469 224.472H122.973V231.096H124.333L124.173 232.296H122.973V235ZM121.629 231.096V228.44C121.629 227.624 121.629 226.584 121.661 225.896C121.229 226.712 119.181 229.512 118.061 231.096H121.629ZM125.756 230.28H129.964V231.544H125.756V230.28ZM138.555 224.472L138.363 225.704H133.963C133.867 226.552 133.595 228.136 133.499 228.712C133.947 228.216 134.635 227.864 135.707 227.864C137.627 227.864 138.875 229.192 138.875 231.352C138.875 233.4 137.787 235.192 135.243 235.192C133.355 235.192 131.995 234.152 131.723 232.376H133.147C133.387 233.336 134.091 234.04 135.291 234.04C136.715 234.04 137.435 233.016 137.435 231.464C137.435 230.104 136.859 229.064 135.403 229.064C134.123 229.064 133.611 229.592 133.227 230.44L131.915 230.2C132.235 228.808 132.635 225.8 132.795 224.472H138.555ZM147.479 226.776H146.087C145.879 226.008 145.383 225.432 144.311 225.432C142.535 225.432 141.959 227.096 141.895 229.32C142.327 228.584 143.111 227.864 144.567 227.864C146.615 227.864 147.799 229.336 147.799 231.368C147.799 233.432 146.583 235.192 144.247 235.192C141.351 235.192 140.503 232.84 140.503 229.88C140.503 226.984 141.447 224.28 144.359 224.28C146.503 224.28 147.335 225.688 147.479 226.776ZM144.231 234.024C145.751 234.024 146.359 232.792 146.359 231.464C146.359 230.296 145.895 229.032 144.279 229.032C142.983 229.032 142.055 229.864 142.055 231.464C142.055 232.328 142.503 234.024 144.231 234.024ZM148.726 224.472H155.638V225.64C153.814 228.104 152.102 231.912 151.558 235H150.102C150.598 232.008 152.47 227.944 154.166 225.704H148.726V224.472ZM160.399 235.192C158.351 235.192 156.783 233.992 156.783 232.024C156.783 230.536 157.775 229.688 158.687 229.336C157.775 228.888 157.231 228.152 157.231 227.096C157.231 225.464 158.383 224.28 160.543 224.28C162.527 224.28 163.743 225.448 163.743 227.08C163.743 228.2 163.119 228.936 162.271 229.272C163.263 229.592 164.142 230.584 164.142 231.976C164.142 233.992 162.591 235.192 160.399 235.192ZM160.479 234.04C161.791 234.04 162.719 233.336 162.719 231.976C162.719 230.632 161.855 229.928 160.463 229.928C158.927 229.928 158.223 230.808 158.223 231.96C158.223 233.144 159.055 234.04 160.479 234.04ZM160.495 225.448C159.167 225.448 158.623 226.12 158.623 227.096C158.623 227.992 159.183 228.744 160.527 228.744C161.775 228.744 162.351 228.136 162.351 227.144C162.351 226.216 161.759 225.448 160.495 225.448Z" fill="#141414"/>
</g>
<path d="M51.462 272.302V273.534H46.66V276.782H51.938L51.756 278H45.246V268.284H51.686V269.502H46.66V272.302H51.462ZM53.1102 273.8H56.8342V275.032H53.1102V273.8ZM58.5705 278V272.722C58.5705 272.106 58.5705 271.462 58.5565 270.874H59.8865C59.9005 271.084 59.9425 271.588 59.9425 271.924C60.2645 271.308 60.8805 270.706 61.9865 270.706C63.0085 270.706 63.6665 271.224 63.9465 271.952C64.3245 271.294 64.9965 270.706 66.2005 270.706C67.3765 270.706 68.4405 271.406 68.4405 273.324V278H67.0965V273.492C67.0965 272.694 66.8165 271.868 65.7525 271.868C64.6605 271.868 64.1845 272.68 64.1845 273.912V278H62.8405V273.534C62.8405 272.652 62.6025 271.882 61.5385 271.882C60.4605 271.882 59.9425 272.722 59.9425 274.052V278H58.5705ZM75.8287 273.072V276.404C75.8287 277.048 75.8847 277.804 75.9267 278H74.6107C74.5547 277.846 74.5127 277.51 74.4987 277.118C74.2467 277.58 73.7007 278.168 72.3427 278.168C70.6487 278.168 69.9347 277.076 69.9347 275.984C69.9347 274.388 71.1947 273.66 73.3087 273.66C73.7707 273.66 74.2187 273.66 74.4847 273.66V273.086C74.4847 272.484 74.2887 271.756 73.0287 271.756C71.9087 271.756 71.7127 272.302 71.5867 272.862H70.2707C70.3687 271.826 70.9987 270.706 73.0707 270.706C74.8487 270.72 75.8287 271.434 75.8287 273.072ZM74.4847 274.794V274.57C74.2747 274.57 73.7567 274.57 73.4067 274.57C72.0207 274.57 71.3207 274.962 71.3207 275.914C71.3207 276.6 71.7967 277.118 72.6367 277.118C74.2747 277.118 74.4847 276.026 74.4847 274.794ZM77.8752 278V270.874H79.2612V278H77.8752ZM77.8752 269.32V267.738H79.2612V269.32H77.8752ZM82.6792 278H81.2932V267.738H82.6792V278Z" fill="#424242"/>
<g filter="url(#filter3_d_1877_85492)">
<path d="M44 299C44 294.582 47.5817 291 52 291H330C334.418 291 338 294.582 338 299V327C338 331.418 334.418 335 330 335H52C47.5817 335 44 331.418 44 327V299Z" fill="white" shape-rendering="crispEdges"/>
<path d="M52 291.5H330C334.142 291.5 337.5 294.858 337.5 299V327C337.5 331.142 334.142 334.5 330 334.5H52C47.8579 334.5 44.5 331.142 44.5 327V299C44.5 294.858 47.8579 291.5 52 291.5Z" stroke="#D6D6D6" shape-rendering="crispEdges"/>
<path d="M64.208 314.52H65.6C65.248 315.928 64.304 317.192 62.24 317.192C60.016 317.192 58.624 315.592 58.624 313C58.624 310.696 59.92 308.696 62.336 308.696C64.688 308.696 65.488 310.376 65.6 311.416H64.208C64 310.584 63.488 309.88 62.32 309.88C60.88 309.88 60.064 311.112 60.064 312.952C60.064 314.792 60.848 316.04 62.256 316.04C63.28 316.04 63.872 315.496 64.208 314.52ZM73.3726 311.368V315.24C73.3726 315.976 73.4366 316.776 73.4846 317H72.1406C72.0766 316.824 72.0286 316.44 72.0126 315.944C71.7246 316.488 71.0846 317.192 69.5166 317.192C67.5966 317.192 66.7806 315.96 66.7806 314.728C66.7806 312.904 68.2046 312.088 70.6206 312.088C71.1806 312.088 71.6926 312.088 71.9966 312.088V311.384C71.9966 310.68 71.7726 309.8 70.2526 309.8C68.8926 309.8 68.6686 310.472 68.5246 311.112H67.1646C67.2766 309.992 67.9646 308.696 70.3006 308.696C72.2846 308.712 73.3726 309.512 73.3726 311.368ZM72.0126 313.32V313.048C71.7406 313.048 71.1326 313.048 70.7006 313.048C69.0686 313.048 68.2046 313.496 68.2046 314.648C68.2046 315.48 68.7966 316.104 69.7886 316.104C71.7406 316.104 72.0126 314.792 72.0126 313.32ZM75.7934 317V311.096C75.7934 309.96 75.7934 309.32 75.7774 308.888H77.1534C77.1854 309.128 77.2014 309.752 77.2014 310.552C77.6174 309.448 78.5934 308.744 79.9374 308.696V310.104C78.2734 310.152 77.2014 311.016 77.2014 313.064V317H75.7934ZM82.8108 317H81.4028V305.256H82.8108V317ZM88.4476 308.696C90.7036 308.696 92.1756 310.392 92.1756 312.936C92.1756 315.272 90.8316 317.192 88.3516 317.192C86.0316 317.192 84.6236 315.4 84.6236 312.968C84.6236 310.568 85.9996 308.696 88.4476 308.696ZM88.3836 309.88C86.8636 309.88 86.0636 311.096 86.0636 312.952C86.0636 314.728 86.9596 316.024 88.4156 316.024C89.9036 316.024 90.7356 314.792 90.7356 312.952C90.7356 311.128 89.9036 309.88 88.3836 309.88ZM93.4019 314.68H94.7939C95.0179 315.576 95.6739 316.088 96.7779 316.088C97.9779 316.088 98.4419 315.576 98.4419 314.84C98.4419 314.088 98.0739 313.736 96.5219 313.352C94.2019 312.792 93.7219 312.088 93.7219 310.984C93.7219 309.832 94.5539 308.696 96.6499 308.696C98.7299 308.696 99.5939 309.912 99.7059 311.048H98.3459C98.2339 310.52 97.8339 309.784 96.5859 309.784C95.4499 309.784 95.1139 310.344 95.1139 310.872C95.1139 311.48 95.4499 311.768 96.9379 312.136C99.3859 312.712 99.8819 313.528 99.8819 314.744C99.8819 316.168 98.7619 317.192 96.7299 317.192C94.6339 317.192 93.6099 316.136 93.4019 314.68ZM103.055 317H101.583V314.648H103.055V317ZM108.338 308.696C110.594 308.696 112.066 310.392 112.066 312.936C112.066 315.272 110.722 317.192 108.242 317.192C105.922 317.192 104.514 315.4 104.514 312.968C104.514 310.568 105.89 308.696 108.338 308.696ZM108.274 309.88C106.754 309.88 105.954 311.096 105.954 312.952C105.954 314.728 106.85 316.024 108.306 316.024C109.794 316.024 110.626 314.792 110.626 312.952C110.626 311.128 109.794 309.88 108.274 309.88ZM115.295 317H113.887V305.256H115.295V317ZM117.684 317V308.888H119.092V317H117.684ZM117.684 307.016V305.256H119.092V307.016H117.684ZM120.551 308.888H122.039C123.143 312.216 123.943 314.696 124.183 315.704H124.199C124.391 314.808 125.255 312.376 126.471 308.888H127.911L124.919 317H123.383L120.551 308.888ZM135.791 313.208H130.079C130.079 314.856 130.911 316.024 132.287 316.024C133.583 316.024 133.999 315.368 134.255 314.776H135.663C135.343 315.816 134.479 317.192 132.255 317.192C129.695 317.192 128.655 315.128 128.655 313.032C128.655 310.632 129.871 308.696 132.335 308.696C134.959 308.696 135.823 310.808 135.823 312.536C135.823 312.776 135.823 312.984 135.791 313.208ZM130.127 312.216H134.399C134.383 310.888 133.711 309.816 132.319 309.816C130.895 309.816 130.271 310.808 130.127 312.216ZM137.668 317V308.888H139.076V317H137.668ZM137.668 307.016V305.256H139.076V307.016H137.668ZM141.465 317V311.096C141.465 309.96 141.465 309.32 141.449 308.888H142.825C142.857 309.128 142.873 309.752 142.873 310.552C143.289 309.448 144.265 308.744 145.609 308.696V310.104C143.945 310.152 142.873 311.016 142.873 313.064V317H141.465ZM152.873 311.368V315.24C152.873 315.976 152.937 316.776 152.985 317H151.641C151.577 316.824 151.529 316.44 151.513 315.944C151.225 316.488 150.585 317.192 149.017 317.192C147.097 317.192 146.281 315.96 146.281 314.728C146.281 312.904 147.705 312.088 150.121 312.088C150.681 312.088 151.193 312.088 151.497 312.088V311.384C151.497 310.68 151.273 309.8 149.753 309.8C148.393 309.8 148.169 310.472 148.025 311.112H146.665C146.777 309.992 147.465 308.696 149.801 308.696C151.785 308.712 152.873 309.512 152.873 311.368ZM151.513 313.32V313.048C151.241 313.048 150.633 313.048 150.201 313.048C148.569 313.048 147.705 313.496 147.705 314.648C147.705 315.48 148.297 316.104 149.289 316.104C151.241 316.104 151.513 314.792 151.513 313.32ZM164.957 317.832L165.261 318.824C164.477 319.352 163.245 319.8 161.357 319.8C157.725 319.8 155.117 317.32 155.117 313.4C155.117 309.352 157.837 306.312 162.077 306.312C165.341 306.312 168.061 308.28 168.061 311.896C168.061 314.776 166.573 316.536 164.509 316.536C163.597 316.536 162.941 316.168 162.893 315.288C162.365 316.088 161.709 316.536 160.621 316.536C159.341 316.536 158.349 315.608 158.349 313.736C158.349 311.32 159.805 309.432 161.661 309.432C162.925 309.432 163.421 310.12 163.565 310.664L163.837 309.592H165.101L164.125 314.088C163.901 315.128 164.189 315.432 164.765 315.432C165.981 315.432 166.861 314.056 166.861 311.96C166.861 309.16 164.909 307.384 162.029 307.384C158.589 307.384 156.397 309.816 156.381 313.4C156.381 316.392 158.333 318.68 161.421 318.68C162.733 318.68 163.933 318.44 164.957 317.832ZM161.805 310.504C160.493 310.504 159.725 312.04 159.725 313.656C159.725 314.808 160.173 315.432 160.957 315.432C161.933 315.432 162.653 314.776 163.037 313.032C163.421 311.336 162.989 310.504 161.805 310.504ZM176.807 313.208H171.095C171.095 314.856 171.927 316.024 173.303 316.024C174.599 316.024 175.015 315.368 175.271 314.776H176.679C176.359 315.816 175.495 317.192 173.271 317.192C170.711 317.192 169.671 315.128 169.671 313.032C169.671 310.632 170.887 308.696 173.351 308.696C175.975 308.696 176.839 310.808 176.839 312.536C176.839 312.776 176.839 312.984 176.807 313.208ZM171.143 312.216H175.415C175.399 310.888 174.727 309.816 173.335 309.816C171.911 309.816 171.287 310.808 171.143 312.216ZM178.637 317V310.984C178.637 310.28 178.637 309.56 178.621 308.888H179.981C179.997 309.144 180.045 309.736 180.029 310.136C180.397 309.416 181.117 308.696 182.397 308.696C183.549 308.696 184.333 309.288 184.637 310.152C185.069 309.384 185.837 308.696 187.229 308.696C188.541 308.696 189.789 309.48 189.789 311.672V317H188.397V311.848C188.397 310.904 188.061 309.912 186.797 309.912C185.485 309.912 184.909 310.904 184.909 312.344V317H183.533V311.896C183.533 310.84 183.229 309.912 181.965 309.912C180.653 309.912 180.029 310.968 180.029 312.52V317H178.637ZM198.123 311.368V315.24C198.123 315.976 198.187 316.776 198.235 317H196.891C196.827 316.824 196.779 316.44 196.763 315.944C196.475 316.488 195.835 317.192 194.267 317.192C192.347 317.192 191.531 315.96 191.531 314.728C191.531 312.904 192.955 312.088 195.371 312.088C195.931 312.088 196.443 312.088 196.747 312.088V311.384C196.747 310.68 196.523 309.8 195.003 309.8C193.643 309.8 193.419 310.472 193.275 311.112H191.915C192.027 309.992 192.715 308.696 195.051 308.696C197.035 308.712 198.123 309.512 198.123 311.368ZM196.763 313.32V313.048C196.491 313.048 195.883 313.048 195.451 313.048C193.819 313.048 192.955 313.496 192.955 314.648C192.955 315.48 193.547 316.104 194.539 316.104C196.491 316.104 196.763 314.792 196.763 313.32ZM200.543 317V308.888H201.951V317H200.543ZM200.543 307.016V305.256H201.951V307.016H200.543ZM205.748 317H204.34V305.256H205.748V317ZM209.941 317H208.549V310.04H207.237V308.888H208.549V307.928C208.549 306.424 209.125 305.096 210.917 305.096C211.205 305.096 211.605 305.144 211.813 305.208V306.392C211.605 306.344 211.317 306.328 211.093 306.328C210.261 306.328 209.941 306.824 209.941 308.008V308.888H211.573V310.04H209.941V317ZM212.934 317V308.888H214.342V317H212.934ZM212.934 307.016V305.256H214.342V307.016H212.934ZM221.755 314.52H223.147C222.795 315.928 221.851 317.192 219.787 317.192C217.563 317.192 216.171 315.592 216.171 313C216.171 310.696 217.467 308.696 219.883 308.696C222.235 308.696 223.035 310.376 223.147 311.416H221.755C221.547 310.584 221.035 309.88 219.867 309.88C218.427 309.88 217.611 311.112 217.611 312.952C217.611 314.792 218.395 316.04 219.803 316.04C220.827 316.04 221.419 315.496 221.755 314.52ZM223.941 310.04V308.888H225.349V306.504H226.757V308.888H228.533V310.04H226.757V314.792C226.757 315.576 226.949 315.976 227.669 315.976C227.877 315.976 228.165 315.976 228.389 315.912V316.968C228.037 317.096 227.557 317.112 227.173 317.112C225.909 317.112 225.349 316.472 225.349 315.112V310.04H223.941ZM230.028 317V308.888H231.436V317H230.028ZM230.028 307.016V305.256H231.436V307.016H230.028ZM238.849 314.52H240.241C239.889 315.928 238.945 317.192 236.881 317.192C234.657 317.192 233.265 315.592 233.265 313C233.265 310.696 234.561 308.696 236.977 308.696C239.329 308.696 240.129 310.376 240.241 311.416H238.849C238.641 310.584 238.129 309.88 236.961 309.88C235.521 309.88 234.705 311.112 234.705 312.952C234.705 314.792 235.489 316.04 236.897 316.04C237.921 316.04 238.513 315.496 238.849 314.52ZM242.043 317V308.888H243.451V317H242.043ZM242.043 307.016V305.256H243.451V307.016H242.043ZM249.088 308.696C251.344 308.696 252.816 310.392 252.816 312.936C252.816 315.272 251.472 317.192 248.992 317.192C246.672 317.192 245.264 315.4 245.264 312.968C245.264 310.568 246.64 308.696 249.088 308.696ZM249.024 309.88C247.504 309.88 246.704 311.096 246.704 312.952C246.704 314.728 247.6 316.024 249.056 316.024C250.544 316.024 251.376 314.792 251.376 312.952C251.376 311.128 250.544 309.88 249.024 309.88ZM255.727 317H254.255V314.648H255.727V317ZM262.786 314.52H264.178C263.826 315.928 262.882 317.192 260.818 317.192C258.594 317.192 257.202 315.592 257.202 313C257.202 310.696 258.498 308.696 260.914 308.696C263.266 308.696 264.066 310.376 264.178 311.416H262.786C262.578 310.584 262.066 309.88 260.898 309.88C259.458 309.88 258.642 311.112 258.642 312.952C258.642 314.792 259.426 316.04 260.834 316.04C261.858 316.04 262.45 315.496 262.786 314.52ZM269.182 308.696C271.438 308.696 272.91 310.392 272.91 312.936C272.91 315.272 271.566 317.192 269.086 317.192C266.766 317.192 265.358 315.4 265.358 312.968C265.358 310.568 266.734 308.696 269.182 308.696ZM269.118 309.88C267.598 309.88 266.798 311.096 266.798 312.952C266.798 314.728 267.694 316.024 269.15 316.024C270.638 316.024 271.47 314.792 271.47 312.952C271.47 311.128 270.638 309.88 269.118 309.88ZM274.731 317V310.984C274.731 310.28 274.731 309.56 274.715 308.888H276.075C276.091 309.144 276.139 309.736 276.123 310.136C276.491 309.416 277.211 308.696 278.491 308.696C279.643 308.696 280.427 309.288 280.731 310.152C281.163 309.384 281.931 308.696 283.323 308.696C284.635 308.696 285.883 309.48 285.883 311.672V317H284.491V311.848C284.491 310.904 284.155 309.912 282.891 309.912C281.579 309.912 281.003 310.904 281.003 312.344V317H279.627V311.896C279.627 310.84 279.323 309.912 278.059 309.912C276.747 309.912 276.123 310.968 276.123 312.52V317H274.731Z" fill="#141414"/>
</g>
</g>
<defs>
<filter id="filter0_dd_1877_85492" x="0" y="0" width="382" height="419" filterUnits="userSpaceOnUse" color-interpolation-filters="sRGB">
<feFlood flood-opacity="0" result="BackgroundImageFix"/>
<feColorMatrix in="SourceAlpha" type="matrix" values="0 0 0 0 0 0 0 0 0 0 0 0 0 0 0 0 0 0 127 0" result="hardAlpha"/>
<feMorphology radius="4" operator="erode" in="SourceAlpha" result="effect1_dropShadow_1877_85492"/>
<feOffset dy="8"/>
<feGaussianBlur stdDeviation="4"/>
<feComposite in2="hardAlpha" operator="out"/>
<feColorMatrix type="matrix" values="0 0 0 0 0.0627451 0 0 0 0 0.0941176 0 0 0 0 0.156863 0 0 0 0.03 0"/>
<feBlend mode="normal" in2="BackgroundImageFix" result="effect1_dropShadow_1877_85492"/>
<feColorMatrix in="SourceAlpha" type="matrix" values="0 0 0 0 0 0 0 0 0 0 0 0 0 0 0 0 0 0 127 0" result="hardAlpha"/>
<feMorphology radius="4" operator="erode" in="SourceAlpha" result="effect2_dropShadow_1877_85492"/>
<feOffset dy="20"/>
<feGaussianBlur stdDeviation="12"/>
<feComposite in2="hardAlpha" operator="out"/>
<feColorMatrix type="matrix" values="0 0 0 0 0.0627451 0 0 0 0 0.0941176 0 0 0 0 0.156863 0 0 0 0.08 0"/>
<feBlend mode="normal" in2="effect1_dropShadow_1877_85492" result="effect2_dropShadow_1877_85492"/>
<feBlend mode="normal" in="SourceGraphic" in2="effect2_dropShadow_1877_85492" result="shape"/>
</filter>
<filter id="filter1_d_1877_85492" x="42" y="126" width="298" height="48" filterUnits="userSpaceOnUse" color-interpolation-filters="sRGB">
<feFlood flood-opacity="0" result="BackgroundImageFix"/>
<feColorMatrix in="SourceAlpha" type="matrix" values="0 0 0 0 0 0 0 0 0 0 0 0 0 0 0 0 0 0 127 0" result="hardAlpha"/>
<feOffset dy="1"/>
<feGaussianBlur stdDeviation="1"/>
<feComposite in2="hardAlpha" operator="out"/>
<feColorMatrix type="matrix" values="0 0 0 0 0.0627451 0 0 0 0 0.0941176 0 0 0 0 0.156863 0 0 0 0.05 0"/>
<feBlend mode="normal" in2="BackgroundImageFix" result="effect1_dropShadow_1877_85492"/>
<feBlend mode="normal" in="SourceGraphic" in2="effect1_dropShadow_1877_85492" result="shape"/>
</filter>
<filter id="filter2_d_1877_85492" x="42" y="208" width="298" height="48" filterUnits="userSpaceOnUse" color-interpolation-filters="sRGB">
<feFlood flood-opacity="0" result="BackgroundImageFix"/>
<feColorMatrix in="SourceAlpha" type="matrix" values="0 0 0 0 0 0 0 0 0 0 0 0 0 0 0 0 0 0 127 0" result="hardAlpha"/>
<feOffset dy="1"/>
<feGaussianBlur stdDeviation="1"/>
<feComposite in2="hardAlpha" operator="out"/>
<feColorMatrix type="matrix" values="0 0 0 0 0.0627451 0 0 0 0 0.0941176 0 0 0 0 0.156863 0 0 0 0.05 0"/>
<feBlend mode="normal" in2="BackgroundImageFix" result="effect1_dropShadow_1877_85492"/>
<feBlend mode="normal" in="SourceGraphic" in2="effect1_dropShadow_1877_85492" result="shape"/>
</filter>
<filter id="filter3_d_1877_85492" x="42" y="290" width="298" height="48" filterUnits="userSpaceOnUse" color-interpolation-filters="sRGB">
<feFlood flood-opacity="0" result="BackgroundImageFix"/>
<feColorMatrix in="SourceAlpha" type="matrix" values="0 0 0 0 0 0 0 0 0 0 0 0 0 0 0 0 0 0 127 0" result="hardAlpha"/>
<feOffset dy="1"/>
<feGaussianBlur stdDeviation="1"/>
<feComposite in2="hardAlpha" operator="out"/>
<feColorMatrix type="matrix" values="0 0 0 0 0.0627451 0 0 0 0 0.0941176 0 0 0 0 0.156863 0 0 0 0.05 0"/>
<feBlend mode="normal" in2="BackgroundImageFix" result="effect1_dropShadow_1877_85492"/>
<feBlend mode="normal" in="SourceGraphic" in2="effect1_dropShadow_1877_85492" result="shape"/>
</filter>
<linearGradient id="paint0_linear_1877_85492" x1="191" y1="0" x2="191" y2="379" gradientUnits="userSpaceOnUse">
<stop stop-color="#9BC58A"/>
<stop offset="0.182692" stop-color="#C2DAB3"/>
<stop offset="0.75" stop-color="#AECC56"/>
<stop offset="1" stop-color="#467541"/>
</linearGradient>
</defs>
</svg>
