<svg width="382" height="419" viewBox="0 0 382 419" fill="none" xmlns="http://www.w3.org/2000/svg">
<g filter="url(#filter0_dd_1877_85340)">
<rect x="20" width="342" height="379" rx="12" fill="white"/>
<rect x="22" y="2" width="338" height="375" rx="10" stroke="url(#paint0_linear_1877_85340)" stroke-width="4" stroke-linecap="round" stroke-linejoin="round"/>
<path d="M45.53 42V29.562H50.3C53.882 29.562 56.24 31.956 56.24 35.646C56.24 39.282 53.954 42 50.21 42H45.53ZM47.87 31.47V40.092H50.084C52.658 40.092 53.828 38.22 53.828 35.646C53.828 33.468 52.748 31.47 50.102 31.47H47.87ZM65.665 35.682V39.75C65.665 40.614 65.737 41.766 65.791 42H63.649C63.577 41.82 63.523 41.352 63.523 41.01C63.181 41.55 62.515 42.216 60.841 42.216C58.609 42.216 57.673 40.776 57.673 39.354C57.673 37.248 59.347 36.294 62.083 36.294C62.587 36.294 63.163 36.294 63.487 36.294V35.646C63.487 34.944 63.235 34.17 61.867 34.17C60.625 34.17 60.391 34.746 60.247 35.43H58.105C58.249 33.9 59.185 32.532 61.939 32.532C64.351 32.55 65.665 33.504 65.665 35.682ZM63.487 37.95V37.698C63.253 37.698 62.677 37.698 62.299 37.698C60.643 37.698 59.941 38.184 59.941 39.21C59.941 39.984 60.427 40.596 61.417 40.596C63.253 40.596 63.487 39.336 63.487 37.95ZM74.0867 28.842H76.3187V39.444C76.3187 40.29 76.3187 41.154 76.3367 42H74.1947C74.1407 41.748 74.1047 41.19 74.0867 40.92C73.6367 41.73 72.7907 42.216 71.3687 42.216C69.0107 42.216 67.5347 40.326 67.5347 37.464C67.5347 34.62 69.1187 32.532 71.7107 32.532C73.1507 32.532 73.8707 33.072 74.0867 33.522V28.842ZM72.0707 34.35C70.6307 34.35 69.8387 35.484 69.8387 37.41C69.8387 39.354 70.6667 40.416 71.9807 40.416C73.8707 40.416 74.1767 38.904 74.1767 37.338C74.1767 35.592 73.8887 34.35 72.0707 34.35ZM82.7235 32.532C85.3875 32.532 87.1155 34.458 87.1155 37.356C87.1155 40.128 85.4955 42.216 82.5975 42.216C79.8075 42.216 78.1515 40.182 78.1515 37.41C78.1515 34.602 79.8255 32.532 82.7235 32.532ZM82.6335 34.314C81.2475 34.314 80.4375 35.376 80.4375 37.374C80.4375 39.246 81.2835 40.452 82.6695 40.452C84.0555 40.452 84.8475 39.264 84.8475 37.392C84.8475 35.412 84.0555 34.314 82.6335 34.314ZM88.397 39.264H90.611C90.827 40.11 91.475 40.578 92.537 40.578C93.617 40.578 94.013 40.146 94.013 39.498C94.013 38.814 93.617 38.526 92.141 38.166C89.243 37.464 88.739 36.564 88.739 35.268C88.739 33.936 89.693 32.532 92.357 32.532C95.021 32.532 95.975 34.026 96.065 35.286H93.941C93.833 34.854 93.527 34.152 92.249 34.152C91.259 34.152 90.953 34.602 90.953 35.088C90.953 35.628 91.259 35.898 92.825 36.258C95.831 36.96 96.299 37.968 96.299 39.336C96.299 40.902 95.093 42.216 92.447 42.216C89.783 42.216 88.613 40.92 88.397 39.264ZM108.522 28.842H110.754V39.444C110.754 40.29 110.754 41.154 110.772 42H108.63C108.576 41.748 108.54 41.19 108.522 40.92C108.072 41.73 107.226 42.216 105.804 42.216C103.446 42.216 101.97 40.326 101.97 37.464C101.97 34.62 103.554 32.532 106.146 32.532C107.586 32.532 108.306 33.072 108.522 33.522V28.842ZM106.506 34.35C105.066 34.35 104.274 35.484 104.274 37.41C104.274 39.354 105.102 40.416 106.416 40.416C108.306 40.416 108.612 38.904 108.612 37.338C108.612 35.592 108.324 34.35 106.506 34.35ZM121.083 37.842H114.855C114.855 39.246 115.557 40.452 116.925 40.452C118.131 40.452 118.491 39.912 118.743 39.3H120.993C120.651 40.452 119.643 42.216 116.871 42.216C113.865 42.216 112.587 39.912 112.587 37.5C112.587 34.656 114.045 32.532 116.961 32.532C120.075 32.532 121.119 34.872 121.119 37.068C121.119 37.374 121.119 37.59 121.083 37.842ZM114.909 36.42H118.869C118.851 35.196 118.311 34.188 116.961 34.188C115.593 34.188 115.017 35.124 114.909 36.42ZM132.841 39.066H135.037C134.695 40.632 133.615 42.216 130.987 42.216C128.233 42.216 126.721 40.29 126.721 37.446C126.721 34.746 128.323 32.532 131.113 32.532C134.083 32.532 134.965 34.674 135.037 35.754H132.841C132.661 34.944 132.193 34.314 131.077 34.314C129.745 34.314 128.989 35.466 128.989 37.374C128.989 39.39 129.763 40.452 131.041 40.452C132.013 40.452 132.553 39.912 132.841 39.066ZM140.837 32.532C143.501 32.532 145.229 34.458 145.229 37.356C145.229 40.128 143.609 42.216 140.711 42.216C137.921 42.216 136.265 40.182 136.265 37.41C136.265 34.602 137.939 32.532 140.837 32.532ZM140.747 34.314C139.361 34.314 138.551 35.376 138.551 37.374C138.551 39.246 139.397 40.452 140.783 40.452C142.169 40.452 142.961 39.264 142.961 37.392C142.961 35.412 142.169 34.314 140.747 34.314ZM147.124 42V35.088C147.124 34.296 147.124 33.45 147.106 32.748H149.284C149.32 33 149.356 33.756 149.356 34.044C149.698 33.396 150.454 32.532 152.128 32.532C153.946 32.532 155.206 33.738 155.206 36.096V42H152.956V36.366C152.956 35.196 152.542 34.386 151.318 34.386C150.022 34.386 149.356 35.232 149.356 36.942V42H147.124ZM156.47 34.476V32.748H157.964V30.174H160.196V32.748H162.086V34.476H160.196V39.318C160.196 40.092 160.412 40.434 161.204 40.434C161.366 40.434 161.636 40.434 161.852 40.38V41.964C161.384 42.126 160.736 42.126 160.25 42.126C158.558 42.126 157.964 41.244 157.964 39.66V34.476H156.47ZM171.046 35.682V39.75C171.046 40.614 171.118 41.766 171.172 42H169.03C168.958 41.82 168.904 41.352 168.904 41.01C168.562 41.55 167.896 42.216 166.222 42.216C163.99 42.216 163.054 40.776 163.054 39.354C163.054 37.248 164.728 36.294 167.464 36.294C167.968 36.294 168.544 36.294 168.868 36.294V35.646C168.868 34.944 168.616 34.17 167.248 34.17C166.006 34.17 165.772 34.746 165.628 35.43H163.486C163.63 33.9 164.566 32.532 167.32 32.532C169.732 32.55 171.046 33.504 171.046 35.682ZM168.868 37.95V37.698C168.634 37.698 168.058 37.698 167.68 37.698C166.024 37.698 165.322 38.184 165.322 39.21C165.322 39.984 165.808 40.596 166.798 40.596C168.634 40.596 168.868 39.336 168.868 37.95ZM172.361 34.476V32.748H173.855V30.174H176.087V32.748H177.977V34.476H176.087V39.318C176.087 40.092 176.303 40.434 177.095 40.434C177.257 40.434 177.527 40.434 177.743 40.38V41.964C177.275 42.126 176.627 42.126 176.141 42.126C174.449 42.126 173.855 41.244 173.855 39.66V34.476H172.361ZM183.446 32.532C186.11 32.532 187.838 34.458 187.838 37.356C187.838 40.128 186.218 42.216 183.32 42.216C180.53 42.216 178.874 40.182 178.874 37.41C178.874 34.602 180.548 32.532 183.446 32.532ZM183.356 34.314C181.97 34.314 181.16 35.376 181.16 37.374C181.16 39.246 182.006 40.452 183.392 40.452C184.778 40.452 185.57 39.264 185.57 37.392C185.57 35.412 184.778 34.314 183.356 34.314Z" fill="#004415"/>
<path fill-rule="evenodd" clip-rule="evenodd" d="M338 77H44V76H338V77Z" fill="#E5E5E5"/>
<path d="M46.604 114H45.246V104.284H47.122C48.494 106.538 51.378 111.2 51.896 112.264H51.924C51.826 111.06 51.826 109.492 51.826 107.91V104.284H53.184V114H51.406C50.174 111.942 47.136 106.86 46.548 105.768H46.534C46.604 106.818 46.604 108.54 46.604 110.29V114ZM58.2833 106.706C60.2853 106.706 61.6013 108.19 61.6013 110.43C61.6013 112.502 60.3973 114.168 58.2133 114.168C56.1273 114.168 54.8813 112.6 54.8813 110.458C54.8813 108.33 56.1133 106.706 58.2833 106.706ZM58.2273 107.84C56.9813 107.84 56.2953 108.834 56.2953 110.444C56.2953 111.97 57.0373 113.048 58.2553 113.048C59.5013 113.048 60.1873 112.012 60.1873 110.444C60.1873 108.862 59.5013 107.84 58.2273 107.84ZM63.1369 114V108.722C63.1369 108.106 63.1369 107.462 63.1229 106.874H64.4529C64.4669 107.084 64.5089 107.588 64.5089 107.924C64.8309 107.308 65.4469 106.706 66.5529 106.706C67.5749 106.706 68.2329 107.224 68.5129 107.952C68.8909 107.294 69.5629 106.706 70.7669 106.706C71.9429 106.706 73.0069 107.406 73.0069 109.324V114H71.6629V109.492C71.6629 108.694 71.3829 107.868 70.3189 107.868C69.2269 107.868 68.7509 108.68 68.7509 109.912V114H67.4069V109.534C67.4069 108.652 67.1689 107.882 66.1049 107.882C65.0269 107.882 64.5089 108.722 64.5089 110.052V114H63.1369ZM80.9111 110.71H75.9551C75.9551 112.054 76.6271 113.048 77.8031 113.048C78.8671 113.048 79.2031 112.516 79.4271 112.012H80.8131C80.5331 112.922 79.7631 114.168 77.7611 114.168C75.4931 114.168 74.5551 112.362 74.5551 110.528C74.5551 108.386 75.6471 106.706 77.8311 106.706C80.1551 106.706 80.9251 108.54 80.9251 110.108C80.9251 110.332 80.9251 110.514 80.9111 110.71ZM75.9971 109.772H79.5391C79.5251 108.666 78.9931 107.77 77.8171 107.77C76.6271 107.77 76.1091 108.596 75.9971 109.772ZM90.2686 111.802H91.6406C91.3466 113.02 90.5206 114.168 88.6446 114.168C86.6286 114.168 85.4246 112.74 85.4246 110.486C85.4246 108.456 86.6006 106.706 88.7286 106.706C90.8566 106.706 91.5566 108.232 91.6406 109.128H90.2826C90.1146 108.428 89.6806 107.84 88.7006 107.84C87.5106 107.84 86.8386 108.862 86.8386 110.444C86.8386 112.04 87.4966 113.048 88.6726 113.048C89.5126 113.048 90.0026 112.586 90.2686 111.802ZM96.045 106.706C98.047 106.706 99.363 108.19 99.363 110.43C99.363 112.502 98.159 114.168 95.975 114.168C93.889 114.168 92.643 112.6 92.643 110.458C92.643 108.33 93.875 106.706 96.045 106.706ZM95.989 107.84C94.743 107.84 94.057 108.834 94.057 110.444C94.057 111.97 94.799 113.048 96.017 113.048C97.263 113.048 97.949 112.012 97.949 110.444C97.949 108.862 97.263 107.84 95.989 107.84ZM100.899 114V108.722C100.899 108.106 100.899 107.462 100.885 106.874H102.215C102.229 107.084 102.271 107.588 102.271 107.924C102.593 107.308 103.209 106.706 104.315 106.706C105.337 106.706 105.995 107.224 106.275 107.952C106.653 107.294 107.325 106.706 108.529 106.706C109.705 106.706 110.769 107.406 110.769 109.324V114H109.425V109.492C109.425 108.694 109.145 107.868 108.081 107.868C106.989 107.868 106.513 108.68 106.513 109.912V114H105.169V109.534C105.169 108.652 104.931 107.882 103.867 107.882C102.789 107.882 102.271 108.722 102.271 110.052V114H100.899ZM116.209 114.168C115.075 114.168 114.487 113.706 114.179 113.174V116.8H112.807V108.61C112.807 108.036 112.807 107.434 112.793 106.874H114.137C114.165 107.112 114.179 107.546 114.179 107.952C114.557 107.28 115.257 106.706 116.461 106.706C118.099 106.706 119.303 108.092 119.303 110.262C119.303 112.796 117.931 114.168 116.209 114.168ZM115.985 113.034C117.231 113.034 117.889 112.012 117.889 110.318C117.889 108.848 117.245 107.868 116.069 107.868C114.669 107.868 114.123 108.764 114.123 110.43C114.123 112.054 114.571 113.034 115.985 113.034ZM122.246 114H120.86V103.738H122.246V114ZM130.144 110.71H125.188C125.188 112.054 125.86 113.048 127.036 113.048C128.1 113.048 128.436 112.516 128.66 112.012H130.046C129.766 112.922 128.996 114.168 126.994 114.168C124.726 114.168 123.788 112.362 123.788 110.528C123.788 108.386 124.88 106.706 127.064 106.706C129.388 106.706 130.158 108.54 130.158 110.108C130.158 110.332 130.158 110.514 130.144 110.71ZM125.23 109.772H128.772C128.758 108.666 128.226 107.77 127.05 107.77C125.86 107.77 125.342 108.596 125.23 109.772ZM130.874 107.98V106.874H132.078V104.816H133.45V106.874H134.99V107.98H133.45V112.026C133.45 112.684 133.618 113.02 134.262 113.02C134.416 113.02 134.654 113.006 134.85 112.964V113.972C134.528 114.084 134.08 114.098 133.73 114.098C132.568 114.098 132.078 113.496 132.078 112.306V107.98H130.874ZM139.125 106.706C141.127 106.706 142.443 108.19 142.443 110.43C142.443 112.502 141.239 114.168 139.055 114.168C136.969 114.168 135.723 112.6 135.723 110.458C135.723 108.33 136.955 106.706 139.125 106.706ZM139.069 107.84C137.823 107.84 137.137 108.834 137.137 110.444C137.137 111.97 137.879 113.048 139.097 113.048C140.343 113.048 141.029 112.012 141.029 110.444C141.029 108.862 140.343 107.84 139.069 107.84Z" fill="#424242"/>
<g filter="url(#filter1_d_1877_85340)">
<path d="M44 135C44 130.582 47.5817 127 52 127H330C334.418 127 338 130.582 338 135V163C338 167.418 334.418 171 330 171H52C47.5817 171 44 167.418 44 163V135Z" fill="white" shape-rendering="crispEdges"/>
<path d="M52 127.5H330C334.142 127.5 337.5 130.858 337.5 135V163C337.5 167.142 334.142 170.5 330 170.5H52C47.8579 170.5 44.5 167.142 44.5 163V135C44.5 130.858 47.8579 127.5 52 127.5Z" stroke="#D6D6D6" shape-rendering="crispEdges"/>
<path d="M59.456 153V141.88H63.44C66.56 141.88 68.688 144.008 68.688 147.336C68.688 150.616 66.624 153 63.392 153H59.456ZM60.928 143.128V151.752H63.264C65.888 151.752 67.136 149.88 67.136 147.352C67.136 145.16 66 143.128 63.28 143.128H60.928ZM70.7934 153V144.888H72.2014V153H70.7934ZM70.7934 143.016V141.256H72.2014V143.016H70.7934ZM81.2783 147.24V152.28C81.2783 154.872 80.2063 156.36 77.5663 156.36C75.1023 156.36 74.3503 154.984 74.1903 153.88H75.6303C75.8543 154.76 76.5743 155.24 77.6143 155.24C79.4543 155.24 79.9183 154.072 79.9183 152.2V151.544C79.4863 152.456 78.7343 152.968 77.3903 152.968C75.3903 152.968 74.0303 151.336 74.0303 148.968C74.0303 146.312 75.5663 144.696 77.5343 144.696C79.0703 144.696 79.7263 145.432 79.9183 145.976C79.9343 145.608 79.9663 145.064 79.9823 144.888H81.3103C81.2943 145.368 81.2783 146.456 81.2783 147.24ZM77.7423 145.896C76.2383 145.896 75.4863 147.144 75.4863 148.904C75.4863 150.616 76.3663 151.768 77.6943 151.768C79.4383 151.768 79.9503 150.6 79.9503 148.792C79.9503 146.968 79.4703 145.896 77.7423 145.896ZM83.6684 153V144.888H85.0764V153H83.6684ZM83.6684 143.016V141.256H85.0764V143.016H83.6684ZM86.4878 146.04V144.888H87.8958V142.504H89.3038V144.888H91.0798V146.04H89.3038V150.792C89.3038 151.576 89.4958 151.976 90.2158 151.976C90.4238 151.976 90.7118 151.976 90.9358 151.912V152.968C90.5838 153.096 90.1038 153.112 89.7198 153.112C88.4557 153.112 87.8958 152.472 87.8958 151.112V146.04H86.4878ZM99.0878 149.208H93.3758C93.3758 150.856 94.2078 152.024 95.5838 152.024C96.8798 152.024 97.2958 151.368 97.5518 150.776H98.9598C98.6398 151.816 97.7758 153.192 95.5518 153.192C92.9918 153.192 91.9518 151.128 91.9518 149.032C91.9518 146.632 93.1678 144.696 95.6318 144.696C98.2558 144.696 99.1198 146.808 99.1198 148.536C99.1198 148.776 99.1198 148.984 99.0878 149.208ZM93.4238 148.216H97.6958C97.6798 146.888 97.0078 145.816 95.6158 145.816C94.1918 145.816 93.5678 146.808 93.4238 148.216ZM104.183 150.68H105.575C105.799 151.576 106.455 152.088 107.559 152.088C108.759 152.088 109.223 151.576 109.223 150.84C109.223 150.088 108.855 149.736 107.303 149.352C104.983 148.792 104.503 148.088 104.503 146.984C104.503 145.832 105.335 144.696 107.431 144.696C109.511 144.696 110.375 145.912 110.487 147.048H109.127C109.015 146.52 108.615 145.784 107.367 145.784C106.231 145.784 105.895 146.344 105.895 146.872C105.895 147.48 106.231 147.768 107.719 148.136C110.167 148.712 110.663 149.528 110.663 150.744C110.663 152.168 109.543 153.192 107.511 153.192C105.415 153.192 104.391 152.136 104.183 150.68ZM119.025 149.208H113.313C113.313 150.856 114.145 152.024 115.521 152.024C116.817 152.024 117.233 151.368 117.489 150.776H118.897C118.577 151.816 117.713 153.192 115.489 153.192C112.929 153.192 111.889 151.128 111.889 149.032C111.889 146.632 113.105 144.696 115.569 144.696C118.193 144.696 119.057 146.808 119.057 148.536C119.057 148.776 119.057 148.984 119.025 149.208ZM113.361 148.216H117.633C117.617 146.888 116.945 145.816 115.553 145.816C114.129 145.816 113.505 146.808 113.361 148.216ZM127.352 144.888V150.648C127.352 151.432 127.368 152.536 127.368 153H126.008C125.976 152.792 125.96 152.296 125.96 151.784C125.56 152.696 124.776 153.192 123.496 153.192C122.136 153.192 120.824 152.52 120.824 150.232V144.888H122.216V149.928C122.216 151 122.536 151.976 123.896 151.976C125.384 151.976 125.96 151.16 125.96 149.128V144.888H127.352ZM133.809 153V146.936C133.809 146.232 133.809 145.528 133.793 144.888H135.153C135.185 145.128 135.217 145.992 135.201 146.232C135.537 145.528 136.193 144.696 137.761 144.696C139.281 144.696 140.465 145.64 140.465 147.784V153H139.073V147.976C139.073 146.744 138.593 145.912 137.345 145.912C135.825 145.912 135.201 147.08 135.201 148.712V153H133.809ZM146.104 144.696C148.36 144.696 149.832 146.392 149.832 148.936C149.832 151.272 148.488 153.192 146.008 153.192C143.688 153.192 142.28 151.4 142.28 148.968C142.28 146.568 143.656 144.696 146.104 144.696ZM146.04 145.88C144.52 145.88 143.72 147.096 143.72 148.952C143.72 150.728 144.616 152.024 146.072 152.024C147.56 152.024 148.392 150.792 148.392 148.952C148.392 147.128 147.56 145.88 146.04 145.88ZM151.653 153V146.984C151.653 146.28 151.653 145.56 151.637 144.888H152.997C153.013 145.144 153.061 145.736 153.045 146.136C153.413 145.416 154.133 144.696 155.413 144.696C156.565 144.696 157.349 145.288 157.653 146.152C158.085 145.384 158.853 144.696 160.245 144.696C161.557 144.696 162.805 145.48 162.805 147.672V153H161.413V147.848C161.413 146.904 161.077 145.912 159.813 145.912C158.501 145.912 157.925 146.904 157.925 148.344V153H156.549V147.896C156.549 146.84 156.245 145.912 154.981 145.912C153.669 145.912 153.045 146.968 153.045 148.52V153H151.653ZM171.744 149.208H166.032C166.032 150.856 166.864 152.024 168.24 152.024C169.536 152.024 169.952 151.368 170.208 150.776H171.616C171.296 151.816 170.432 153.192 168.208 153.192C165.648 153.192 164.608 151.128 164.608 149.032C164.608 146.632 165.824 144.696 168.288 144.696C170.912 144.696 171.776 146.808 171.776 148.536C171.776 148.776 171.776 148.984 171.744 149.208ZM166.08 148.216H170.352C170.336 146.888 169.664 145.816 168.272 145.816C166.848 145.816 166.224 146.808 166.08 148.216ZM182.567 150.52H183.959C183.607 151.928 182.663 153.192 180.599 153.192C178.375 153.192 176.983 151.592 176.983 149C176.983 146.696 178.279 144.696 180.695 144.696C183.047 144.696 183.847 146.376 183.959 147.416H182.567C182.359 146.584 181.847 145.88 180.679 145.88C179.239 145.88 178.423 147.112 178.423 148.952C178.423 150.792 179.207 152.04 180.615 152.04C181.639 152.04 182.231 151.496 182.567 150.52ZM188.963 144.696C191.219 144.696 192.691 146.392 192.691 148.936C192.691 151.272 191.347 153.192 188.867 153.192C186.547 153.192 185.139 151.4 185.139 148.968C185.139 146.568 186.515 144.696 188.963 144.696ZM188.899 145.88C187.379 145.88 186.579 147.096 186.579 148.952C186.579 150.728 187.475 152.024 188.931 152.024C190.419 152.024 191.251 150.792 191.251 148.952C191.251 147.128 190.419 145.88 188.899 145.88ZM194.512 153V146.984C194.512 146.28 194.512 145.56 194.496 144.888H195.856C195.872 145.144 195.92 145.736 195.904 146.136C196.272 145.416 196.992 144.696 198.272 144.696C199.424 144.696 200.208 145.288 200.512 146.152C200.944 145.384 201.712 144.696 203.104 144.696C204.416 144.696 205.664 145.48 205.664 147.672V153H204.272V147.848C204.272 146.904 203.936 145.912 202.672 145.912C201.36 145.912 200.784 146.904 200.784 148.344V153H199.408V147.896C199.408 146.84 199.104 145.912 197.84 145.912C196.528 145.912 195.904 146.968 195.904 148.52V153H194.512ZM211.803 153.192C210.491 153.192 209.803 152.648 209.451 152.008V156.2H208.043V146.872C208.043 146.216 208.043 145.528 208.027 144.888H209.403C209.435 145.16 209.451 145.656 209.451 146.168C209.883 145.352 210.715 144.696 212.091 144.696C213.979 144.696 215.339 146.28 215.339 148.744C215.339 151.64 213.771 153.192 211.803 153.192ZM211.611 152.024C213.099 152.024 213.899 150.792 213.899 148.792C213.899 147.08 213.115 145.896 211.723 145.896C210.043 145.896 209.387 146.968 209.387 148.936C209.387 150.856 209.931 152.024 211.611 152.024ZM218.576 153H217.168V141.256H218.576V153ZM227.525 149.208H221.813C221.813 150.856 222.645 152.024 224.021 152.024C225.317 152.024 225.733 151.368 225.989 150.776H227.397C227.077 151.816 226.213 153.192 223.989 153.192C221.429 153.192 220.389 151.128 220.389 149.032C220.389 146.632 221.605 144.696 224.069 144.696C226.693 144.696 227.557 146.808 227.557 148.536C227.557 148.776 227.557 148.984 227.525 149.208ZM221.861 148.216H226.133C226.117 146.888 225.445 145.816 224.053 145.816C222.629 145.816 222.005 146.808 221.861 148.216ZM228.378 146.04V144.888H229.786V142.504H231.194V144.888H232.97V146.04H231.194V150.792C231.194 151.576 231.386 151.976 232.106 151.976C232.314 151.976 232.602 151.976 232.826 151.912V152.968C232.474 153.096 231.994 153.112 231.61 153.112C230.346 153.112 229.786 152.472 229.786 151.112V146.04H228.378ZM237.666 144.696C239.922 144.696 241.394 146.392 241.394 148.936C241.394 151.272 240.05 153.192 237.57 153.192C235.25 153.192 233.842 151.4 233.842 148.968C233.842 146.568 235.218 144.696 237.666 144.696ZM237.602 145.88C236.082 145.88 235.282 147.096 235.282 148.952C235.282 150.728 236.178 152.024 237.634 152.024C239.122 152.024 239.954 150.792 239.954 148.952C239.954 147.128 239.122 145.88 237.602 145.88Z" fill="#737373"/>
</g>
<path d="M51.602 193.2H53.058C52.638 194.88 51.378 196.126 49.124 196.126C46.184 196.126 44.714 193.928 44.714 191.184C44.714 188.538 46.198 186.144 49.18 186.144C51.532 186.144 52.778 187.488 53.058 189.112H51.616C51.294 188.118 50.622 187.32 49.124 187.32C47.066 187.32 46.226 189.196 46.226 191.128C46.226 192.99 47.01 194.95 49.18 194.95C50.664 194.95 51.28 194.082 51.602 193.2ZM60.5537 192.71H55.5977C55.5977 194.054 56.2697 195.048 57.4457 195.048C58.5097 195.048 58.8457 194.516 59.0697 194.012H60.4557C60.1757 194.922 59.4057 196.168 57.4037 196.168C55.1357 196.168 54.1977 194.362 54.1977 192.528C54.1977 190.386 55.2897 188.706 57.4737 188.706C59.7977 188.706 60.5677 190.54 60.5677 192.108C60.5677 192.332 60.5677 192.514 60.5537 192.71ZM55.6397 191.772H59.1817C59.1677 190.666 58.6357 189.77 57.4597 189.77C56.2697 189.77 55.7517 190.596 55.6397 191.772ZM63.5112 196H62.1252V185.738H63.5112V196ZM71.3812 188.874V193.928C71.3812 194.628 71.3812 195.538 71.3952 196H70.0512C70.0232 195.818 70.0092 195.398 70.0092 194.992C69.6452 195.762 68.9592 196.168 67.8812 196.168C66.6352 196.168 65.5292 195.524 65.5292 193.564V188.874H66.8872V193.27C66.8872 194.18 67.1672 195.006 68.2872 195.006C69.5192 195.006 70.0092 194.32 70.0092 192.612V188.874H71.3812ZM74.7905 196H73.4045V185.738H74.7905V196ZM82.1724 191.072V194.404C82.1724 195.048 82.2284 195.804 82.2704 196H80.9544C80.8984 195.846 80.8564 195.51 80.8424 195.118C80.5904 195.58 80.0444 196.168 78.6864 196.168C76.9924 196.168 76.2784 195.076 76.2784 193.984C76.2784 192.388 77.5384 191.66 79.6524 191.66C80.1144 191.66 80.5624 191.66 80.8284 191.66V191.086C80.8284 190.484 80.6324 189.756 79.3724 189.756C78.2524 189.756 78.0564 190.302 77.9304 190.862H76.6144C76.7124 189.826 77.3424 188.706 79.4144 188.706C81.1924 188.72 82.1724 189.434 82.1724 191.072ZM80.8284 192.794V192.57C80.6184 192.57 80.1004 192.57 79.7504 192.57C78.3644 192.57 77.6644 192.962 77.6644 193.914C77.6644 194.6 78.1404 195.118 78.9804 195.118C80.6184 195.118 80.8284 194.026 80.8284 192.794ZM84.2189 196V190.82C84.2189 189.868 84.2189 189.294 84.2049 188.874H85.5629C85.5769 189.07 85.6049 189.658 85.6049 190.302C85.9549 189.364 86.7949 188.748 87.9709 188.706V190.064C86.5149 190.092 85.6049 190.778 85.6049 192.612V196H84.2189ZM97.1455 193.802H98.5175C98.2235 195.02 97.3975 196.168 95.5215 196.168C93.5055 196.168 92.3015 194.74 92.3015 192.486C92.3015 190.456 93.4775 188.706 95.6055 188.706C97.7335 188.706 98.4335 190.232 98.5175 191.128H97.1595C96.9915 190.428 96.5575 189.84 95.5775 189.84C94.3875 189.84 93.7155 190.862 93.7155 192.444C93.7155 194.04 94.3735 195.048 95.5495 195.048C96.3895 195.048 96.8795 194.586 97.1455 193.802ZM102.922 188.706C104.924 188.706 106.24 190.19 106.24 192.43C106.24 194.502 105.036 196.168 102.852 196.168C100.766 196.168 99.52 194.6 99.52 192.458C99.52 190.33 100.752 188.706 102.922 188.706ZM102.866 189.84C101.62 189.84 100.934 190.834 100.934 192.444C100.934 193.97 101.676 195.048 102.894 195.048C104.14 195.048 104.826 194.012 104.826 192.444C104.826 190.862 104.14 189.84 102.866 189.84ZM107.776 196V190.722C107.776 190.106 107.776 189.462 107.762 188.874H109.092C109.106 189.084 109.148 189.588 109.148 189.924C109.47 189.308 110.086 188.706 111.192 188.706C112.214 188.706 112.872 189.224 113.152 189.952C113.53 189.294 114.202 188.706 115.406 188.706C116.582 188.706 117.646 189.406 117.646 191.324V196H116.302V191.492C116.302 190.694 116.022 189.868 114.958 189.868C113.866 189.868 113.39 190.68 113.39 191.912V196H112.046V191.534C112.046 190.652 111.808 189.882 110.744 189.882C109.666 189.882 109.148 190.722 109.148 192.052V196H107.776ZM123.435 196V186.284H126.991C129.735 186.284 131.583 188.146 131.583 191.044C131.583 193.914 129.791 196 126.935 196H123.435ZM124.877 187.488V194.796H126.837C129.049 194.796 130.085 193.214 130.085 191.058C130.085 189.21 129.133 187.488 126.837 187.488H124.877ZM133.566 196V186.284H137.122C139.866 186.284 141.714 188.146 141.714 191.044C141.714 193.914 139.922 196 137.066 196H133.566ZM135.008 187.488V194.796H136.968C139.18 194.796 140.216 193.214 140.216 191.058C140.216 189.21 139.264 187.488 136.968 187.488H135.008ZM143.697 196V186.284H147.253C149.997 186.284 151.845 188.146 151.845 191.044C151.845 193.914 150.053 196 147.197 196H143.697ZM145.139 187.488V194.796H147.099C149.311 194.796 150.347 193.214 150.347 191.058C150.347 189.21 149.395 187.488 147.099 187.488H145.139Z" fill="#424242"/>
<g filter="url(#filter2_d_1877_85340)">
<path d="M44 217C44 212.582 47.5817 209 52 209H330C334.418 209 338 212.582 338 217V245C338 249.418 334.418 253 330 253H52C47.5817 253 44 249.418 44 245V217Z" fill="white" shape-rendering="crispEdges"/>
<path d="M52 209.5H330C334.142 209.5 337.5 212.858 337.5 217V245C337.5 249.142 334.142 252.5 330 252.5H52C47.8579 252.5 44.5 249.142 44.5 245V217C44.5 212.858 47.8579 209.5 52 209.5Z" stroke="#D6D6D6" shape-rendering="crispEdges"/>
<path d="M66.448 228.536V229.8H60.912V233.736H66.992L66.8 235H59.456V223.88H66.704V225.144H60.912V228.536H66.448ZM68.1589 226.888H69.7429C70.8789 228.696 71.3589 229.464 71.6629 229.928H71.6789C72.0149 229.4 72.7029 228.344 73.6629 226.888H75.2309L72.4789 230.792L75.2469 235H73.6309C72.6549 233.416 71.9669 232.328 71.6309 231.8H71.6149C71.3429 232.248 70.6869 233.336 69.6309 235H68.0789L70.7989 230.952L68.1589 226.888ZM78.7509 235H77.3269V232.696H78.7509V235ZM78.7509 229.224H77.3269V226.92H78.7509V229.224ZM87.4218 223.256H88.8458C87.4538 225.08 86.3178 227.464 86.3178 230.424C86.3178 233.128 87.2458 235.624 88.8458 237.768H87.4218C86.2218 236.152 85.0218 233.64 85.0218 230.408C85.0218 227.224 86.2378 224.824 87.4218 223.256ZM93.7244 235H92.3004V226.152C91.7724 226.536 90.7004 226.968 90.1244 227.064V225.928C90.9244 225.72 91.9484 225.112 92.6684 224.424H93.7244V235ZM99.3025 235H97.8785V226.152C97.3505 226.536 96.2785 226.968 95.7025 227.064V225.928C96.5025 225.72 97.5265 225.112 98.2465 224.424H99.3025V235ZM102.939 237.768H101.515C102.907 235.944 104.043 233.56 104.043 230.6C104.043 227.896 103.115 225.4 101.515 223.256H102.939C104.139 224.872 105.339 227.384 105.339 230.616C105.339 233.8 104.123 236.2 102.939 237.768ZM111.16 232.696H112.616C112.904 233.56 113.448 234.008 114.488 234.008C116.536 234.008 116.696 231.24 116.76 229.912C116.264 230.808 115.336 231.176 114.232 231.176C112.264 231.176 111.016 229.752 111.016 227.816C111.016 225.896 112.296 224.296 114.552 224.296C117.176 224.296 118.152 226.36 118.152 229.144C118.152 231.896 117.576 235.176 114.424 235.176C112.312 235.176 111.416 233.944 111.16 232.696ZM114.52 225.464C113.096 225.464 112.456 226.488 112.456 227.768C112.456 229.112 113.224 229.992 114.472 229.992C115.944 229.992 116.6 229.224 116.6 227.832C116.6 227.176 116.36 225.464 114.52 225.464ZM119.816 232.696H121.272C121.56 233.56 122.104 234.008 123.144 234.008C125.192 234.008 125.352 231.24 125.416 229.912C124.92 230.808 123.992 231.176 122.888 231.176C120.92 231.176 119.672 229.752 119.672 227.816C119.672 225.896 120.952 224.296 123.208 224.296C125.832 224.296 126.808 226.36 126.808 229.144C126.808 231.896 126.232 235.176 123.08 235.176C120.968 235.176 120.072 233.944 119.816 232.696ZM123.176 225.464C121.752 225.464 121.112 226.488 121.112 227.768C121.112 229.112 121.88 229.992 123.128 229.992C124.6 229.992 125.256 229.224 125.256 227.832C125.256 227.176 125.016 225.464 123.176 225.464ZM128.473 232.696H129.929C130.217 233.56 130.761 234.008 131.801 234.008C133.849 234.008 134.009 231.24 134.073 229.912C133.577 230.808 132.649 231.176 131.545 231.176C129.577 231.176 128.329 229.752 128.329 227.816C128.329 225.896 129.609 224.296 131.865 224.296C134.489 224.296 135.465 226.36 135.465 229.144C135.465 231.896 134.889 235.176 131.737 235.176C129.625 235.176 128.729 233.944 128.473 232.696ZM131.833 225.464C130.409 225.464 129.769 226.488 129.769 227.768C129.769 229.112 130.537 229.992 131.785 229.992C133.257 229.992 133.913 229.224 133.913 227.832C133.913 227.176 133.673 225.464 131.833 225.464ZM137.129 232.696H138.585C138.873 233.56 139.417 234.008 140.457 234.008C142.505 234.008 142.665 231.24 142.729 229.912C142.233 230.808 141.305 231.176 140.201 231.176C138.233 231.176 136.985 229.752 136.985 227.816C136.985 225.896 138.265 224.296 140.521 224.296C143.145 224.296 144.121 226.36 144.121 229.144C144.121 231.896 143.545 235.176 140.393 235.176C138.281 235.176 137.385 233.944 137.129 232.696ZM140.489 225.464C139.065 225.464 138.425 226.488 138.425 227.768C138.425 229.112 139.193 229.992 140.441 229.992C141.913 229.992 142.569 229.224 142.569 227.832C142.569 227.176 142.329 225.464 140.489 225.464ZM145.785 232.696H147.241C147.529 233.56 148.073 234.008 149.113 234.008C151.161 234.008 151.321 231.24 151.385 229.912C150.889 230.808 149.961 231.176 148.857 231.176C146.889 231.176 145.641 229.752 145.641 227.816C145.641 225.896 146.921 224.296 149.177 224.296C151.801 224.296 152.777 226.36 152.777 229.144C152.777 231.896 152.201 235.176 149.049 235.176C146.937 235.176 146.041 233.944 145.785 232.696ZM149.145 225.464C147.721 225.464 147.081 226.488 147.081 227.768C147.081 229.112 147.849 229.992 149.097 229.992C150.569 229.992 151.225 229.224 151.225 227.832C151.225 227.176 150.985 225.464 149.145 225.464ZM154.521 230.28H158.729V231.544H154.521V230.28ZM160.488 232.696H161.944C162.232 233.56 162.776 234.008 163.816 234.008C165.864 234.008 166.024 231.24 166.088 229.912C165.592 230.808 164.664 231.176 163.56 231.176C161.592 231.176 160.344 229.752 160.344 227.816C160.344 225.896 161.624 224.296 163.88 224.296C166.504 224.296 167.48 226.36 167.48 229.144C167.48 231.896 166.904 235.176 163.752 235.176C161.64 235.176 160.744 233.944 160.488 232.696ZM163.848 225.464C162.424 225.464 161.784 226.488 161.784 227.768C161.784 229.112 162.552 229.992 163.8 229.992C165.272 229.992 165.928 229.224 165.928 227.832C165.928 227.176 165.688 225.464 163.848 225.464ZM169.145 232.696H170.601C170.889 233.56 171.433 234.008 172.473 234.008C174.521 234.008 174.681 231.24 174.745 229.912C174.249 230.808 173.321 231.176 172.217 231.176C170.249 231.176 169.001 229.752 169.001 227.816C169.001 225.896 170.281 224.296 172.536 224.296C175.161 224.296 176.137 226.36 176.137 229.144C176.137 231.896 175.561 235.176 172.409 235.176C170.297 235.176 169.401 233.944 169.145 232.696ZM172.505 225.464C171.081 225.464 170.441 226.488 170.441 227.768C170.441 229.112 171.209 229.992 172.457 229.992C173.929 229.992 174.585 229.224 174.585 227.832C174.585 227.176 174.345 225.464 172.505 225.464ZM177.801 232.696H179.257C179.545 233.56 180.089 234.008 181.129 234.008C183.177 234.008 183.337 231.24 183.401 229.912C182.905 230.808 181.977 231.176 180.873 231.176C178.905 231.176 177.657 229.752 177.657 227.816C177.657 225.896 178.937 224.296 181.193 224.296C183.817 224.296 184.793 226.36 184.793 229.144C184.793 231.896 184.217 235.176 181.065 235.176C178.953 235.176 178.057 233.944 177.801 232.696ZM181.161 225.464C179.737 225.464 179.097 226.488 179.097 227.768C179.097 229.112 179.865 229.992 181.113 229.992C182.585 229.992 183.241 229.224 183.241 227.832C183.241 227.176 183.001 225.464 181.161 225.464ZM186.457 232.696H187.913C188.201 233.56 188.745 234.008 189.785 234.008C191.833 234.008 191.993 231.24 192.057 229.912C191.561 230.808 190.633 231.176 189.529 231.176C187.561 231.176 186.313 229.752 186.313 227.816C186.313 225.896 187.593 224.296 189.849 224.296C192.473 224.296 193.449 226.36 193.449 229.144C193.449 231.896 192.873 235.176 189.721 235.176C187.609 235.176 186.713 233.944 186.457 232.696ZM189.817 225.464C188.393 225.464 187.753 226.488 187.753 227.768C187.753 229.112 188.521 229.992 189.769 229.992C191.241 229.992 191.897 229.224 191.897 227.832C191.897 227.176 191.657 225.464 189.817 225.464Z" fill="#737373"/>
</g>
<path d="M51.462 272.302V273.534H46.66V276.782H51.938L51.756 278H45.246V268.284H51.686V269.502H46.66V272.302H51.462ZM53.1102 273.8H56.8342V275.032H53.1102V273.8ZM58.5705 278V272.722C58.5705 272.106 58.5705 271.462 58.5565 270.874H59.8865C59.9005 271.084 59.9425 271.588 59.9425 271.924C60.2645 271.308 60.8805 270.706 61.9865 270.706C63.0085 270.706 63.6665 271.224 63.9465 271.952C64.3245 271.294 64.9965 270.706 66.2005 270.706C67.3765 270.706 68.4405 271.406 68.4405 273.324V278H67.0965V273.492C67.0965 272.694 66.8165 271.868 65.7525 271.868C64.6605 271.868 64.1845 272.68 64.1845 273.912V278H62.8405V273.534C62.8405 272.652 62.6025 271.882 61.5385 271.882C60.4605 271.882 59.9425 272.722 59.9425 274.052V278H58.5705ZM75.8287 273.072V276.404C75.8287 277.048 75.8847 277.804 75.9267 278H74.6107C74.5547 277.846 74.5127 277.51 74.4987 277.118C74.2467 277.58 73.7007 278.168 72.3427 278.168C70.6487 278.168 69.9347 277.076 69.9347 275.984C69.9347 274.388 71.1947 273.66 73.3087 273.66C73.7707 273.66 74.2187 273.66 74.4847 273.66V273.086C74.4847 272.484 74.2887 271.756 73.0287 271.756C71.9087 271.756 71.7127 272.302 71.5867 272.862H70.2707C70.3687 271.826 70.9987 270.706 73.0707 270.706C74.8487 270.72 75.8287 271.434 75.8287 273.072ZM74.4847 274.794V274.57C74.2747 274.57 73.7567 274.57 73.4067 274.57C72.0207 274.57 71.3207 274.962 71.3207 275.914C71.3207 276.6 71.7967 277.118 72.6367 277.118C74.2747 277.118 74.4847 276.026 74.4847 274.794ZM77.8752 278V270.874H79.2612V278H77.8752ZM77.8752 269.32V267.738H79.2612V269.32H77.8752ZM82.6792 278H81.2932V267.738H82.6792V278Z" fill="#424242"/>
<g filter="url(#filter3_d_1877_85340)">
<path d="M44 299C44 294.582 47.5817 291 52 291H330C334.418 291 338 294.582 338 299V327C338 331.418 334.418 335 330 335H52C47.5817 335 44 331.418 44 327V299Z" fill="white" shape-rendering="crispEdges"/>
<path d="M52 291.5H330C334.142 291.5 337.5 294.858 337.5 299V327C337.5 331.142 334.142 334.5 330 334.5H52C47.8579 334.5 44.5 331.142 44.5 327V299C44.5 294.858 47.8579 291.5 52 291.5Z" stroke="#D6D6D6" shape-rendering="crispEdges"/>
<path d="M66.448 310.536V311.8H60.912V315.736H66.992L66.8 317H59.456V305.88H66.704V307.144H60.912V310.536H66.448ZM68.1589 308.888H69.7429C70.8789 310.696 71.3589 311.464 71.6629 311.928H71.6789C72.0149 311.4 72.7029 310.344 73.6629 308.888H75.2309L72.4789 312.792L75.2469 317H73.6309C72.6549 315.416 71.9669 314.328 71.6309 313.8H71.6149C71.3429 314.248 70.6869 315.336 69.6309 317H68.0789L70.7989 312.952L68.1589 308.888ZM78.7509 317H77.3269V314.696H78.7509V317ZM78.7509 311.224H77.3269V308.92H78.7509V311.224ZM91.8378 313.208H86.1258C86.1258 314.856 86.9578 316.024 88.3338 316.024C89.6298 316.024 90.0458 315.368 90.3018 314.776H91.7098C91.3898 315.816 90.5258 317.192 88.3018 317.192C85.7418 317.192 84.7018 315.128 84.7018 313.032C84.7018 310.632 85.9178 308.696 88.3818 308.696C91.0058 308.696 91.8698 310.808 91.8698 312.536C91.8698 312.776 91.8698 312.984 91.8378 313.208ZM86.1738 312.216H90.4458C90.4298 310.888 89.7578 309.816 88.3658 309.816C86.9418 309.816 86.3178 310.808 86.1738 312.216ZM93.6684 317V310.984C93.6684 310.28 93.6684 309.56 93.6524 308.888H95.0124C95.0284 309.144 95.0764 309.736 95.0604 310.136C95.4284 309.416 96.1484 308.696 97.4284 308.696C98.5804 308.696 99.3644 309.288 99.6684 310.152C100.1 309.384 100.868 308.696 102.26 308.696C103.572 308.696 104.82 309.48 104.82 311.672V317H103.428V311.848C103.428 310.904 103.092 309.912 101.828 309.912C100.516 309.912 99.9404 310.904 99.9404 312.344V317H98.5644V311.896C98.5644 310.84 98.2604 309.912 96.9964 309.912C95.6844 309.912 95.0604 310.968 95.0604 312.52V317H93.6684ZM113.154 311.368V315.24C113.154 315.976 113.218 316.776 113.266 317H111.922C111.858 316.824 111.81 316.44 111.794 315.944C111.506 316.488 110.866 317.192 109.298 317.192C107.378 317.192 106.562 315.96 106.562 314.728C106.562 312.904 107.986 312.088 110.402 312.088C110.962 312.088 111.474 312.088 111.778 312.088V311.384C111.778 310.68 111.554 309.8 110.034 309.8C108.674 309.8 108.45 310.472 108.306 311.112H106.946C107.058 309.992 107.746 308.696 110.082 308.696C112.066 308.712 113.154 309.512 113.154 311.368ZM111.794 313.32V313.048C111.522 313.048 110.914 313.048 110.482 313.048C108.85 313.048 107.986 313.496 107.986 314.648C107.986 315.48 108.578 316.104 109.57 316.104C111.522 316.104 111.794 314.792 111.794 313.32ZM115.575 317V308.888H116.983V317H115.575ZM115.575 307.016V305.256H116.983V307.016H115.575ZM120.78 317H119.372V305.256H120.78V317ZM132.832 317.832L133.136 318.824C132.352 319.352 131.12 319.8 129.232 319.8C125.6 319.8 122.992 317.32 122.992 313.4C122.992 309.352 125.712 306.312 129.952 306.312C133.216 306.312 135.936 308.28 135.936 311.896C135.936 314.776 134.448 316.536 132.384 316.536C131.472 316.536 130.816 316.168 130.768 315.288C130.24 316.088 129.584 316.536 128.496 316.536C127.216 316.536 126.224 315.608 126.224 313.736C126.224 311.32 127.68 309.432 129.536 309.432C130.8 309.432 131.296 310.12 131.44 310.664L131.712 309.592H132.976L132 314.088C131.776 315.128 132.064 315.432 132.64 315.432C133.856 315.432 134.736 314.056 134.736 311.96C134.736 309.16 132.784 307.384 129.904 307.384C126.464 307.384 124.272 309.816 124.256 313.4C124.256 316.392 126.208 318.68 129.296 318.68C130.608 318.68 131.808 318.44 132.832 317.832ZM129.68 310.504C128.368 310.504 127.6 312.04 127.6 313.656C127.6 314.808 128.048 315.432 128.832 315.432C129.808 315.432 130.528 314.776 130.912 313.032C131.296 311.336 130.864 310.504 129.68 310.504ZM144.682 313.208H138.97C138.97 314.856 139.802 316.024 141.178 316.024C142.474 316.024 142.89 315.368 143.146 314.776H144.554C144.234 315.816 143.37 317.192 141.146 317.192C138.586 317.192 137.546 315.128 137.546 313.032C137.546 310.632 138.762 308.696 141.226 308.696C143.85 308.696 144.714 310.808 144.714 312.536C144.714 312.776 144.714 312.984 144.682 313.208ZM139.018 312.216H143.29C143.274 310.888 142.602 309.816 141.21 309.816C139.786 309.816 139.162 310.808 139.018 312.216ZM145.487 308.888H147.071C148.207 310.696 148.687 311.464 148.991 311.928H149.007C149.343 311.4 150.031 310.344 150.991 308.888H152.559L149.807 312.792L152.575 317H150.959C149.983 315.416 149.295 314.328 148.959 313.8H148.943C148.671 314.248 148.015 315.336 146.959 317H145.407L148.127 312.952L145.487 308.888ZM160.213 313.208H154.501C154.501 314.856 155.333 316.024 156.709 316.024C158.005 316.024 158.421 315.368 158.677 314.776H160.085C159.765 315.816 158.901 317.192 156.677 317.192C154.117 317.192 153.077 315.128 153.077 313.032C153.077 310.632 154.293 308.696 156.757 308.696C159.381 308.696 160.245 310.808 160.245 312.536C160.245 312.776 160.245 312.984 160.213 313.208ZM154.549 312.216H158.821C158.805 310.888 158.133 309.816 156.741 309.816C155.317 309.816 154.693 310.808 154.549 312.216ZM162.043 317V310.984C162.043 310.28 162.043 309.56 162.027 308.888H163.387C163.403 309.144 163.451 309.736 163.435 310.136C163.803 309.416 164.523 308.696 165.803 308.696C166.955 308.696 167.739 309.288 168.043 310.152C168.475 309.384 169.243 308.696 170.635 308.696C171.947 308.696 173.195 309.48 173.195 311.672V317H171.803V311.848C171.803 310.904 171.467 309.912 170.203 309.912C168.891 309.912 168.315 310.904 168.315 312.344V317H166.939V311.896C166.939 310.84 166.635 309.912 165.371 309.912C164.059 309.912 163.435 310.968 163.435 312.52V317H162.043ZM179.335 317.192C178.023 317.192 177.335 316.648 176.983 316.008V320.2H175.575V310.872C175.575 310.216 175.575 309.528 175.559 308.888H176.935C176.967 309.16 176.983 309.656 176.983 310.168C177.415 309.352 178.247 308.696 179.623 308.696C181.511 308.696 182.871 310.28 182.871 312.744C182.871 315.64 181.303 317.192 179.335 317.192ZM179.143 316.024C180.631 316.024 181.431 314.792 181.431 312.792C181.431 311.08 180.647 309.896 179.255 309.896C177.575 309.896 176.919 310.968 176.919 312.936C176.919 314.856 177.463 316.024 179.143 316.024ZM186.108 317H184.7V305.256H186.108V317ZM191.745 308.696C194.001 308.696 195.473 310.392 195.473 312.936C195.473 315.272 194.129 317.192 191.649 317.192C189.329 317.192 187.921 315.4 187.921 312.968C187.921 310.568 189.297 308.696 191.745 308.696ZM191.681 309.88C190.161 309.88 189.361 311.096 189.361 312.952C189.361 314.728 190.257 316.024 191.713 316.024C193.201 316.024 194.033 314.792 194.033 312.952C194.033 311.128 193.201 309.88 191.681 309.88ZM198.383 317H196.911V314.648H198.383V317ZM205.442 314.52H206.834C206.482 315.928 205.538 317.192 203.474 317.192C201.25 317.192 199.858 315.592 199.858 313C199.858 310.696 201.154 308.696 203.57 308.696C205.922 308.696 206.722 310.376 206.834 311.416H205.442C205.234 310.584 204.722 309.88 203.554 309.88C202.114 309.88 201.298 311.112 201.298 312.952C201.298 314.792 202.082 316.04 203.49 316.04C204.514 316.04 205.106 315.496 205.442 314.52ZM211.838 308.696C214.094 308.696 215.566 310.392 215.566 312.936C215.566 315.272 214.222 317.192 211.742 317.192C209.422 317.192 208.014 315.4 208.014 312.968C208.014 310.568 209.39 308.696 211.838 308.696ZM211.774 309.88C210.254 309.88 209.454 311.096 209.454 312.952C209.454 314.728 210.35 316.024 211.806 316.024C213.294 316.024 214.126 314.792 214.126 312.952C214.126 311.128 213.294 309.88 211.774 309.88ZM217.387 317V310.984C217.387 310.28 217.387 309.56 217.371 308.888H218.731C218.747 309.144 218.795 309.736 218.779 310.136C219.147 309.416 219.867 308.696 221.147 308.696C222.299 308.696 223.083 309.288 223.387 310.152C223.819 309.384 224.587 308.696 225.979 308.696C227.291 308.696 228.539 309.48 228.539 311.672V317H227.147V311.848C227.147 310.904 226.811 309.912 225.547 309.912C224.235 309.912 223.659 310.904 223.659 312.344V317H222.283V311.896C222.283 310.84 221.979 309.912 220.715 309.912C219.403 309.912 218.779 310.968 218.779 312.52V317H217.387Z" fill="#737373"/>
</g>
</g>
<defs>
<filter id="filter0_dd_1877_85340" x="0" y="0" width="382" height="419" filterUnits="userSpaceOnUse" color-interpolation-filters="sRGB">
<feFlood flood-opacity="0" result="BackgroundImageFix"/>
<feColorMatrix in="SourceAlpha" type="matrix" values="0 0 0 0 0 0 0 0 0 0 0 0 0 0 0 0 0 0 127 0" result="hardAlpha"/>
<feMorphology radius="4" operator="erode" in="SourceAlpha" result="effect1_dropShadow_1877_85340"/>
<feOffset dy="8"/>
<feGaussianBlur stdDeviation="4"/>
<feComposite in2="hardAlpha" operator="out"/>
<feColorMatrix type="matrix" values="0 0 0 0 0.0627451 0 0 0 0 0.0941176 0 0 0 0 0.156863 0 0 0 0.03 0"/>
<feBlend mode="normal" in2="BackgroundImageFix" result="effect1_dropShadow_1877_85340"/>
<feColorMatrix in="SourceAlpha" type="matrix" values="0 0 0 0 0 0 0 0 0 0 0 0 0 0 0 0 0 0 127 0" result="hardAlpha"/>
<feMorphology radius="4" operator="erode" in="SourceAlpha" result="effect2_dropShadow_1877_85340"/>
<feOffset dy="20"/>
<feGaussianBlur stdDeviation="12"/>
<feComposite in2="hardAlpha" operator="out"/>
<feColorMatrix type="matrix" values="0 0 0 0 0.0627451 0 0 0 0 0.0941176 0 0 0 0 0.156863 0 0 0 0.08 0"/>
<feBlend mode="normal" in2="effect1_dropShadow_1877_85340" result="effect2_dropShadow_1877_85340"/>
<feBlend mode="normal" in="SourceGraphic" in2="effect2_dropShadow_1877_85340" result="shape"/>
</filter>
<filter id="filter1_d_1877_85340" x="42" y="126" width="298" height="48" filterUnits="userSpaceOnUse" color-interpolation-filters="sRGB">
<feFlood flood-opacity="0" result="BackgroundImageFix"/>
<feColorMatrix in="SourceAlpha" type="matrix" values="0 0 0 0 0 0 0 0 0 0 0 0 0 0 0 0 0 0 127 0" result="hardAlpha"/>
<feOffset dy="1"/>
<feGaussianBlur stdDeviation="1"/>
<feComposite in2="hardAlpha" operator="out"/>
<feColorMatrix type="matrix" values="0 0 0 0 0.0627451 0 0 0 0 0.0941176 0 0 0 0 0.156863 0 0 0 0.05 0"/>
<feBlend mode="normal" in2="BackgroundImageFix" result="effect1_dropShadow_1877_85340"/>
<feBlend mode="normal" in="SourceGraphic" in2="effect1_dropShadow_1877_85340" result="shape"/>
</filter>
<filter id="filter2_d_1877_85340" x="42" y="208" width="298" height="48" filterUnits="userSpaceOnUse" color-interpolation-filters="sRGB">
<feFlood flood-opacity="0" result="BackgroundImageFix"/>
<feColorMatrix in="SourceAlpha" type="matrix" values="0 0 0 0 0 0 0 0 0 0 0 0 0 0 0 0 0 0 127 0" result="hardAlpha"/>
<feOffset dy="1"/>
<feGaussianBlur stdDeviation="1"/>
<feComposite in2="hardAlpha" operator="out"/>
<feColorMatrix type="matrix" values="0 0 0 0 0.0627451 0 0 0 0 0.0941176 0 0 0 0 0.156863 0 0 0 0.05 0"/>
<feBlend mode="normal" in2="BackgroundImageFix" result="effect1_dropShadow_1877_85340"/>
<feBlend mode="normal" in="SourceGraphic" in2="effect1_dropShadow_1877_85340" result="shape"/>
</filter>
<filter id="filter3_d_1877_85340" x="42" y="290" width="298" height="48" filterUnits="userSpaceOnUse" color-interpolation-filters="sRGB">
<feFlood flood-opacity="0" result="BackgroundImageFix"/>
<feColorMatrix in="SourceAlpha" type="matrix" values="0 0 0 0 0 0 0 0 0 0 0 0 0 0 0 0 0 0 127 0" result="hardAlpha"/>
<feOffset dy="1"/>
<feGaussianBlur stdDeviation="1"/>
<feComposite in2="hardAlpha" operator="out"/>
<feColorMatrix type="matrix" values="0 0 0 0 0.0627451 0 0 0 0 0.0941176 0 0 0 0 0.156863 0 0 0 0.05 0"/>
<feBlend mode="normal" in2="BackgroundImageFix" result="effect1_dropShadow_1877_85340"/>
<feBlend mode="normal" in="SourceGraphic" in2="effect1_dropShadow_1877_85340" result="shape"/>
</filter>
<linearGradient id="paint0_linear_1877_85340" x1="191" y1="0" x2="191" y2="379" gradientUnits="userSpaceOnUse">
<stop stop-color="#9BC58A"/>
<stop offset="0.182692" stop-color="#C2DAB3"/>
<stop offset="0.75" stop-color="#AECC56"/>
<stop offset="1" stop-color="#467541"/>
</linearGradient>
</defs>
</svg>
