<svg width="294" height="114" viewBox="0 0 294 114" fill="none" xmlns="http://www.w3.org/2000/svg">
<path d="M57.246 25V15.284H60.802C63.546 15.284 65.394 17.146 65.394 20.044C65.394 22.914 63.602 25 60.746 25H57.246ZM58.688 16.488V23.796H60.648C62.86 23.796 63.896 22.214 63.896 20.058C63.896 18.21 62.944 16.488 60.648 16.488H58.688ZM67.1935 25V17.874H68.5795V25H67.1935ZM67.1935 16.32V14.738H68.5795V16.32H67.1935ZM76.6035 19.932V24.328C76.6035 26.61 75.6795 27.94 73.2855 27.94C71.0455 27.94 70.4015 26.68 70.2895 25.742H71.6895C71.8855 26.47 72.4595 26.862 73.3415 26.862C74.8955 26.862 75.2735 25.882 75.2735 24.286V23.754C74.8955 24.524 74.2515 24.958 73.0895 24.958C71.3115 24.958 70.1355 23.516 70.1355 21.458C70.1355 19.148 71.4795 17.706 73.2155 17.706C74.5455 17.706 75.1195 18.336 75.2735 18.784C75.2875 18.49 75.3155 18.028 75.3295 17.874H76.6315C76.6175 18.336 76.6035 19.246 76.6035 19.932ZM73.4535 18.854C72.2215 18.854 71.5495 19.876 71.5495 21.402C71.5495 22.844 72.3055 23.81 73.4115 23.81C74.8815 23.81 75.3015 22.816 75.3015 21.304C75.3015 19.792 74.9235 18.854 73.4535 18.854ZM78.6369 25V17.874H80.0229V25H78.6369ZM78.6369 16.32V14.738H80.0229V16.32H78.6369ZM81.2416 18.98V17.874H82.4456V15.816H83.8176V17.874H85.3576V18.98H83.8176V23.026C83.8176 23.684 83.9856 24.02 84.6296 24.02C84.7836 24.02 85.0216 24.006 85.2176 23.964V24.972C84.8956 25.084 84.4476 25.098 84.0976 25.098C82.9356 25.098 82.4456 24.496 82.4456 23.306V18.98H81.2416ZM92.4463 21.71H87.4903C87.4903 23.054 88.1623 24.048 89.3383 24.048C90.4023 24.048 90.7383 23.516 90.9623 23.012H92.3483C92.0683 23.922 91.2983 25.168 89.2963 25.168C87.0283 25.168 86.0903 23.362 86.0903 21.528C86.0903 19.386 87.1823 17.706 89.3663 17.706C91.6903 17.706 92.4603 19.54 92.4603 21.108C92.4603 21.332 92.4603 21.514 92.4463 21.71ZM87.5323 20.772H91.0743C91.0603 19.666 90.5283 18.77 89.3523 18.77C88.1623 18.77 87.6443 19.596 87.5323 20.772ZM100.348 17.706C102.35 17.706 103.666 19.19 103.666 21.43C103.666 23.502 102.462 25.168 100.278 25.168C98.1917 25.168 96.9457 23.6 96.9457 21.458C96.9457 19.33 98.1777 17.706 100.348 17.706ZM100.292 18.84C99.0457 18.84 98.3597 19.834 98.3597 21.444C98.3597 22.97 99.1017 24.048 100.32 24.048C101.566 24.048 102.252 23.012 102.252 21.444C102.252 19.862 101.566 18.84 100.292 18.84ZM113.083 22.802H114.455C114.161 24.02 113.335 25.168 111.459 25.168C109.443 25.168 108.239 23.74 108.239 21.486C108.239 19.456 109.415 17.706 111.543 17.706C113.671 17.706 114.371 19.232 114.455 20.128H113.097C112.929 19.428 112.495 18.84 111.515 18.84C110.325 18.84 109.653 19.862 109.653 21.444C109.653 23.04 110.311 24.048 111.487 24.048C112.327 24.048 112.817 23.586 113.083 22.802ZM118.859 17.706C120.861 17.706 122.177 19.19 122.177 21.43C122.177 23.502 120.973 25.168 118.789 25.168C116.703 25.168 115.457 23.6 115.457 21.458C115.457 19.33 116.689 17.706 118.859 17.706ZM118.803 18.84C117.557 18.84 116.871 19.834 116.871 21.444C116.871 22.97 117.613 24.048 118.831 24.048C120.077 24.048 120.763 23.012 120.763 21.444C120.763 19.862 120.077 18.84 118.803 18.84ZM119.685 14.598H121.365L119.195 16.74H117.935L119.685 14.598ZM128.471 14.738H129.843V22.998C129.843 23.67 129.843 24.328 129.857 25H128.541C128.513 24.818 128.485 24.3 128.471 24.048C128.121 24.748 127.421 25.168 126.273 25.168C124.453 25.168 123.319 23.698 123.319 21.514C123.319 19.316 124.537 17.706 126.511 17.706C127.729 17.706 128.289 18.196 128.471 18.574V14.738ZM126.679 18.854C125.461 18.854 124.733 19.82 124.733 21.472C124.733 23.138 125.503 24.034 126.595 24.034C128.205 24.034 128.527 22.816 128.527 21.36C128.527 19.848 128.233 18.854 126.679 18.854ZM131.875 25V17.874H133.261V25H131.875ZM131.875 16.32V14.738H133.261V16.32H131.875ZM141.285 19.932V24.328C141.285 26.61 140.361 27.94 137.967 27.94C135.727 27.94 135.083 26.68 134.971 25.742H136.371C136.567 26.47 137.141 26.862 138.023 26.862C139.577 26.862 139.955 25.882 139.955 24.286V23.754C139.577 24.524 138.933 24.958 137.771 24.958C135.993 24.958 134.817 23.516 134.817 21.458C134.817 19.148 136.161 17.706 137.897 17.706C139.227 17.706 139.801 18.336 139.955 18.784C139.969 18.49 139.997 18.028 140.011 17.874H141.313C141.299 18.336 141.285 19.246 141.285 19.932ZM138.135 18.854C136.903 18.854 136.231 19.876 136.231 21.402C136.231 22.844 136.987 23.81 138.093 23.81C139.563 23.81 139.983 22.816 139.983 21.304C139.983 19.792 139.605 18.854 138.135 18.854ZM146.258 17.706C148.26 17.706 149.576 19.19 149.576 21.43C149.576 23.502 148.372 25.168 146.188 25.168C144.102 25.168 142.856 23.6 142.856 21.458C142.856 19.33 144.088 17.706 146.258 17.706ZM146.202 18.84C144.956 18.84 144.27 19.834 144.27 21.444C144.27 22.97 145.012 24.048 146.23 24.048C147.476 24.048 148.162 23.012 148.162 21.444C148.162 19.862 147.476 18.84 146.202 18.84ZM159.301 14.738H160.673V22.998C160.673 23.67 160.673 24.328 160.687 25H159.371C159.343 24.818 159.315 24.3 159.301 24.048C158.951 24.748 158.251 25.168 157.103 25.168C155.283 25.168 154.149 23.698 154.149 21.514C154.149 19.316 155.367 17.706 157.341 17.706C158.559 17.706 159.119 18.196 159.301 18.574V14.738ZM157.509 18.854C156.291 18.854 155.563 19.82 155.563 21.472C155.563 23.138 156.333 24.034 157.425 24.034C159.035 24.034 159.357 22.816 159.357 21.36C159.357 19.848 159.063 18.854 157.509 18.854ZM168.571 21.71H163.615C163.615 23.054 164.287 24.048 165.463 24.048C166.527 24.048 166.863 23.516 167.087 23.012H168.473C168.193 23.922 167.423 25.168 165.421 25.168C163.153 25.168 162.215 23.362 162.215 21.528C162.215 19.386 163.307 17.706 165.491 17.706C167.815 17.706 168.585 19.54 168.585 21.108C168.585 21.332 168.585 21.514 168.571 21.71ZM163.657 20.772H167.199C167.185 19.666 166.653 18.77 165.477 18.77C164.287 18.77 163.769 19.596 163.657 20.772ZM172.973 22.942H174.331C174.527 23.684 175.073 24.118 175.997 24.118C176.991 24.118 177.369 23.698 177.369 23.096C177.369 22.466 177.047 22.186 175.745 21.878C173.659 21.36 173.239 20.716 173.239 19.75C173.239 18.728 173.981 17.706 175.871 17.706C177.775 17.706 178.531 18.798 178.615 19.792H177.285C177.201 19.358 176.879 18.756 175.815 18.756C174.891 18.756 174.611 19.19 174.611 19.638C174.611 20.128 174.877 20.38 176.165 20.674C178.363 21.206 178.783 21.934 178.783 22.998C178.783 24.23 177.803 25.168 175.955 25.168C174.051 25.168 173.141 24.216 172.973 22.942ZM186.194 21.71H181.238C181.238 23.054 181.91 24.048 183.086 24.048C184.15 24.048 184.486 23.516 184.71 23.012H186.096C185.816 23.922 185.046 25.168 183.044 25.168C180.776 25.168 179.838 23.362 179.838 21.528C179.838 19.386 180.93 17.706 183.114 17.706C185.438 17.706 186.208 19.54 186.208 21.108C186.208 21.332 186.208 21.514 186.194 21.71ZM181.28 20.772H184.822C184.808 19.666 184.276 18.77 183.1 18.77C181.91 18.77 181.392 19.596 181.28 20.772ZM193.867 19.932V24.328C193.867 26.61 192.943 27.94 190.549 27.94C188.309 27.94 187.665 26.68 187.553 25.742H188.953C189.149 26.47 189.723 26.862 190.605 26.862C192.159 26.862 192.537 25.882 192.537 24.286V23.754C192.159 24.524 191.515 24.958 190.353 24.958C188.575 24.958 187.399 23.516 187.399 21.458C187.399 19.148 188.743 17.706 190.479 17.706C191.809 17.706 192.383 18.336 192.537 18.784C192.551 18.49 192.579 18.028 192.593 17.874H193.895C193.881 18.336 193.867 19.246 193.867 19.932ZM190.717 18.854C189.485 18.854 188.813 19.876 188.813 21.402C188.813 22.844 189.569 23.81 190.675 23.81C192.145 23.81 192.565 22.816 192.565 21.304C192.565 19.792 192.187 18.854 190.717 18.854ZM201.739 17.874V22.928C201.739 23.628 201.739 24.538 201.753 25H200.409C200.381 24.818 200.367 24.398 200.367 23.992C200.003 24.762 199.317 25.168 198.239 25.168C196.993 25.168 195.887 24.524 195.887 22.564V17.874H197.245V22.27C197.245 23.18 197.525 24.006 198.645 24.006C199.877 24.006 200.367 23.32 200.367 21.612V17.874H201.739ZM203.762 25V19.82C203.762 18.868 203.762 18.294 203.748 17.874H205.106C205.12 18.07 205.148 18.658 205.148 19.302C205.498 18.364 206.338 17.748 207.514 17.706V19.064C206.058 19.092 205.148 19.778 205.148 21.612V25H203.762ZM214.006 20.072V23.404C214.006 24.048 214.062 24.804 214.104 25H212.788C212.732 24.846 212.69 24.51 212.676 24.118C212.424 24.58 211.878 25.168 210.52 25.168C208.826 25.168 208.112 24.076 208.112 22.984C208.112 21.388 209.372 20.66 211.486 20.66C211.948 20.66 212.396 20.66 212.662 20.66V20.086C212.662 19.484 212.466 18.756 211.206 18.756C210.086 18.756 209.89 19.302 209.764 19.862H208.448C208.546 18.826 209.176 17.706 211.248 17.706C213.026 17.72 214.006 18.434 214.006 20.072ZM212.662 21.794V21.57C212.452 21.57 211.934 21.57 211.584 21.57C210.198 21.57 209.498 21.962 209.498 22.914C209.498 23.6 209.974 24.118 210.814 24.118C212.452 24.118 212.662 23.026 212.662 21.794ZM216.067 25V19.68C216.067 19.064 216.067 18.434 216.053 17.874H217.383C217.425 18.084 217.439 18.784 217.439 18.994C217.719 18.42 218.293 17.706 219.651 17.706C221.009 17.706 222.031 18.56 222.031 20.436V25H220.659V20.604C220.659 19.582 220.267 18.882 219.217 18.882C217.971 18.882 217.439 19.792 217.439 21.192V25H216.067ZM228.419 22.802H229.791C229.497 24.02 228.671 25.168 226.795 25.168C224.779 25.168 223.575 23.74 223.575 21.486C223.575 19.456 224.751 17.706 226.879 17.706C229.007 17.706 229.707 19.232 229.791 20.128H228.433C228.265 19.428 227.831 18.84 226.851 18.84C225.661 18.84 224.989 19.862 224.989 21.444C224.989 23.04 225.647 24.048 226.823 24.048C227.663 24.048 228.153 23.586 228.419 22.802ZM226.627 24.86L227.565 25L226.991 25.714C227.481 25.798 228.307 26.078 228.307 27.016C228.307 28.15 227.285 28.402 226.543 28.402C226.067 28.402 225.703 28.332 225.521 28.248V27.366C225.745 27.436 226.207 27.492 226.403 27.492C226.907 27.492 227.117 27.352 227.117 27.044C227.117 26.54 226.431 26.442 225.717 26.428V26.022L226.627 24.86ZM236.674 20.072V23.404C236.674 24.048 236.73 24.804 236.772 25H235.456C235.4 24.846 235.358 24.51 235.344 24.118C235.092 24.58 234.546 25.168 233.188 25.168C231.494 25.168 230.78 24.076 230.78 22.984C230.78 21.388 232.04 20.66 234.154 20.66C234.616 20.66 235.064 20.66 235.33 20.66V20.086C235.33 19.484 235.134 18.756 233.874 18.756C232.754 18.756 232.558 19.302 232.432 19.862H231.116C231.214 18.826 231.844 17.706 233.916 17.706C235.694 17.72 236.674 18.434 236.674 20.072ZM235.33 21.794V21.57C235.12 21.57 234.602 21.57 234.252 21.57C232.866 21.57 232.166 21.962 232.166 22.914C232.166 23.6 232.642 24.118 233.482 24.118C235.12 24.118 235.33 23.026 235.33 21.794Z" fill="#424242"/>
<g filter="url(#filter0_d_1878_88610)">
<path d="M7 46C7 41.5817 10.5817 38 15 38H63C67.4183 38 71 41.5817 71 46V94C71 98.4183 67.4183 102 63 102H15C10.5817 102 7 98.4183 7 94V46Z" fill="white"/>
<path d="M15 38.5H63C67.1421 38.5 70.5 41.8579 70.5 46V94C70.5 98.1421 67.1421 101.5 63 101.5H15C10.8579 101.5 7.5 98.1421 7.5 94V46C7.5 41.8579 10.8579 38.5 15 38.5Z" stroke="#D6D6D6"/>
<path d="M39.1097 48.84C47.6057 48.84 50.1977 56.76 50.1977 65.016C50.1977 72.984 47.8937 81.576 38.9657 81.576C30.1817 81.576 27.7337 73.512 27.7337 65.208C27.7337 57.048 30.4217 48.84 39.1097 48.84ZM39.1097 52.824C33.8777 52.824 32.6777 58.296 32.6777 65.208C32.6777 71.208 33.6377 77.64 38.9657 77.64C44.3417 77.64 45.2537 71.544 45.2537 65.016C45.2537 58.92 44.2457 52.824 39.1097 52.824Z" fill="#D6D6D6"/>
</g>
<g filter="url(#filter1_d_1878_88610)">
<path d="M79 46C79 41.5817 82.5817 38 87 38H135C139.418 38 143 41.5817 143 46V94C143 98.4183 139.418 102 135 102H87C82.5817 102 79 98.4183 79 94V46Z" fill="white"/>
<path d="M87 38.5H135C139.142 38.5 142.5 41.8579 142.5 46V94C142.5 98.1421 139.142 101.5 135 101.5H87C82.8579 101.5 79.5 98.1421 79.5 94V46C79.5 41.8579 82.8579 38.5 87 38.5Z" stroke="#D6D6D6"/>
<path d="M111.11 48.84C119.606 48.84 122.198 56.76 122.198 65.016C122.198 72.984 119.894 81.576 110.966 81.576C102.182 81.576 99.7337 73.512 99.7337 65.208C99.7337 57.048 102.422 48.84 111.11 48.84ZM111.11 52.824C105.878 52.824 104.678 58.296 104.678 65.208C104.678 71.208 105.638 77.64 110.966 77.64C116.342 77.64 117.254 71.544 117.254 65.016C117.254 58.92 116.246 52.824 111.11 52.824Z" fill="#D6D6D6"/>
</g>
<g filter="url(#filter2_d_1878_88610)">
<path d="M151 46C151 41.5817 154.582 38 159 38H207C211.418 38 215 41.5817 215 46V94C215 98.4183 211.418 102 207 102H159C154.582 102 151 98.4183 151 94V46Z" fill="white"/>
<path d="M159 38.5H207C211.142 38.5 214.5 41.8579 214.5 46V94C214.5 98.1421 211.142 101.5 207 101.5H159C154.858 101.5 151.5 98.1421 151.5 94V46C151.5 41.8579 154.858 38.5 159 38.5Z" stroke="#D6D6D6"/>
<path d="M183.11 48.84C191.606 48.84 194.198 56.76 194.198 65.016C194.198 72.984 191.894 81.576 182.966 81.576C174.182 81.576 171.734 73.512 171.734 65.208C171.734 57.048 174.422 48.84 183.11 48.84ZM183.11 52.824C177.878 52.824 176.678 58.296 176.678 65.208C176.678 71.208 177.638 77.64 182.966 77.64C188.342 77.64 189.254 71.544 189.254 65.016C189.254 58.92 188.246 52.824 183.11 52.824Z" fill="#D6D6D6"/>
</g>
<g filter="url(#filter3_d_1878_88610)">
<path d="M223 46C223 41.5817 226.582 38 231 38H279C283.418 38 287 41.5817 287 46V94C287 98.4183 283.418 102 279 102H231C226.582 102 223 98.4183 223 94V46Z" fill="white"/>
<path d="M231 38.5H279C283.142 38.5 286.5 41.8579 286.5 46V94C286.5 98.1421 283.142 101.5 279 101.5H231C226.858 101.5 223.5 98.1421 223.5 94V46C223.5 41.8579 226.858 38.5 231 38.5Z" stroke="#D6D6D6"/>
<path d="M255.11 48.84C263.606 48.84 266.198 56.76 266.198 65.016C266.198 72.984 263.894 81.576 254.966 81.576C246.182 81.576 243.734 73.512 243.734 65.208C243.734 57.048 246.422 48.84 255.11 48.84ZM255.11 52.824C249.878 52.824 248.678 58.296 248.678 65.208C248.678 71.208 249.638 77.64 254.966 77.64C260.342 77.64 261.254 71.544 261.254 65.016C261.254 58.92 260.246 52.824 255.11 52.824Z" fill="#D6D6D6"/>
</g>
<defs>
<filter id="filter0_d_1878_88610" x="5" y="37" width="68" height="68" filterUnits="userSpaceOnUse" color-interpolation-filters="sRGB">
<feFlood flood-opacity="0" result="BackgroundImageFix"/>
<feColorMatrix in="SourceAlpha" type="matrix" values="0 0 0 0 0 0 0 0 0 0 0 0 0 0 0 0 0 0 127 0" result="hardAlpha"/>
<feOffset dy="1"/>
<feGaussianBlur stdDeviation="1"/>
<feComposite in2="hardAlpha" operator="out"/>
<feColorMatrix type="matrix" values="0 0 0 0 0.0627451 0 0 0 0 0.0941176 0 0 0 0 0.156863 0 0 0 0.05 0"/>
<feBlend mode="normal" in2="BackgroundImageFix" result="effect1_dropShadow_1878_88610"/>
<feBlend mode="normal" in="SourceGraphic" in2="effect1_dropShadow_1878_88610" result="shape"/>
</filter>
<filter id="filter1_d_1878_88610" x="77" y="37" width="68" height="68" filterUnits="userSpaceOnUse" color-interpolation-filters="sRGB">
<feFlood flood-opacity="0" result="BackgroundImageFix"/>
<feColorMatrix in="SourceAlpha" type="matrix" values="0 0 0 0 0 0 0 0 0 0 0 0 0 0 0 0 0 0 127 0" result="hardAlpha"/>
<feOffset dy="1"/>
<feGaussianBlur stdDeviation="1"/>
<feComposite in2="hardAlpha" operator="out"/>
<feColorMatrix type="matrix" values="0 0 0 0 0.0627451 0 0 0 0 0.0941176 0 0 0 0 0.156863 0 0 0 0.05 0"/>
<feBlend mode="normal" in2="BackgroundImageFix" result="effect1_dropShadow_1878_88610"/>
<feBlend mode="normal" in="SourceGraphic" in2="effect1_dropShadow_1878_88610" result="shape"/>
</filter>
<filter id="filter2_d_1878_88610" x="149" y="37" width="68" height="68" filterUnits="userSpaceOnUse" color-interpolation-filters="sRGB">
<feFlood flood-opacity="0" result="BackgroundImageFix"/>
<feColorMatrix in="SourceAlpha" type="matrix" values="0 0 0 0 0 0 0 0 0 0 0 0 0 0 0 0 0 0 127 0" result="hardAlpha"/>
<feOffset dy="1"/>
<feGaussianBlur stdDeviation="1"/>
<feComposite in2="hardAlpha" operator="out"/>
<feColorMatrix type="matrix" values="0 0 0 0 0.0627451 0 0 0 0 0.0941176 0 0 0 0 0.156863 0 0 0 0.05 0"/>
<feBlend mode="normal" in2="BackgroundImageFix" result="effect1_dropShadow_1878_88610"/>
<feBlend mode="normal" in="SourceGraphic" in2="effect1_dropShadow_1878_88610" result="shape"/>
</filter>
<filter id="filter3_d_1878_88610" x="221" y="37" width="68" height="68" filterUnits="userSpaceOnUse" color-interpolation-filters="sRGB">
<feFlood flood-opacity="0" result="BackgroundImageFix"/>
<feColorMatrix in="SourceAlpha" type="matrix" values="0 0 0 0 0 0 0 0 0 0 0 0 0 0 0 0 0 0 127 0" result="hardAlpha"/>
<feOffset dy="1"/>
<feGaussianBlur stdDeviation="1"/>
<feComposite in2="hardAlpha" operator="out"/>
<feColorMatrix type="matrix" values="0 0 0 0 0.0627451 0 0 0 0 0.0941176 0 0 0 0 0.156863 0 0 0 0.05 0"/>
<feBlend mode="normal" in2="BackgroundImageFix" result="effect1_dropShadow_1878_88610"/>
<feBlend mode="normal" in="SourceGraphic" in2="effect1_dropShadow_1878_88610" result="shape"/>
</filter>
</defs>
</svg>
